G04 #@! TF.FileFunction,Soldermask,Bot*
%FSLAX46Y46*%
G04 Gerber Fmt 4.6, Leading zero omitted, Abs format (unit mm)*
G04 Created by KiCad (PCBNEW (2016-08-20 BZR 7083)-product) date Sat Sep 29 14:41:50 2018*
%MOMM*%
%LPD*%
G01*
G04 APERTURE LIST*
%ADD10C,0.100000*%
%ADD11R,1.800000X1.800000*%
%ADD12C,1.800000*%
%ADD13C,1.700000*%
%ADD14R,1.800000X2.400000*%
%ADD15O,1.800000X2.400000*%
%ADD16C,2.200000*%
%ADD17O,2.200000X3.200000*%
%ADD18O,2.800000X1.800000*%
%ADD19C,1.400000*%
%ADD20R,1.400000X1.400000*%
%ADD21C,5.200000*%
G04 APERTURE END LIST*
D10*
D11*
X30450000Y101900000D03*
D12*
X32950000Y101900000D03*
D11*
X47850000Y101900000D03*
D12*
X45350000Y101900000D03*
D13*
X35760000Y104100000D03*
X40840000Y104100000D03*
X36960000Y101900000D03*
X42040000Y101900000D03*
X27860000Y33800000D03*
X32940000Y33800000D03*
X27900000Y51440000D03*
X27900000Y46360000D03*
X40000000Y78140000D03*
X40000000Y73060000D03*
X57740000Y72400000D03*
X52660000Y72400000D03*
D14*
X20280000Y36290000D03*
D15*
X22820000Y36290000D03*
X25360000Y36290000D03*
X27900000Y36290000D03*
X30440000Y36290000D03*
X32980000Y36290000D03*
X35520000Y36290000D03*
X35520000Y43910000D03*
X32980000Y43910000D03*
X30440000Y43910000D03*
X27900000Y43910000D03*
X25360000Y43910000D03*
X22820000Y43910000D03*
X20280000Y43910000D03*
D14*
X42590000Y72390000D03*
D15*
X45130000Y72390000D03*
X47670000Y72390000D03*
X50210000Y72390000D03*
X50210000Y80010000D03*
X47670000Y80010000D03*
X45130000Y80010000D03*
X42590000Y80010000D03*
D16*
X16300000Y80720000D03*
X16300000Y90880000D03*
X25500000Y80720000D03*
X25500000Y90880000D03*
D17*
X39500000Y94000000D03*
X29500000Y94000000D03*
D12*
X37000000Y87000000D03*
X34500000Y87000000D03*
X32000000Y87000000D03*
D17*
X17000000Y66000000D03*
X7000000Y66000000D03*
D12*
X14500000Y59000000D03*
X12000000Y59000000D03*
X9500000Y59000000D03*
D17*
X62000000Y66000000D03*
X52000000Y66000000D03*
D12*
X59500000Y59000000D03*
X57000000Y59000000D03*
X54500000Y59000000D03*
D17*
X39500000Y53500000D03*
X29500000Y53500000D03*
D12*
X37000000Y46500000D03*
X34500000Y46500000D03*
X32000000Y46500000D03*
D18*
X12000000Y82460000D03*
X12000000Y87540000D03*
X12000000Y85000000D03*
D19*
X10730000Y104500000D03*
D20*
X13270000Y104500000D03*
D16*
X19300000Y80720000D03*
X19300000Y90880000D03*
X22500000Y90880000D03*
X22500000Y80720000D03*
D12*
X62900000Y88500000D03*
X62900000Y80900000D03*
X65000000Y80900000D03*
X65000000Y88500000D03*
X14150000Y77650000D03*
X19250000Y76750000D03*
X22450000Y77650000D03*
X27550000Y76750000D03*
D19*
X5600000Y102565000D03*
X4330000Y103835000D03*
X6870000Y103835000D03*
D11*
X22980000Y96130000D03*
D12*
X22980000Y98670000D03*
X20440000Y96130000D03*
X20440000Y98670000D03*
X17900000Y96130000D03*
X17900000Y98670000D03*
X15360000Y96130000D03*
X15360000Y98670000D03*
X12820000Y96130000D03*
X12820000Y98670000D03*
D16*
X28000000Y19700000D03*
X28000000Y27800000D03*
X28000000Y16700000D03*
X41000000Y19700000D03*
X41000000Y27800000D03*
X41000000Y16700000D03*
X8500000Y4700000D03*
X8500000Y12800000D03*
X8500000Y1700000D03*
X21500000Y4700000D03*
X21500000Y12800000D03*
X21500000Y1700000D03*
X34500000Y4700000D03*
X34500000Y12800000D03*
X34500000Y1700000D03*
X47500000Y4700000D03*
X47500000Y12800000D03*
X47500000Y1700000D03*
X60500000Y4700000D03*
X60500000Y12800000D03*
X60500000Y1700000D03*
D11*
X34600000Y21750000D03*
D12*
X34600000Y19250000D03*
D11*
X52750000Y25600000D03*
D12*
X50250000Y25600000D03*
D13*
X66240000Y104500000D03*
X61160000Y104500000D03*
X25440000Y33800000D03*
X20360000Y33800000D03*
X61160000Y99400000D03*
X66240000Y99400000D03*
X61160000Y102000000D03*
X66240000Y102000000D03*
X52800000Y74560000D03*
X52800000Y79640000D03*
D11*
X63650000Y25600000D03*
D12*
X66150000Y25600000D03*
D11*
X59450000Y25600000D03*
D12*
X56950000Y25600000D03*
X50900000Y37300000D03*
X52900000Y102000000D03*
X55000000Y74600000D03*
X40800000Y86100000D03*
X57400000Y78800000D03*
X65000000Y78800000D03*
D19*
X59130000Y78800000D03*
D20*
X61670000Y78800000D03*
D12*
X25700000Y46300000D03*
X25700000Y53900000D03*
X23500000Y53900000D03*
X23500000Y46300000D03*
D19*
X63370000Y74600000D03*
D20*
X60830000Y74600000D03*
D12*
X65000000Y74600000D03*
X57400000Y74600000D03*
X15900000Y17600000D03*
X8300000Y17600000D03*
X8300000Y15500000D03*
X15900000Y15500000D03*
X5700000Y85000000D03*
X5700000Y77400000D03*
X7900000Y77400000D03*
X7900000Y85000000D03*
X64000000Y31300000D03*
X64000000Y38900000D03*
X15900000Y19700000D03*
X8300000Y19700000D03*
X66200000Y38900000D03*
X66200000Y31300000D03*
X35200000Y32700000D03*
X35200000Y25100000D03*
X8300000Y21800000D03*
X15900000Y21800000D03*
X25400000Y30800000D03*
X33000000Y30800000D03*
X67300000Y20800000D03*
X59700000Y20800000D03*
X49900000Y20800000D03*
X57500000Y20800000D03*
X59700000Y18600000D03*
X67300000Y18600000D03*
X57500000Y18600000D03*
X49900000Y18600000D03*
D11*
X4000000Y16850000D03*
D12*
X4000000Y19350000D03*
D17*
X17000000Y41000000D03*
X7000000Y41000000D03*
D12*
X14500000Y34000000D03*
X12000000Y34000000D03*
X9500000Y34000000D03*
D17*
X62000000Y41000000D03*
X52000000Y41000000D03*
D12*
X59500000Y34000000D03*
X57000000Y34000000D03*
X54500000Y34000000D03*
D18*
X57000000Y99460000D03*
X57000000Y104540000D03*
X57000000Y102000000D03*
X59032000Y87540000D03*
X54968000Y87540000D03*
X54968000Y82460000D03*
X59032000Y82460000D03*
X59032000Y85000000D03*
X54968000Y85000000D03*
D12*
X1500000Y49570000D03*
X1500000Y52110000D03*
X1500000Y54650000D03*
X1500000Y57190000D03*
X1500000Y59730000D03*
X1500000Y62270000D03*
X1500000Y64810000D03*
X1500000Y67350000D03*
D11*
X1500000Y72430000D03*
D12*
X1500000Y69890000D03*
X67500000Y49570000D03*
X67500000Y52110000D03*
X67500000Y54650000D03*
X67500000Y57190000D03*
X67500000Y59730000D03*
X67500000Y62270000D03*
X67500000Y64810000D03*
X67500000Y67350000D03*
D11*
X67500000Y72430000D03*
D12*
X67500000Y69890000D03*
D21*
X40500000Y62000000D03*
D16*
X2100000Y3000000D03*
X2100000Y13000000D03*
X11100000Y47900000D03*
X21100000Y47900000D03*
X11100000Y53900000D03*
X21100000Y53900000D03*
X21100000Y50900000D03*
X11100000Y50900000D03*
X45400000Y63300000D03*
X45400000Y53300000D03*
X49000000Y53300000D03*
X49000000Y63300000D03*
X62000000Y53300000D03*
X52000000Y53300000D03*
X28000000Y3000000D03*
X28000000Y13000000D03*
X15000000Y13000000D03*
X15000000Y3000000D03*
X2500000Y90300000D03*
X2500000Y100300000D03*
X5600000Y90300000D03*
X5600000Y100300000D03*
X48900000Y50300000D03*
X48900000Y40300000D03*
X15700000Y103900000D03*
X25700000Y103900000D03*
X51200000Y31300000D03*
X61200000Y31300000D03*
X18600000Y25600000D03*
X18600000Y15600000D03*
X47300000Y18700000D03*
X47300000Y28700000D03*
X48200000Y31300000D03*
X38200000Y31300000D03*
X21600000Y15600000D03*
X21600000Y25600000D03*
X48200000Y34300000D03*
X38200000Y34300000D03*
X38200000Y37300000D03*
X48200000Y37300000D03*
X28100000Y83700000D03*
X38100000Y83700000D03*
X28100000Y80600000D03*
X38100000Y80600000D03*
X11900000Y28300000D03*
X21900000Y28300000D03*
X64900000Y96000000D03*
X54900000Y96000000D03*
X5800000Y25300000D03*
X15800000Y25300000D03*
X21900000Y31300000D03*
X11900000Y31300000D03*
X50500000Y96500000D03*
X50500000Y86500000D03*
X45500000Y50300000D03*
X45500000Y40300000D03*
X39300000Y66200000D03*
X49300000Y66200000D03*
X42000000Y40300000D03*
X42000000Y50300000D03*
X49300000Y69200000D03*
X39300000Y69200000D03*
X66900000Y3000000D03*
X66900000Y13000000D03*
X54000000Y3000000D03*
X54000000Y13000000D03*
X64900000Y91000000D03*
X54900000Y91000000D03*
X47500000Y96500000D03*
X47500000Y86500000D03*
X66900000Y15900000D03*
X56900000Y15900000D03*
X54000000Y15900000D03*
X44000000Y15900000D03*
X40800000Y83700000D03*
X50800000Y83700000D03*
X44500000Y96500000D03*
X44500000Y86500000D03*
M02*
