M48
;DRILL file {KiCad (2016-08-20 BZR 7083)-product} date Sat Sep 29 14:41:52 2018
;FORMAT={3:3/ absolute / metric / suppress leading zeros}
FMAT,2
METRIC,TZ
T1C0.400
T2C0.700
T3C0.800
T4C0.900
T5C1.000
T6C1.100
T7C1.400
T8C3.200
%
G90
G05
M71
T1
X1300Y75200
X1400Y88600
X1500Y35400
X1500Y22100
X2000Y96200
X2000Y47100
X3500Y73800
X3500Y11700
X3800Y78700
X4400Y33400
X5700Y52100
X6200Y57200
X6400Y45900
X6600Y34500
X7500Y102000
X7600Y68800
X7900Y31300
X8300Y81700
X8400Y47400
X8500Y71700
X9700Y80800
X9700Y70900
X10000Y40200
X10000Y15200
X10400Y24900
X10900Y69800
X10900Y22700
X11100Y13300
X11300Y91900
X11700Y80800
X12900Y36700
X13000Y49100
X13100Y60700
X13900Y102900
X14100Y21100
X14400Y85700
X15400Y35300
X15600Y29200
X17100Y85700
X17200Y78700
X17300Y12100
X17800Y22100
X18600Y50600
X18900Y20900
X19200Y7300
X19600Y71300
X19600Y45800
X19800Y18600
X22300Y55800
X22600Y82900
X23500Y79200
X23600Y21500
X24400Y10800
X24800Y96700
X25600Y38400
X26600Y5000
X26700Y102100
X29100Y104100
X29500Y5300
X29900Y71300
X30000Y41700
X30600Y26700
X31300Y57300
X32000Y97800
X32000Y38200
X32300Y10900
X32700Y83700
X32700Y28700
X32700Y26700
X32800Y78200
X32900Y98800
X33700Y74500
X35000Y58000
X35200Y28600
X36300Y49500
X36400Y81800
X37000Y76800
X37300Y42800
X37700Y40500
X38000Y74500
X38200Y49200
X38400Y20100
X40200Y81300
X40300Y36500
X40600Y42800
X40700Y45300
X40900Y10600
X41300Y37200
X42100Y29500
X42200Y32900
X43100Y38700
X43500Y45300
X43700Y77900
X44400Y75600
X44800Y84400
X45700Y35800
X46300Y81500
X46400Y38700
X47200Y55600
X47300Y42500
X47400Y25100
X48800Y78000
X48900Y75800
X49900Y45300
X50500Y75600
X51500Y69500
X52400Y87700
X52400Y35800
X52500Y98200
X52600Y20400
X52600Y17500
X53400Y23700
X54300Y22800
X54900Y103600
X55100Y18900
X55600Y43900
X56100Y77200
X56800Y10100
X56900Y88800
X57000Y45500
X57100Y52900
X57100Y36100
X57200Y50900
X57200Y27500
X58000Y22400
X58200Y97400
X58600Y17000
X59200Y48700
X59200Y31600
X59400Y64300
X60000Y45500
X60000Y43900
X61400Y33400
X61600Y86200
X61700Y59500
X61900Y27500
X62900Y69900
X63100Y48200
X63200Y15800
X64200Y65800
X64200Y58200
X64300Y33400
X64500Y9100
X64900Y23900
X65100Y29900
X65400Y20400
X66700Y43100
X67500Y34900
T2
X4330Y103835
X5600Y102565
X6870Y103835
T3
X5700Y85000
X5700Y77400
X7900Y85000
X7900Y77400
X8300Y21800
X8300Y19700
X8300Y17600
X8300Y15500
X10730Y104500
X13270Y104500
X14150Y77650
X15900Y21800
X15900Y19700
X15900Y17600
X15900Y15500
X19250Y76750
X20360Y33800
X22450Y77650
X23500Y53900
X23500Y46300
X25400Y30800
X25440Y33800
X25700Y53900
X25700Y46300
X27550Y76750
X27860Y33800
X27900Y51440
X27900Y46360
X32940Y33800
X33000Y30800
X35200Y32700
X35200Y25100
X35760Y104100
X36960Y101900
X40000Y78140
X40000Y73060
X40840Y104100
X42040Y101900
X49900Y20800
X49900Y18600
X52660Y72400
X52800Y79640
X52800Y74560
X57400Y78800
X57400Y74600
X57500Y20800
X57500Y18600
X57740Y72400
X59130Y78800
X59700Y20800
X59700Y18600
X60830Y74600
X61160Y104500
X61160Y102000
X61160Y99400
X61670Y78800
X62900Y88500
X62900Y80900
X63370Y74600
X64000Y38900
X64000Y31300
X65000Y88500
X65000Y80900
X65000Y78800
X65000Y74600
X66200Y38900
X66200Y31300
X66240Y104500
X66240Y102000
X66240Y99400
X67300Y20800
X67300Y18600
T4
X4000Y19350
X4000Y16850
X20280Y43910
X20280Y36290
X22820Y43910
X22820Y36290
X25360Y43910
X25360Y36290
X27900Y43910
X27900Y36290
X30440Y43910
X30440Y36290
X30450Y101900
X32950Y101900
X32980Y43910
X32980Y36290
X34600Y21750
X34600Y19250
X35520Y43910
X35520Y36290
X40800Y86100
X42590Y80010
X42590Y72390
X45130Y80010
X45130Y72390
X45350Y101900
X47670Y80010
X47670Y72390
X47850Y101900
X50210Y80010
X50210Y72390
X50250Y25600
X50900Y37300
X52750Y25600
X52900Y102000
X55000Y74600
X56950Y25600
X59450Y25600
X63650Y25600
X66150Y25600
T5
X1500Y72430
X1500Y69890
X1500Y67350
X1500Y64810
X1500Y62270
X1500Y59730
X1500Y57190
X1500Y54650
X1500Y52110
X1500Y49570
X2100Y13000
X2100Y3000
X2500Y100300
X2500Y90300
X5600Y100300
X5600Y90300
X5800Y25300
X9500Y59000
X9500Y34000
X11100Y53900
X11100Y50900
X11100Y47900
X11900Y31300
X11900Y28300
X12000Y59000
X12000Y34000
X12820Y98670
X12820Y96130
X14500Y59000
X14500Y34000
X15000Y13000
X15000Y3000
X15360Y98670
X15360Y96130
X15700Y103900
X15800Y25300
X16300Y90880
X16300Y80720
X17900Y98670
X17900Y96130
X18600Y25600
X18600Y15600
X19300Y90880
X19300Y80720
X20440Y98670
X20440Y96130
X21100Y53900
X21100Y50900
X21100Y47900
X21600Y25600
X21600Y15600
X21900Y31300
X21900Y28300
X22500Y90880
X22500Y80720
X22980Y98670
X22980Y96130
X25500Y90880
X25500Y80720
X25700Y103900
X28000Y13000
X28000Y3000
X28100Y83700
X28100Y80600
X32000Y87000
X32000Y46500
X34500Y87000
X34500Y46500
X37000Y87000
X37000Y46500
X38100Y83700
X38100Y80600
X38200Y37300
X38200Y34300
X38200Y31300
X39300Y69200
X39300Y66200
X40800Y83700
X42000Y50300
X42000Y40300
X44000Y15900
X44500Y96500
X44500Y86500
X45400Y63300
X45400Y53300
X45500Y50300
X45500Y40300
X47300Y28700
X47300Y18700
X47500Y96500
X47500Y86500
X48200Y37300
X48200Y34300
X48200Y31300
X48900Y50300
X48900Y40300
X49000Y63300
X49000Y53300
X49300Y69200
X49300Y66200
X50500Y96500
X50500Y86500
X50800Y83700
X51200Y31300
X52000Y53300
X54000Y15900
X54000Y13000
X54000Y3000
X54500Y59000
X54500Y34000
X54900Y96000
X54900Y91000
X56900Y15900
X57000Y59000
X57000Y34000
X59500Y59000
X59500Y34000
X61200Y31300
X62000Y53300
X64900Y96000
X64900Y91000
X66900Y15900
X66900Y13000
X66900Y3000
X67500Y72430
X67500Y69890
X67500Y67350
X67500Y64810
X67500Y62270
X67500Y59730
X67500Y57190
X67500Y54650
X67500Y52110
X67500Y49570
T6
X8500Y12800
X8500Y4700
X8500Y1700
X21500Y12800
X21500Y4700
X21500Y1700
X28000Y27800
X28000Y19700
X28000Y16700
X34500Y12800
X34500Y4700
X34500Y1700
X41000Y27800
X41000Y19700
X41000Y16700
X47500Y12800
X47500Y4700
X47500Y1700
X60500Y12800
X60500Y4700
X60500Y1700
T7
X7000Y66000
X7000Y41000
X17000Y66000
X17000Y41000
X29500Y94000
X29500Y53500
X39500Y94000
X39500Y53500
X52000Y66000
X52000Y41000
X62000Y66000
X62000Y41000
T8
X40500Y62000
T4
X11600Y87540G85X12400Y87540
G05
X11600Y85000G85X12400Y85000
G05
X11600Y82460G85X12400Y82460
G05
X55368Y87540G85X54568Y87540
G05
X55368Y85000G85X54568Y85000
G05
X55368Y82460G85X54568Y82460
G05
X56600Y104540G85X57400Y104540
G05
X56600Y102000G85X57400Y102000
G05
X56600Y99460G85X57400Y99460
G05
X59432Y87540G85X58632Y87540
G05
X59432Y85000G85X58632Y85000
G05
X59432Y82460G85X58632Y82460
G05
T0
M30
