G04 #@! TF.FileFunction,Legend,Bot*
%FSLAX46Y46*%
G04 Gerber Fmt 4.6, Leading zero omitted, Abs format (unit mm)*
G04 Created by KiCad (PCBNEW (2016-08-20 BZR 7083)-product) date Sat Sep 29 14:41:50 2018*
%MOMM*%
%LPD*%
G01*
G04 APERTURE LIST*
%ADD10C,0.100000*%
%ADD11C,0.800000*%
%ADD12C,0.200000*%
%ADD13C,0.120000*%
%ADD14C,0.150000*%
G04 APERTURE END LIST*
D10*
D11*
X60500000Y89000000D02*
X7500000Y89000000D01*
D10*
X67300000Y73883334D02*
X67700000Y73883334D01*
X67500000Y73883334D02*
X67500000Y74583334D01*
X67566666Y74483334D01*
X67633333Y74416667D01*
X67700000Y74383334D01*
X1300000Y73983334D02*
X1700000Y73983334D01*
X1500000Y73983334D02*
X1500000Y74683334D01*
X1566666Y74583334D01*
X1633333Y74516667D01*
X1700000Y74483334D01*
D12*
X32161904Y97092858D02*
X31400000Y97092858D01*
X30400000Y96521429D02*
X30971428Y96521429D01*
X30685714Y96521429D02*
X30685714Y98021429D01*
X30780952Y97807143D01*
X30876190Y97664286D01*
X30971428Y97592858D01*
X30019047Y97878572D02*
X29971428Y97950000D01*
X29876190Y98021429D01*
X29638095Y98021429D01*
X29542857Y97950000D01*
X29495238Y97878572D01*
X29447619Y97735715D01*
X29447619Y97592858D01*
X29495238Y97378572D01*
X30066666Y96521429D01*
X29447619Y96521429D01*
X29161904Y98021429D02*
X28828571Y96521429D01*
X28495238Y98021429D01*
X6461904Y97792858D02*
X5700000Y97792858D01*
X6080952Y97221429D02*
X6080952Y98364286D01*
X4700000Y97221429D02*
X5271428Y97221429D01*
X4985714Y97221429D02*
X4985714Y98721429D01*
X5080952Y98507143D01*
X5176190Y98364286D01*
X5271428Y98292858D01*
X4319047Y98578572D02*
X4271428Y98650000D01*
X4176190Y98721429D01*
X3938095Y98721429D01*
X3842857Y98650000D01*
X3795238Y98578572D01*
X3747619Y98435715D01*
X3747619Y98292858D01*
X3795238Y98078572D01*
X4366666Y97221429D01*
X3747619Y97221429D01*
X3461904Y98721429D02*
X3128571Y97221429D01*
X2795238Y98721429D01*
D10*
X67607142Y96307143D02*
X68207142Y96135715D01*
X67778571Y95964286D01*
X68207142Y95792858D01*
X67607142Y95621429D01*
X67607142Y95364286D02*
X68207142Y95192858D01*
X67778571Y95021429D01*
X68207142Y94850000D01*
X67607142Y94678572D01*
X67607142Y94421429D02*
X68207142Y94250000D01*
X67778571Y94078572D01*
X68207142Y93907143D01*
X67607142Y93735715D01*
X68121428Y93392858D02*
X68164285Y93350000D01*
X68207142Y93392858D01*
X68164285Y93435715D01*
X68121428Y93392858D01*
X68207142Y93392858D01*
X68164285Y92621429D02*
X68207142Y92707143D01*
X68207142Y92878572D01*
X68164285Y92964286D01*
X68078571Y93007143D01*
X67735714Y93007143D01*
X67650000Y92964286D01*
X67607142Y92878572D01*
X67607142Y92707143D01*
X67650000Y92621429D01*
X67735714Y92578572D01*
X67821428Y92578572D01*
X67907142Y93007143D01*
X68207142Y92192858D02*
X67607142Y92192858D01*
X67778571Y92192858D02*
X67692857Y92150000D01*
X67650000Y92107143D01*
X67607142Y92021429D01*
X67607142Y91935715D01*
X68207142Y91635715D02*
X67607142Y91635715D01*
X67307142Y91635715D02*
X67350000Y91678572D01*
X67392857Y91635715D01*
X67350000Y91592858D01*
X67307142Y91635715D01*
X67392857Y91635715D01*
X68164285Y90821429D02*
X68207142Y90907143D01*
X68207142Y91078572D01*
X68164285Y91164286D01*
X68121428Y91207143D01*
X68035714Y91250000D01*
X67778571Y91250000D01*
X67692857Y91207143D01*
X67650000Y91164286D01*
X67607142Y91078572D01*
X67607142Y90907143D01*
X67650000Y90821429D01*
X68207142Y90050000D02*
X67735714Y90050000D01*
X67650000Y90092858D01*
X67607142Y90178572D01*
X67607142Y90350000D01*
X67650000Y90435715D01*
X68164285Y90050000D02*
X68207142Y90135715D01*
X68207142Y90350000D01*
X68164285Y90435715D01*
X68078571Y90478572D01*
X67992857Y90478572D01*
X67907142Y90435715D01*
X67864285Y90350000D01*
X67864285Y90135715D01*
X67821428Y90050000D01*
X68164285Y89664286D02*
X68207142Y89578572D01*
X68207142Y89407143D01*
X68164285Y89321429D01*
X68078571Y89278572D01*
X68035714Y89278572D01*
X67950000Y89321429D01*
X67907142Y89407143D01*
X67907142Y89535715D01*
X67864285Y89621429D01*
X67778571Y89664286D01*
X67735714Y89664286D01*
X67650000Y89621429D01*
X67607142Y89535715D01*
X67607142Y89407143D01*
X67650000Y89321429D01*
X67607142Y88978572D02*
X68207142Y88764286D01*
X67607142Y88550000D02*
X68207142Y88764286D01*
X68421428Y88850000D01*
X68464285Y88892858D01*
X68507142Y88978572D01*
X67607142Y88207143D02*
X68207142Y88207143D01*
X67692857Y88207143D02*
X67650000Y88164286D01*
X67607142Y88078572D01*
X67607142Y87950000D01*
X67650000Y87864286D01*
X67735714Y87821429D01*
X68207142Y87821429D01*
X67607142Y87521429D02*
X67607142Y87178572D01*
X67307142Y87392858D02*
X68078571Y87392858D01*
X68164285Y87350000D01*
X68207142Y87264286D01*
X68207142Y87178572D01*
X68207142Y86878572D02*
X67307142Y86878572D01*
X68207142Y86492858D02*
X67735714Y86492858D01*
X67650000Y86535715D01*
X67607142Y86621429D01*
X67607142Y86750000D01*
X67650000Y86835715D01*
X67692857Y86878572D01*
X68164285Y86107143D02*
X68207142Y86021429D01*
X68207142Y85850000D01*
X68164285Y85764286D01*
X68078571Y85721429D01*
X68035714Y85721429D01*
X67950000Y85764286D01*
X67907142Y85850000D01*
X67907142Y85978572D01*
X67864285Y86064286D01*
X67778571Y86107143D01*
X67735714Y86107143D01*
X67650000Y86064286D01*
X67607142Y85978572D01*
X67607142Y85850000D01*
X67650000Y85764286D01*
X68121428Y85335715D02*
X68164285Y85292858D01*
X68207142Y85335715D01*
X68164285Y85378572D01*
X68121428Y85335715D01*
X68207142Y85335715D01*
X68207142Y84778572D02*
X68164285Y84864286D01*
X68078571Y84907143D01*
X67307142Y84907143D01*
X67607142Y84521429D02*
X68207142Y84307143D01*
X67607142Y84092858D01*
D12*
X26985714Y72395239D02*
X26985714Y74395239D01*
X26700000Y74395239D01*
X26528571Y74300000D01*
X26414285Y74109524D01*
X26357142Y73919048D01*
X26300000Y73538096D01*
X26300000Y73252381D01*
X26357142Y72871429D01*
X26414285Y72680953D01*
X26528571Y72490477D01*
X26700000Y72395239D01*
X26985714Y72395239D01*
X25785714Y72395239D02*
X25785714Y74395239D01*
X24985714Y73347620D02*
X24985714Y72395239D01*
X25385714Y74395239D02*
X24985714Y73347620D01*
X24585714Y74395239D01*
X23785714Y73442858D02*
X23614285Y73347620D01*
X23557142Y73252381D01*
X23500000Y73061905D01*
X23500000Y72776191D01*
X23557142Y72585715D01*
X23614285Y72490477D01*
X23728571Y72395239D01*
X24185714Y72395239D01*
X24185714Y74395239D01*
X23785714Y74395239D01*
X23671428Y74300000D01*
X23614285Y74204762D01*
X23557142Y74014286D01*
X23557142Y73823810D01*
X23614285Y73633334D01*
X23671428Y73538096D01*
X23785714Y73442858D01*
X24185714Y73442858D01*
X22585714Y73442858D02*
X22414285Y73347620D01*
X22357142Y73252381D01*
X22300000Y73061905D01*
X22300000Y72776191D01*
X22357142Y72585715D01*
X22414285Y72490477D01*
X22528571Y72395239D01*
X22985714Y72395239D01*
X22985714Y74395239D01*
X22585714Y74395239D01*
X22471428Y74300000D01*
X22414285Y74204762D01*
X22357142Y74014286D01*
X22357142Y73823810D01*
X22414285Y73633334D01*
X22471428Y73538096D01*
X22585714Y73442858D01*
X22985714Y73442858D01*
X21785714Y72395239D02*
X21785714Y74395239D01*
X21500000Y74395239D01*
X21328571Y74300000D01*
X21214285Y74109524D01*
X21157142Y73919048D01*
X21100000Y73538096D01*
X21100000Y73252381D01*
X21157142Y72871429D01*
X21214285Y72680953D01*
X21328571Y72490477D01*
X21500000Y72395239D01*
X21785714Y72395239D01*
X20642857Y74204762D02*
X20585714Y74300000D01*
X20471428Y74395239D01*
X20185714Y74395239D01*
X20071428Y74300000D01*
X20014285Y74204762D01*
X19957142Y74014286D01*
X19957142Y73823810D01*
X20014285Y73538096D01*
X20700000Y72395239D01*
X19957142Y72395239D01*
X18757142Y72585715D02*
X18814285Y72490477D01*
X18985714Y72395239D01*
X19100000Y72395239D01*
X19271428Y72490477D01*
X19385714Y72680953D01*
X19442857Y72871429D01*
X19500000Y73252381D01*
X19500000Y73538096D01*
X19442857Y73919048D01*
X19385714Y74109524D01*
X19271428Y74300000D01*
X19100000Y74395239D01*
X18985714Y74395239D01*
X18814285Y74300000D01*
X18757142Y74204762D01*
X31476190Y65557143D02*
X31142857Y65557143D01*
X31000000Y64771429D02*
X31476190Y64771429D01*
X31476190Y66271429D01*
X31000000Y66271429D01*
X30571428Y64771429D02*
X30571428Y65771429D01*
X30571428Y65485715D02*
X30523809Y65628572D01*
X30476190Y65700000D01*
X30380952Y65771429D01*
X30285714Y65771429D01*
X29952380Y64771429D02*
X29952380Y65771429D01*
X29952380Y66271429D02*
X30000000Y66200000D01*
X29952380Y66128572D01*
X29904761Y66200000D01*
X29952380Y66271429D01*
X29952380Y66128572D01*
X29047619Y64842858D02*
X29142857Y64771429D01*
X29333333Y64771429D01*
X29428571Y64842858D01*
X29476190Y64914286D01*
X29523809Y65057143D01*
X29523809Y65485715D01*
X29476190Y65628572D01*
X29428571Y65700000D01*
X29333333Y65771429D01*
X29142857Y65771429D01*
X29047619Y65700000D01*
X28190476Y64771429D02*
X28190476Y65557143D01*
X28238095Y65700000D01*
X28333333Y65771429D01*
X28523809Y65771429D01*
X28619047Y65700000D01*
X28190476Y64842858D02*
X28285714Y64771429D01*
X28523809Y64771429D01*
X28619047Y64842858D01*
X28666666Y64985715D01*
X28666666Y65128572D01*
X28619047Y65271429D01*
X28523809Y65342858D01*
X28285714Y65342858D01*
X28190476Y65414286D01*
X27000000Y64842858D02*
X26857142Y64771429D01*
X26619047Y64771429D01*
X26523809Y64842858D01*
X26476190Y64914286D01*
X26428571Y65057143D01*
X26428571Y65200000D01*
X26476190Y65342858D01*
X26523809Y65414286D01*
X26619047Y65485715D01*
X26809523Y65557143D01*
X26904761Y65628572D01*
X26952380Y65700000D01*
X27000000Y65842858D01*
X27000000Y65985715D01*
X26952380Y66128572D01*
X26904761Y66200000D01*
X26809523Y66271429D01*
X26571428Y66271429D01*
X26428571Y66200000D01*
X26095238Y65771429D02*
X25857142Y64771429D01*
X25619047Y65771429D02*
X25857142Y64771429D01*
X25952380Y64414286D01*
X26000000Y64342858D01*
X26095238Y64271429D01*
X25238095Y65771429D02*
X25238095Y64771429D01*
X25238095Y65628572D02*
X25190476Y65700000D01*
X25095238Y65771429D01*
X24952380Y65771429D01*
X24857142Y65700000D01*
X24809523Y65557143D01*
X24809523Y64771429D01*
X24476190Y65771429D02*
X24095238Y65771429D01*
X24333333Y66271429D02*
X24333333Y64985715D01*
X24285714Y64842858D01*
X24190476Y64771429D01*
X24095238Y64771429D01*
X23761904Y64771429D02*
X23761904Y66271429D01*
X23333333Y64771429D02*
X23333333Y65557143D01*
X23380952Y65700000D01*
X23476190Y65771429D01*
X23619047Y65771429D01*
X23714285Y65700000D01*
X23761904Y65628572D01*
X22904761Y64842858D02*
X22809523Y64771429D01*
X22619047Y64771429D01*
X22523809Y64842858D01*
X22476190Y64985715D01*
X22476190Y65057143D01*
X22523809Y65200000D01*
X22619047Y65271429D01*
X22761904Y65271429D01*
X22857142Y65342858D01*
X22904761Y65485715D01*
X22904761Y65557143D01*
X22857142Y65700000D01*
X22761904Y65771429D01*
X22619047Y65771429D01*
X22523809Y65700000D01*
X32404761Y62321429D02*
X32404761Y63821429D01*
X32166666Y63821429D01*
X32023809Y63750000D01*
X31928571Y63607143D01*
X31880952Y63464286D01*
X31833333Y63178572D01*
X31833333Y62964286D01*
X31880952Y62678572D01*
X31928571Y62535715D01*
X32023809Y62392858D01*
X32166666Y62321429D01*
X32404761Y62321429D01*
X31404761Y62321429D02*
X31404761Y63821429D01*
X30738095Y63035715D02*
X30738095Y62321429D01*
X31071428Y63821429D02*
X30738095Y63035715D01*
X30404761Y63821429D01*
X28976190Y63107143D02*
X28833333Y63035715D01*
X28785714Y62964286D01*
X28738095Y62821429D01*
X28738095Y62607143D01*
X28785714Y62464286D01*
X28833333Y62392858D01*
X28928571Y62321429D01*
X29309523Y62321429D01*
X29309523Y63821429D01*
X28976190Y63821429D01*
X28880952Y63750000D01*
X28833333Y63678572D01*
X28785714Y63535715D01*
X28785714Y63392858D01*
X28833333Y63250000D01*
X28880952Y63178572D01*
X28976190Y63107143D01*
X29309523Y63107143D01*
X27976190Y63107143D02*
X27833333Y63035715D01*
X27785714Y62964286D01*
X27738095Y62821429D01*
X27738095Y62607143D01*
X27785714Y62464286D01*
X27833333Y62392858D01*
X27928571Y62321429D01*
X28309523Y62321429D01*
X28309523Y63821429D01*
X27976190Y63821429D01*
X27880952Y63750000D01*
X27833333Y63678572D01*
X27785714Y63535715D01*
X27785714Y63392858D01*
X27833333Y63250000D01*
X27880952Y63178572D01*
X27976190Y63107143D01*
X28309523Y63107143D01*
X27309523Y62321429D02*
X27309523Y63821429D01*
X27071428Y63821429D01*
X26928571Y63750000D01*
X26833333Y63607143D01*
X26785714Y63464286D01*
X26738095Y63178572D01*
X26738095Y62964286D01*
X26785714Y62678572D01*
X26833333Y62535715D01*
X26928571Y62392858D01*
X27071428Y62321429D01*
X27309523Y62321429D01*
X25547619Y62321429D02*
X25547619Y63821429D01*
X25309523Y63821429D01*
X25166666Y63750000D01*
X25071428Y63607143D01*
X25023809Y63464286D01*
X24976190Y63178572D01*
X24976190Y62964286D01*
X25023809Y62678572D01*
X25071428Y62535715D01*
X25166666Y62392858D01*
X25309523Y62321429D01*
X25547619Y62321429D01*
X24547619Y63107143D02*
X24214285Y63107143D01*
X24071428Y62321429D02*
X24547619Y62321429D01*
X24547619Y63821429D01*
X24071428Y63821429D01*
X23166666Y62321429D02*
X23642857Y62321429D01*
X23642857Y63821429D01*
X22880952Y62750000D02*
X22404761Y62750000D01*
X22976190Y62321429D02*
X22642857Y63821429D01*
X22309523Y62321429D01*
X21785714Y63035715D02*
X21785714Y62321429D01*
X22119047Y63821429D02*
X21785714Y63035715D01*
X21452380Y63821429D01*
X32976190Y60871429D02*
X32738095Y59871429D01*
X32500000Y60871429D01*
X32166666Y61228572D02*
X32119047Y61300000D01*
X32023809Y61371429D01*
X31785714Y61371429D01*
X31690476Y61300000D01*
X31642857Y61228572D01*
X31595238Y61085715D01*
X31595238Y60942858D01*
X31642857Y60728572D01*
X32214285Y59871429D01*
X31595238Y59871429D01*
X31166666Y60014286D02*
X31119047Y59942858D01*
X31166666Y59871429D01*
X31214285Y59942858D01*
X31166666Y60014286D01*
X31166666Y59871429D01*
X30500000Y61371429D02*
X30404761Y61371429D01*
X30309523Y61300000D01*
X30261904Y61228572D01*
X30214285Y61085715D01*
X30166666Y60800000D01*
X30166666Y60442858D01*
X30214285Y60157143D01*
X30261904Y60014286D01*
X30309523Y59942858D01*
X30404761Y59871429D01*
X30500000Y59871429D01*
X30595238Y59942858D01*
X30642857Y60014286D01*
X30690476Y60157143D01*
X30738095Y60442858D01*
X30738095Y60800000D01*
X30690476Y61085715D01*
X30642857Y61228572D01*
X30595238Y61300000D01*
X30500000Y61371429D01*
X29023809Y59942858D02*
X28880952Y59871429D01*
X28642857Y59871429D01*
X28547619Y59942858D01*
X28500000Y60014286D01*
X28452380Y60157143D01*
X28452380Y60300000D01*
X28500000Y60442858D01*
X28547619Y60514286D01*
X28642857Y60585715D01*
X28833333Y60657143D01*
X28928571Y60728572D01*
X28976190Y60800000D01*
X29023809Y60942858D01*
X29023809Y61085715D01*
X28976190Y61228572D01*
X28928571Y61300000D01*
X28833333Y61371429D01*
X28595238Y61371429D01*
X28452380Y61300000D01*
X27642857Y59942858D02*
X27738095Y59871429D01*
X27928571Y59871429D01*
X28023809Y59942858D01*
X28071428Y60085715D01*
X28071428Y60657143D01*
X28023809Y60800000D01*
X27928571Y60871429D01*
X27738095Y60871429D01*
X27642857Y60800000D01*
X27595238Y60657143D01*
X27595238Y60514286D01*
X28071428Y60371429D01*
X27166666Y60871429D02*
X27166666Y59371429D01*
X27166666Y60800000D02*
X27071428Y60871429D01*
X26880952Y60871429D01*
X26785714Y60800000D01*
X26738095Y60728572D01*
X26690476Y60585715D01*
X26690476Y60157143D01*
X26738095Y60014286D01*
X26785714Y59942858D01*
X26880952Y59871429D01*
X27071428Y59871429D01*
X27166666Y59942858D01*
X26404761Y60871429D02*
X26023809Y60871429D01*
X26261904Y61371429D02*
X26261904Y60085715D01*
X26214285Y59942858D01*
X26119047Y59871429D01*
X26023809Y59871429D01*
X25690476Y60014286D02*
X25642857Y59942858D01*
X25690476Y59871429D01*
X25738095Y59942858D01*
X25690476Y60014286D01*
X25690476Y59871429D01*
X24500000Y61228572D02*
X24452380Y61300000D01*
X24357142Y61371429D01*
X24119047Y61371429D01*
X24023809Y61300000D01*
X23976190Y61228572D01*
X23928571Y61085715D01*
X23928571Y60942858D01*
X23976190Y60728572D01*
X24547619Y59871429D01*
X23928571Y59871429D01*
X23309523Y61371429D02*
X23214285Y61371429D01*
X23119047Y61300000D01*
X23071428Y61228572D01*
X23023809Y61085715D01*
X22976190Y60800000D01*
X22976190Y60442858D01*
X23023809Y60157143D01*
X23071428Y60014286D01*
X23119047Y59942858D01*
X23214285Y59871429D01*
X23309523Y59871429D01*
X23404761Y59942858D01*
X23452380Y60014286D01*
X23500000Y60157143D01*
X23547619Y60442858D01*
X23547619Y60800000D01*
X23500000Y61085715D01*
X23452380Y61228572D01*
X23404761Y61300000D01*
X23309523Y61371429D01*
X22023809Y59871429D02*
X22595238Y59871429D01*
X22309523Y59871429D02*
X22309523Y61371429D01*
X22404761Y61157143D01*
X22500000Y61014286D01*
X22595238Y60942858D01*
X21452380Y60728572D02*
X21547619Y60800000D01*
X21595238Y60871429D01*
X21642857Y61014286D01*
X21642857Y61085715D01*
X21595238Y61228572D01*
X21547619Y61300000D01*
X21452380Y61371429D01*
X21261904Y61371429D01*
X21166666Y61300000D01*
X21119047Y61228572D01*
X21071428Y61085715D01*
X21071428Y61014286D01*
X21119047Y60871429D01*
X21166666Y60800000D01*
X21261904Y60728572D01*
X21452380Y60728572D01*
X21547619Y60657143D01*
X21595238Y60585715D01*
X21642857Y60442858D01*
X21642857Y60157143D01*
X21595238Y60014286D01*
X21547619Y59942858D01*
X21452380Y59871429D01*
X21261904Y59871429D01*
X21166666Y59942858D01*
X21119047Y60014286D01*
X21071428Y60157143D01*
X21071428Y60442858D01*
X21119047Y60585715D01*
X21166666Y60657143D01*
X21261904Y60728572D01*
D10*
G36*
X33232782Y68073353D02*
X33234600Y67903799D01*
X33243211Y67600886D01*
X33258139Y67380944D01*
X33281599Y67225429D01*
X33315808Y67115795D01*
X33332933Y67080751D01*
X33474904Y66919142D01*
X33683932Y66802781D01*
X33932090Y66740846D01*
X34191451Y66742517D01*
X34296094Y66764144D01*
X34472284Y66837983D01*
X34586256Y66937637D01*
X34621279Y67046498D01*
X34613590Y67079254D01*
X34567970Y67143717D01*
X34486493Y67156413D01*
X34348178Y67117482D01*
X34258147Y67081633D01*
X34097118Y67031146D01*
X33953616Y67036654D01*
X33876969Y67056466D01*
X33707877Y67125683D01*
X33608097Y67224488D01*
X33554312Y67351671D01*
X33538476Y67425415D01*
X33571282Y67441343D01*
X33675603Y67410023D01*
X33678453Y67409030D01*
X33890241Y67370459D01*
X34121540Y67382511D01*
X34332546Y67439427D01*
X34471723Y67523803D01*
X34582417Y67639707D01*
X34652569Y67755741D01*
X34694327Y67903226D01*
X34719837Y68113484D01*
X34724878Y68176596D01*
X34728625Y68447405D01*
X34693144Y68631332D01*
X34619300Y68725303D01*
X34567000Y68737600D01*
X34478116Y68692567D01*
X34420088Y68555903D01*
X34392155Y68325264D01*
X34389200Y68190014D01*
X34382733Y67984762D01*
X34359621Y67854443D01*
X34314300Y67772992D01*
X34296300Y67754874D01*
X34159085Y67689000D01*
X33977161Y67672327D01*
X33794219Y67703978D01*
X33671531Y67767424D01*
X33610566Y67828921D01*
X33572227Y67909807D01*
X33549543Y68035897D01*
X33535542Y68233011D01*
X33533355Y68279148D01*
X33518168Y68501418D01*
X33494684Y68639166D01*
X33459210Y68709364D01*
X33436506Y68724178D01*
X33356496Y68732381D01*
X33298366Y68680530D01*
X33259868Y68559494D01*
X33238756Y68360145D01*
X33232782Y68073353D01*
X33232782Y68073353D01*
X33232782Y68073353D01*
G37*
X33232782Y68073353D02*
X33234600Y67903799D01*
X33243211Y67600886D01*
X33258139Y67380944D01*
X33281599Y67225429D01*
X33315808Y67115795D01*
X33332933Y67080751D01*
X33474904Y66919142D01*
X33683932Y66802781D01*
X33932090Y66740846D01*
X34191451Y66742517D01*
X34296094Y66764144D01*
X34472284Y66837983D01*
X34586256Y66937637D01*
X34621279Y67046498D01*
X34613590Y67079254D01*
X34567970Y67143717D01*
X34486493Y67156413D01*
X34348178Y67117482D01*
X34258147Y67081633D01*
X34097118Y67031146D01*
X33953616Y67036654D01*
X33876969Y67056466D01*
X33707877Y67125683D01*
X33608097Y67224488D01*
X33554312Y67351671D01*
X33538476Y67425415D01*
X33571282Y67441343D01*
X33675603Y67410023D01*
X33678453Y67409030D01*
X33890241Y67370459D01*
X34121540Y67382511D01*
X34332546Y67439427D01*
X34471723Y67523803D01*
X34582417Y67639707D01*
X34652569Y67755741D01*
X34694327Y67903226D01*
X34719837Y68113484D01*
X34724878Y68176596D01*
X34728625Y68447405D01*
X34693144Y68631332D01*
X34619300Y68725303D01*
X34567000Y68737600D01*
X34478116Y68692567D01*
X34420088Y68555903D01*
X34392155Y68325264D01*
X34389200Y68190014D01*
X34382733Y67984762D01*
X34359621Y67854443D01*
X34314300Y67772992D01*
X34296300Y67754874D01*
X34159085Y67689000D01*
X33977161Y67672327D01*
X33794219Y67703978D01*
X33671531Y67767424D01*
X33610566Y67828921D01*
X33572227Y67909807D01*
X33549543Y68035897D01*
X33535542Y68233011D01*
X33533355Y68279148D01*
X33518168Y68501418D01*
X33494684Y68639166D01*
X33459210Y68709364D01*
X33436506Y68724178D01*
X33356496Y68732381D01*
X33298366Y68680530D01*
X33259868Y68559494D01*
X33238756Y68360145D01*
X33232782Y68073353D01*
X33232782Y68073353D01*
G36*
X34796540Y67821686D02*
X34837640Y67644341D01*
X34958457Y67495084D01*
X35151750Y67392140D01*
X35397172Y67340515D01*
X35674375Y67345211D01*
X35884481Y67386904D01*
X36085880Y67462646D01*
X36205138Y67551306D01*
X36235285Y67645506D01*
X36194974Y67715599D01*
X36112723Y67763248D01*
X36005334Y67738054D01*
X35997897Y67734715D01*
X35818060Y67675597D01*
X35619601Y67645455D01*
X35426919Y67643133D01*
X35264411Y67667474D01*
X35156475Y67717321D01*
X35125800Y67776055D01*
X35152671Y67815732D01*
X35243205Y67844497D01*
X35412285Y67865903D01*
X35543571Y67875790D01*
X35852557Y67915048D01*
X36070889Y67988529D01*
X36204643Y68099364D01*
X36259232Y68244812D01*
X36237602Y68432632D01*
X36128602Y68579863D01*
X35940204Y68681024D01*
X35680380Y68730635D01*
X35546532Y68734733D01*
X35307706Y68714999D01*
X35105942Y68666483D01*
X34954542Y68597112D01*
X34866812Y68514808D01*
X34856054Y68427497D01*
X34913823Y68357856D01*
X34993803Y68317173D01*
X35087186Y68326552D01*
X35178892Y68360832D01*
X35356827Y68411308D01*
X35554357Y68431747D01*
X35738197Y68422516D01*
X35875063Y68383980D01*
X35916414Y68352729D01*
X35949825Y68275900D01*
X35898446Y68222798D01*
X35757349Y68191415D01*
X35521608Y68179741D01*
X35491578Y68179578D01*
X35199052Y68154358D01*
X34981961Y68083240D01*
X34845920Y67970818D01*
X34796540Y67821686D01*
X34796540Y67821686D01*
X34796540Y67821686D01*
G37*
X34796540Y67821686D02*
X34837640Y67644341D01*
X34958457Y67495084D01*
X35151750Y67392140D01*
X35397172Y67340515D01*
X35674375Y67345211D01*
X35884481Y67386904D01*
X36085880Y67462646D01*
X36205138Y67551306D01*
X36235285Y67645506D01*
X36194974Y67715599D01*
X36112723Y67763248D01*
X36005334Y67738054D01*
X35997897Y67734715D01*
X35818060Y67675597D01*
X35619601Y67645455D01*
X35426919Y67643133D01*
X35264411Y67667474D01*
X35156475Y67717321D01*
X35125800Y67776055D01*
X35152671Y67815732D01*
X35243205Y67844497D01*
X35412285Y67865903D01*
X35543571Y67875790D01*
X35852557Y67915048D01*
X36070889Y67988529D01*
X36204643Y68099364D01*
X36259232Y68244812D01*
X36237602Y68432632D01*
X36128602Y68579863D01*
X35940204Y68681024D01*
X35680380Y68730635D01*
X35546532Y68734733D01*
X35307706Y68714999D01*
X35105942Y68666483D01*
X34954542Y68597112D01*
X34866812Y68514808D01*
X34856054Y68427497D01*
X34913823Y68357856D01*
X34993803Y68317173D01*
X35087186Y68326552D01*
X35178892Y68360832D01*
X35356827Y68411308D01*
X35554357Y68431747D01*
X35738197Y68422516D01*
X35875063Y68383980D01*
X35916414Y68352729D01*
X35949825Y68275900D01*
X35898446Y68222798D01*
X35757349Y68191415D01*
X35521608Y68179741D01*
X35491578Y68179578D01*
X35199052Y68154358D01*
X34981961Y68083240D01*
X34845920Y67970818D01*
X34796540Y67821686D01*
X34796540Y67821686D01*
G36*
X27532140Y67821686D02*
X27573240Y67644341D01*
X27694428Y67494735D01*
X27889215Y67391782D01*
X28138263Y67341083D01*
X28422234Y67348237D01*
X28532136Y67366639D01*
X28762480Y67429851D01*
X28899864Y67507461D01*
X28952492Y67604468D01*
X28953600Y67623382D01*
X28926824Y67717222D01*
X28839751Y67752602D01*
X28682266Y67731363D01*
X28558840Y67695192D01*
X28370155Y67653482D01*
X28180537Y67643979D01*
X28015544Y67663795D01*
X27900735Y67710042D01*
X27861400Y67774007D01*
X27886172Y67814561D01*
X27971107Y67843481D01*
X28132131Y67864699D01*
X28272146Y67875384D01*
X28571067Y67910924D01*
X28782354Y67975863D01*
X28917056Y68075442D01*
X28986005Y68214023D01*
X28982646Y68390626D01*
X28892821Y68546693D01*
X28731607Y68658300D01*
X28697886Y68671233D01*
X28489213Y68720100D01*
X28270340Y68733485D01*
X28057494Y68716269D01*
X27866902Y68673335D01*
X27714790Y68609563D01*
X27617386Y68529837D01*
X27590916Y68439037D01*
X27640046Y68352983D01*
X27704980Y68302304D01*
X27774366Y68304372D01*
X27877962Y68352030D01*
X28046968Y68407418D01*
X28249975Y68429884D01*
X28447221Y68419134D01*
X28598943Y68374875D01*
X28626391Y68357566D01*
X28685170Y68284056D01*
X28645476Y68229525D01*
X28508766Y68194623D01*
X28276500Y68180001D01*
X28227178Y68179578D01*
X27934652Y68154358D01*
X27717561Y68083240D01*
X27581520Y67970818D01*
X27532140Y67821686D01*
X27532140Y67821686D01*
X27532140Y67821686D01*
G37*
X27532140Y67821686D02*
X27573240Y67644341D01*
X27694428Y67494735D01*
X27889215Y67391782D01*
X28138263Y67341083D01*
X28422234Y67348237D01*
X28532136Y67366639D01*
X28762480Y67429851D01*
X28899864Y67507461D01*
X28952492Y67604468D01*
X28953600Y67623382D01*
X28926824Y67717222D01*
X28839751Y67752602D01*
X28682266Y67731363D01*
X28558840Y67695192D01*
X28370155Y67653482D01*
X28180537Y67643979D01*
X28015544Y67663795D01*
X27900735Y67710042D01*
X27861400Y67774007D01*
X27886172Y67814561D01*
X27971107Y67843481D01*
X28132131Y67864699D01*
X28272146Y67875384D01*
X28571067Y67910924D01*
X28782354Y67975863D01*
X28917056Y68075442D01*
X28986005Y68214023D01*
X28982646Y68390626D01*
X28892821Y68546693D01*
X28731607Y68658300D01*
X28697886Y68671233D01*
X28489213Y68720100D01*
X28270340Y68733485D01*
X28057494Y68716269D01*
X27866902Y68673335D01*
X27714790Y68609563D01*
X27617386Y68529837D01*
X27590916Y68439037D01*
X27640046Y68352983D01*
X27704980Y68302304D01*
X27774366Y68304372D01*
X27877962Y68352030D01*
X28046968Y68407418D01*
X28249975Y68429884D01*
X28447221Y68419134D01*
X28598943Y68374875D01*
X28626391Y68357566D01*
X28685170Y68284056D01*
X28645476Y68229525D01*
X28508766Y68194623D01*
X28276500Y68180001D01*
X28227178Y68179578D01*
X27934652Y68154358D01*
X27717561Y68083240D01*
X27581520Y67970818D01*
X27532140Y67821686D01*
X27532140Y67821686D01*
G36*
X31596741Y67682829D02*
X31615202Y67500841D01*
X31665652Y67400598D01*
X31750219Y67374102D01*
X31762096Y67375403D01*
X31817757Y67391586D01*
X31853735Y67434773D01*
X31876644Y67525801D01*
X31893101Y67685511D01*
X31902230Y67816794D01*
X31932384Y68083589D01*
X31988907Y68264242D01*
X32082192Y68372947D01*
X32222630Y68423897D01*
X32353249Y68432800D01*
X32539952Y68407450D01*
X32664760Y68323669D01*
X32736223Y68169859D01*
X32762890Y67934426D01*
X32763600Y67876176D01*
X32768740Y67640709D01*
X32788272Y67489331D01*
X32828367Y67404864D01*
X32895193Y67370131D01*
X32946836Y67366000D01*
X33068400Y67366000D01*
X33068400Y68027995D01*
X33066460Y68307121D01*
X33059486Y68500277D01*
X33045746Y68623037D01*
X33023510Y68690976D01*
X32991554Y68719478D01*
X32890461Y68715543D01*
X32842401Y68688959D01*
X32748288Y68655478D01*
X32668587Y68683275D01*
X32498584Y68730462D01*
X32286349Y68731260D01*
X32078449Y68688658D01*
X31966261Y68638236D01*
X31794408Y68501124D01*
X31684204Y68326064D01*
X31623085Y68089069D01*
X31608146Y67954559D01*
X31596741Y67682829D01*
X31596741Y67682829D01*
X31596741Y67682829D01*
G37*
X31596741Y67682829D02*
X31615202Y67500841D01*
X31665652Y67400598D01*
X31750219Y67374102D01*
X31762096Y67375403D01*
X31817757Y67391586D01*
X31853735Y67434773D01*
X31876644Y67525801D01*
X31893101Y67685511D01*
X31902230Y67816794D01*
X31932384Y68083589D01*
X31988907Y68264242D01*
X32082192Y68372947D01*
X32222630Y68423897D01*
X32353249Y68432800D01*
X32539952Y68407450D01*
X32664760Y68323669D01*
X32736223Y68169859D01*
X32762890Y67934426D01*
X32763600Y67876176D01*
X32768740Y67640709D01*
X32788272Y67489331D01*
X32828367Y67404864D01*
X32895193Y67370131D01*
X32946836Y67366000D01*
X33068400Y67366000D01*
X33068400Y68027995D01*
X33066460Y68307121D01*
X33059486Y68500277D01*
X33045746Y68623037D01*
X33023510Y68690976D01*
X32991554Y68719478D01*
X32890461Y68715543D01*
X32842401Y68688959D01*
X32748288Y68655478D01*
X32668587Y68683275D01*
X32498584Y68730462D01*
X32286349Y68731260D01*
X32078449Y68688658D01*
X31966261Y68638236D01*
X31794408Y68501124D01*
X31684204Y68326064D01*
X31623085Y68089069D01*
X31608146Y67954559D01*
X31596741Y67682829D01*
X31596741Y67682829D01*
G36*
X30655988Y67543561D02*
X30659959Y67448639D01*
X30731953Y67387297D01*
X30862098Y67365348D01*
X31015295Y67381853D01*
X31156444Y67435874D01*
X31195873Y67462960D01*
X31256975Y67524791D01*
X31296325Y67607014D01*
X31321014Y67735044D01*
X31338136Y67934296D01*
X31341200Y67983660D01*
X31356865Y68194122D01*
X31376019Y68320868D01*
X31403345Y68381779D01*
X31443529Y68394731D01*
X31448724Y68394030D01*
X31552216Y68419834D01*
X31617582Y68506483D01*
X31617182Y68601191D01*
X31546765Y68672212D01*
X31476605Y68696530D01*
X31413504Y68718513D01*
X31375582Y68778196D01*
X31352509Y68899999D01*
X31341200Y69016554D01*
X31320370Y69193331D01*
X31289496Y69291440D01*
X31239986Y69333802D01*
X31220288Y69339052D01*
X31126146Y69328072D01*
X31068005Y69244823D01*
X31040790Y69078718D01*
X31037178Y68957034D01*
X31031716Y68800704D01*
X31009145Y68718915D01*
X30958396Y68684790D01*
X30922100Y68677634D01*
X30824727Y68629873D01*
X30786499Y68546874D01*
X30811553Y68465559D01*
X30893682Y68424029D01*
X30955190Y68407882D01*
X30990364Y68365873D01*
X31006499Y68274865D01*
X31010884Y68111720D01*
X31011000Y68051800D01*
X31009140Y67865770D01*
X30997902Y67758169D01*
X30968802Y67705831D01*
X30913357Y67685589D01*
X30875018Y67680485D01*
X30730559Y67633158D01*
X30655988Y67543561D01*
X30655988Y67543561D01*
X30655988Y67543561D01*
G37*
X30655988Y67543561D02*
X30659959Y67448639D01*
X30731953Y67387297D01*
X30862098Y67365348D01*
X31015295Y67381853D01*
X31156444Y67435874D01*
X31195873Y67462960D01*
X31256975Y67524791D01*
X31296325Y67607014D01*
X31321014Y67735044D01*
X31338136Y67934296D01*
X31341200Y67983660D01*
X31356865Y68194122D01*
X31376019Y68320868D01*
X31403345Y68381779D01*
X31443529Y68394731D01*
X31448724Y68394030D01*
X31552216Y68419834D01*
X31617582Y68506483D01*
X31617182Y68601191D01*
X31546765Y68672212D01*
X31476605Y68696530D01*
X31413504Y68718513D01*
X31375582Y68778196D01*
X31352509Y68899999D01*
X31341200Y69016554D01*
X31320370Y69193331D01*
X31289496Y69291440D01*
X31239986Y69333802D01*
X31220288Y69339052D01*
X31126146Y69328072D01*
X31068005Y69244823D01*
X31040790Y69078718D01*
X31037178Y68957034D01*
X31031716Y68800704D01*
X31009145Y68718915D01*
X30958396Y68684790D01*
X30922100Y68677634D01*
X30824727Y68629873D01*
X30786499Y68546874D01*
X30811553Y68465559D01*
X30893682Y68424029D01*
X30955190Y68407882D01*
X30990364Y68365873D01*
X31006499Y68274865D01*
X31010884Y68111720D01*
X31011000Y68051800D01*
X31009140Y67865770D01*
X30997902Y67758169D01*
X30968802Y67705831D01*
X30913357Y67685589D01*
X30875018Y67680485D01*
X30730559Y67633158D01*
X30655988Y67543561D01*
X30655988Y67543561D01*
G36*
X29076506Y67663459D02*
X29106134Y67486294D01*
X29170940Y67390098D01*
X29254263Y67366000D01*
X29326666Y67392366D01*
X29374320Y67480015D01*
X29400885Y67641779D01*
X29410024Y67890487D01*
X29410107Y67912100D01*
X29430264Y68155294D01*
X29495531Y68315272D01*
X29614992Y68403815D01*
X29797730Y68432706D01*
X29811573Y68432800D01*
X29994425Y68414480D01*
X30121569Y68349877D01*
X30203819Y68224530D01*
X30251988Y68023976D01*
X30272171Y67816794D01*
X30288120Y67607570D01*
X30306882Y67479180D01*
X30334821Y67410920D01*
X30378301Y67382086D01*
X30407635Y67376015D01*
X30511068Y67397937D01*
X30547335Y67443669D01*
X30558137Y67520870D01*
X30567372Y67680442D01*
X30574363Y67903160D01*
X30578437Y68169798D01*
X30579200Y68351046D01*
X30575747Y68710880D01*
X30563875Y68979356D01*
X30541315Y69166529D01*
X30505798Y69282453D01*
X30455056Y69337185D01*
X30386819Y69340779D01*
X30357947Y69331649D01*
X30310910Y69291153D01*
X30284900Y69200554D01*
X30274983Y69038040D01*
X30274400Y68962360D01*
X30271736Y68783521D01*
X30259925Y68687075D01*
X30233244Y68653874D01*
X30185968Y68664767D01*
X30185500Y68664976D01*
X29986005Y68715911D01*
X29753091Y68720971D01*
X29538402Y68681168D01*
X29465212Y68650858D01*
X29291266Y68535816D01*
X29177439Y68392579D01*
X29111044Y68197421D01*
X29079570Y67929612D01*
X29076506Y67663459D01*
X29076506Y67663459D01*
X29076506Y67663459D01*
G37*
X29076506Y67663459D02*
X29106134Y67486294D01*
X29170940Y67390098D01*
X29254263Y67366000D01*
X29326666Y67392366D01*
X29374320Y67480015D01*
X29400885Y67641779D01*
X29410024Y67890487D01*
X29410107Y67912100D01*
X29430264Y68155294D01*
X29495531Y68315272D01*
X29614992Y68403815D01*
X29797730Y68432706D01*
X29811573Y68432800D01*
X29994425Y68414480D01*
X30121569Y68349877D01*
X30203819Y68224530D01*
X30251988Y68023976D01*
X30272171Y67816794D01*
X30288120Y67607570D01*
X30306882Y67479180D01*
X30334821Y67410920D01*
X30378301Y67382086D01*
X30407635Y67376015D01*
X30511068Y67397937D01*
X30547335Y67443669D01*
X30558137Y67520870D01*
X30567372Y67680442D01*
X30574363Y67903160D01*
X30578437Y68169798D01*
X30579200Y68351046D01*
X30575747Y68710880D01*
X30563875Y68979356D01*
X30541315Y69166529D01*
X30505798Y69282453D01*
X30455056Y69337185D01*
X30386819Y69340779D01*
X30357947Y69331649D01*
X30310910Y69291153D01*
X30284900Y69200554D01*
X30274983Y69038040D01*
X30274400Y68962360D01*
X30271736Y68783521D01*
X30259925Y68687075D01*
X30233244Y68653874D01*
X30185968Y68664767D01*
X30185500Y68664976D01*
X29986005Y68715911D01*
X29753091Y68720971D01*
X29538402Y68681168D01*
X29465212Y68650858D01*
X29291266Y68535816D01*
X29177439Y68392579D01*
X29111044Y68197421D01*
X29079570Y67929612D01*
X29076506Y67663459D01*
X29076506Y67663459D01*
G36*
X33750361Y70720121D02*
X33753241Y70570767D01*
X33814353Y70422795D01*
X33930528Y70320890D01*
X34051723Y70279969D01*
X34051723Y70592447D01*
X34054502Y70693005D01*
X34133214Y70768017D01*
X34264496Y70813455D01*
X34424986Y70825292D01*
X34591322Y70799501D01*
X34740140Y70732056D01*
X34763350Y70715113D01*
X34854771Y70630422D01*
X34896884Y70566207D01*
X34897200Y70562713D01*
X34850415Y70540874D01*
X34726050Y70524411D01*
X34548092Y70516093D01*
X34489206Y70515600D01*
X34273104Y70520074D01*
X34139711Y70535672D01*
X34070442Y70565659D01*
X34051723Y70592447D01*
X34051723Y70279969D01*
X34115135Y70258558D01*
X34381541Y70229303D01*
X34461883Y70226411D01*
X34697625Y70213083D01*
X34836650Y70185862D01*
X34883201Y70142248D01*
X34841521Y70079742D01*
X34783399Y70036977D01*
X34541266Y69934621D01*
X34279578Y69931933D01*
X34110056Y69979403D01*
X33934043Y70032506D01*
X33829442Y70025031D01*
X33784007Y69954051D01*
X33779600Y69900410D01*
X33825865Y69805726D01*
X33949198Y69731024D01*
X34126408Y69679836D01*
X34334304Y69655696D01*
X34549696Y69662134D01*
X34749391Y69702684D01*
X34840229Y69738864D01*
X35026381Y69881435D01*
X35146118Y70077481D01*
X35199182Y70303569D01*
X35185318Y70536267D01*
X35104268Y70752141D01*
X34955776Y70927759D01*
X34853980Y70994281D01*
X34616427Y71080675D01*
X34377291Y71105372D01*
X34153844Y71075020D01*
X33963359Y70996264D01*
X33823107Y70875749D01*
X33750361Y70720121D01*
X33750361Y70720121D01*
X33750361Y70720121D01*
G37*
X33750361Y70720121D02*
X33753241Y70570767D01*
X33814353Y70422795D01*
X33930528Y70320890D01*
X34051723Y70279969D01*
X34051723Y70592447D01*
X34054502Y70693005D01*
X34133214Y70768017D01*
X34264496Y70813455D01*
X34424986Y70825292D01*
X34591322Y70799501D01*
X34740140Y70732056D01*
X34763350Y70715113D01*
X34854771Y70630422D01*
X34896884Y70566207D01*
X34897200Y70562713D01*
X34850415Y70540874D01*
X34726050Y70524411D01*
X34548092Y70516093D01*
X34489206Y70515600D01*
X34273104Y70520074D01*
X34139711Y70535672D01*
X34070442Y70565659D01*
X34051723Y70592447D01*
X34051723Y70279969D01*
X34115135Y70258558D01*
X34381541Y70229303D01*
X34461883Y70226411D01*
X34697625Y70213083D01*
X34836650Y70185862D01*
X34883201Y70142248D01*
X34841521Y70079742D01*
X34783399Y70036977D01*
X34541266Y69934621D01*
X34279578Y69931933D01*
X34110056Y69979403D01*
X33934043Y70032506D01*
X33829442Y70025031D01*
X33784007Y69954051D01*
X33779600Y69900410D01*
X33825865Y69805726D01*
X33949198Y69731024D01*
X34126408Y69679836D01*
X34334304Y69655696D01*
X34549696Y69662134D01*
X34749391Y69702684D01*
X34840229Y69738864D01*
X35026381Y69881435D01*
X35146118Y70077481D01*
X35199182Y70303569D01*
X35185318Y70536267D01*
X35104268Y70752141D01*
X34955776Y70927759D01*
X34853980Y70994281D01*
X34616427Y71080675D01*
X34377291Y71105372D01*
X34153844Y71075020D01*
X33963359Y70996264D01*
X33823107Y70875749D01*
X33750361Y70720121D01*
X33750361Y70720121D01*
G36*
X32164635Y70834090D02*
X32180991Y70774541D01*
X32214581Y70738049D01*
X32278579Y70689333D01*
X32349275Y70693125D01*
X32449962Y70739630D01*
X32641789Y70801601D01*
X32851050Y70811565D01*
X33048787Y70774693D01*
X33206038Y70696154D01*
X33290844Y70589525D01*
X33307835Y70496590D01*
X33319566Y70339898D01*
X33323094Y70193946D01*
X33328366Y70006253D01*
X33341282Y69845216D01*
X33354419Y69766300D01*
X33418066Y69677337D01*
X33517171Y69650528D01*
X33593334Y69685867D01*
X33605897Y69746633D01*
X33616351Y69889016D01*
X33623737Y70093040D01*
X33627096Y70338728D01*
X33627200Y70391632D01*
X33625768Y70668090D01*
X33620104Y70859488D01*
X33608158Y70982342D01*
X33587881Y71053167D01*
X33557223Y71088481D01*
X33539641Y71097130D01*
X33436573Y71089033D01*
X33391404Y71047750D01*
X33314081Y70992734D01*
X33237664Y71013686D01*
X33025458Y71084266D01*
X32782195Y71103054D01*
X32540997Y71073345D01*
X32334984Y70998434D01*
X32221714Y70912623D01*
X32164635Y70834090D01*
X32164635Y70834090D01*
X32164635Y70834090D01*
G37*
X32164635Y70834090D02*
X32180991Y70774541D01*
X32214581Y70738049D01*
X32278579Y70689333D01*
X32349275Y70693125D01*
X32449962Y70739630D01*
X32641789Y70801601D01*
X32851050Y70811565D01*
X33048787Y70774693D01*
X33206038Y70696154D01*
X33290844Y70589525D01*
X33307835Y70496590D01*
X33319566Y70339898D01*
X33323094Y70193946D01*
X33328366Y70006253D01*
X33341282Y69845216D01*
X33354419Y69766300D01*
X33418066Y69677337D01*
X33517171Y69650528D01*
X33593334Y69685867D01*
X33605897Y69746633D01*
X33616351Y69889016D01*
X33623737Y70093040D01*
X33627096Y70338728D01*
X33627200Y70391632D01*
X33625768Y70668090D01*
X33620104Y70859488D01*
X33608158Y70982342D01*
X33587881Y71053167D01*
X33557223Y71088481D01*
X33539641Y71097130D01*
X33436573Y71089033D01*
X33391404Y71047750D01*
X33314081Y70992734D01*
X33237664Y71013686D01*
X33025458Y71084266D01*
X32782195Y71103054D01*
X32540997Y71073345D01*
X32334984Y70998434D01*
X32221714Y70912623D01*
X32164635Y70834090D01*
X32164635Y70834090D01*
G36*
X31805181Y70789917D02*
X31806150Y70569225D01*
X31809706Y70369930D01*
X31816145Y70092636D01*
X31824076Y69900726D01*
X31836286Y69777992D01*
X31855565Y69708228D01*
X31884699Y69675225D01*
X31926478Y69662776D01*
X31931479Y69662035D01*
X32027471Y69682538D01*
X32070485Y69763635D01*
X32083672Y69862255D01*
X32094265Y70035003D01*
X32100919Y70254418D01*
X32102507Y70416991D01*
X32095618Y70718682D01*
X32072187Y70928400D01*
X32029427Y71054834D01*
X31964550Y71106677D01*
X31884566Y71096595D01*
X31848849Y71073509D01*
X31824840Y71025644D01*
X31810848Y70936584D01*
X31805181Y70789917D01*
X31805181Y70789917D01*
X31805181Y70789917D01*
G37*
X31805181Y70789917D02*
X31806150Y70569225D01*
X31809706Y70369930D01*
X31816145Y70092636D01*
X31824076Y69900726D01*
X31836286Y69777992D01*
X31855565Y69708228D01*
X31884699Y69675225D01*
X31926478Y69662776D01*
X31931479Y69662035D01*
X32027471Y69682538D01*
X32070485Y69763635D01*
X32083672Y69862255D01*
X32094265Y70035003D01*
X32100919Y70254418D01*
X32102507Y70416991D01*
X32095618Y70718682D01*
X32072187Y70928400D01*
X32029427Y71054834D01*
X31964550Y71106677D01*
X31884566Y71096595D01*
X31848849Y71073509D01*
X31824840Y71025644D01*
X31810848Y70936584D01*
X31805181Y70789917D01*
X31805181Y70789917D01*
G36*
X30274400Y69900410D02*
X30320534Y69805315D01*
X30442933Y69730166D01*
X30617595Y69678512D01*
X30820518Y69653897D01*
X31027699Y69659870D01*
X31215137Y69699978D01*
X31315800Y69746517D01*
X31509924Y69892469D01*
X31623569Y70053491D01*
X31676555Y70260870D01*
X31682814Y70325888D01*
X31661757Y70601065D01*
X31557893Y70820844D01*
X31376896Y70979760D01*
X31124442Y71072349D01*
X30884000Y71095008D01*
X30644334Y71074044D01*
X30450527Y71015801D01*
X30322699Y70928391D01*
X30282958Y70852718D01*
X30290105Y70738118D01*
X30364159Y70695897D01*
X30497547Y70729327D01*
X30530976Y70745532D01*
X30710858Y70799999D01*
X30922371Y70809569D01*
X31124727Y70776939D01*
X31277139Y70704799D01*
X31288036Y70695541D01*
X31400187Y70535789D01*
X31427170Y70356685D01*
X31375667Y70182314D01*
X31252356Y70036762D01*
X31080975Y69948933D01*
X30934047Y69915590D01*
X30804587Y69921186D01*
X30640575Y69968659D01*
X30623137Y69974804D01*
X30441095Y70028234D01*
X30332368Y70027636D01*
X30282350Y69969895D01*
X30274400Y69900410D01*
X30274400Y69900410D01*
X30274400Y69900410D01*
G37*
X30274400Y69900410D02*
X30320534Y69805315D01*
X30442933Y69730166D01*
X30617595Y69678512D01*
X30820518Y69653897D01*
X31027699Y69659870D01*
X31215137Y69699978D01*
X31315800Y69746517D01*
X31509924Y69892469D01*
X31623569Y70053491D01*
X31676555Y70260870D01*
X31682814Y70325888D01*
X31661757Y70601065D01*
X31557893Y70820844D01*
X31376896Y70979760D01*
X31124442Y71072349D01*
X30884000Y71095008D01*
X30644334Y71074044D01*
X30450527Y71015801D01*
X30322699Y70928391D01*
X30282958Y70852718D01*
X30290105Y70738118D01*
X30364159Y70695897D01*
X30497547Y70729327D01*
X30530976Y70745532D01*
X30710858Y70799999D01*
X30922371Y70809569D01*
X31124727Y70776939D01*
X31277139Y70704799D01*
X31288036Y70695541D01*
X31400187Y70535789D01*
X31427170Y70356685D01*
X31375667Y70182314D01*
X31252356Y70036762D01*
X31080975Y69948933D01*
X30934047Y69915590D01*
X30804587Y69921186D01*
X30640575Y69968659D01*
X30623137Y69974804D01*
X30441095Y70028234D01*
X30332368Y70027636D01*
X30282350Y69969895D01*
X30274400Y69900410D01*
X30274400Y69900410D01*
G36*
X28590176Y70470202D02*
X28591600Y70235073D01*
X28601780Y70014329D01*
X28620682Y69831090D01*
X28648271Y69708474D01*
X28674847Y69670123D01*
X28774647Y69674666D01*
X28828752Y69704586D01*
X28879337Y69726790D01*
X28879337Y70426940D01*
X28936488Y70597334D01*
X29066610Y70732094D01*
X29106000Y70754665D01*
X29313718Y70817857D01*
X29525321Y70813185D01*
X29718164Y70750071D01*
X29869603Y70637935D01*
X29956989Y70486198D01*
X29969600Y70395388D01*
X29926677Y70187032D01*
X29808853Y70031435D01*
X29632554Y69936828D01*
X29414200Y69911442D01*
X29170216Y69963507D01*
X29135331Y69977284D01*
X28979798Y70089381D01*
X28894121Y70248444D01*
X28879337Y70426940D01*
X28879337Y69726790D01*
X28915589Y69742701D01*
X29030727Y69711615D01*
X29033695Y69710269D01*
X29184602Y69672197D01*
X29389592Y69657273D01*
X29603806Y69665566D01*
X29782382Y69697144D01*
X29817174Y69709072D01*
X30034351Y69847798D01*
X30184350Y70056089D01*
X30227274Y70173643D01*
X30256012Y70431729D01*
X30190566Y70663846D01*
X30064405Y70845778D01*
X29875509Y70990365D01*
X29631308Y71077642D01*
X29363585Y71102631D01*
X29104123Y71060352D01*
X28990501Y71014016D01*
X28883829Y71002957D01*
X28823931Y71044413D01*
X28730497Y71094537D01*
X28672730Y71092207D01*
X28638785Y71030720D01*
X28613734Y70891144D01*
X28597543Y70696599D01*
X28590176Y70470202D01*
X28590176Y70470202D01*
X28590176Y70470202D01*
G37*
X28590176Y70470202D02*
X28591600Y70235073D01*
X28601780Y70014329D01*
X28620682Y69831090D01*
X28648271Y69708474D01*
X28674847Y69670123D01*
X28774647Y69674666D01*
X28828752Y69704586D01*
X28879337Y69726790D01*
X28879337Y70426940D01*
X28936488Y70597334D01*
X29066610Y70732094D01*
X29106000Y70754665D01*
X29313718Y70817857D01*
X29525321Y70813185D01*
X29718164Y70750071D01*
X29869603Y70637935D01*
X29956989Y70486198D01*
X29969600Y70395388D01*
X29926677Y70187032D01*
X29808853Y70031435D01*
X29632554Y69936828D01*
X29414200Y69911442D01*
X29170216Y69963507D01*
X29135331Y69977284D01*
X28979798Y70089381D01*
X28894121Y70248444D01*
X28879337Y70426940D01*
X28879337Y69726790D01*
X28915589Y69742701D01*
X29030727Y69711615D01*
X29033695Y69710269D01*
X29184602Y69672197D01*
X29389592Y69657273D01*
X29603806Y69665566D01*
X29782382Y69697144D01*
X29817174Y69709072D01*
X30034351Y69847798D01*
X30184350Y70056089D01*
X30227274Y70173643D01*
X30256012Y70431729D01*
X30190566Y70663846D01*
X30064405Y70845778D01*
X29875509Y70990365D01*
X29631308Y71077642D01*
X29363585Y71102631D01*
X29104123Y71060352D01*
X28990501Y71014016D01*
X28883829Y71002957D01*
X28823931Y71044413D01*
X28730497Y71094537D01*
X28672730Y71092207D01*
X28638785Y71030720D01*
X28613734Y70891144D01*
X28597543Y70696599D01*
X28590176Y70470202D01*
X28590176Y70470202D01*
G36*
X31802311Y71528262D02*
X31841946Y71435025D01*
X31878755Y71410036D01*
X31957082Y71383474D01*
X32001833Y71400578D01*
X32042240Y71440160D01*
X32092823Y71543711D01*
X32069098Y71643901D01*
X31990929Y71708110D01*
X31881039Y71704842D01*
X31815471Y71634809D01*
X31802311Y71528262D01*
X31802311Y71528262D01*
X31802311Y71528262D01*
G37*
X31802311Y71528262D02*
X31841946Y71435025D01*
X31878755Y71410036D01*
X31957082Y71383474D01*
X32001833Y71400578D01*
X32042240Y71440160D01*
X32092823Y71543711D01*
X32069098Y71643901D01*
X31990929Y71708110D01*
X31881039Y71704842D01*
X31815471Y71634809D01*
X31802311Y71528262D01*
X31802311Y71528262D01*
G36*
X29536490Y76803810D02*
X29546312Y76364971D01*
X29563483Y76254440D01*
X29683955Y75842098D01*
X29882429Y75474293D01*
X29990717Y75348480D01*
X29990717Y76479063D01*
X30043320Y76813784D01*
X30163527Y77137085D01*
X30346452Y77425283D01*
X30452912Y77542078D01*
X30761098Y77773805D01*
X31129563Y77939732D01*
X31539424Y78037747D01*
X31971797Y78065733D01*
X32407799Y78021577D01*
X32828545Y77903165D01*
X33002768Y77827582D01*
X33324732Y77621709D01*
X33576141Y77360538D01*
X33753974Y77058744D01*
X33855208Y76731000D01*
X33876823Y76391981D01*
X33815797Y76056360D01*
X33669109Y75738811D01*
X33481775Y75501161D01*
X33117359Y75188418D01*
X32725249Y74964787D01*
X32315198Y74832435D01*
X31896963Y74793527D01*
X31480299Y74850230D01*
X31127926Y74978422D01*
X30850510Y75137683D01*
X30579137Y75340432D01*
X30340011Y75563762D01*
X30159336Y75784767D01*
X30107871Y75870083D01*
X30010605Y76156602D01*
X29990717Y76479063D01*
X29990717Y75348480D01*
X30148321Y75165368D01*
X30471046Y74929665D01*
X30583116Y74872724D01*
X30721536Y74804883D01*
X30812355Y74752051D01*
X30833200Y74732211D01*
X30792305Y74696068D01*
X30687325Y74631019D01*
X30596669Y74580946D01*
X30410658Y74474286D01*
X30223634Y74355010D01*
X30164869Y74314015D01*
X30041423Y74211917D01*
X29984204Y74116826D01*
X29969633Y73988234D01*
X29969600Y73978537D01*
X30011389Y73783668D01*
X30124678Y73640683D01*
X30291351Y73569100D01*
X30353875Y73564467D01*
X30480732Y73590804D01*
X30646827Y73657534D01*
X30757000Y73716000D01*
X30901698Y73797752D01*
X31012324Y73852826D01*
X31055314Y73867534D01*
X31072585Y73821097D01*
X31081199Y73696180D01*
X31080083Y73515619D01*
X31076204Y73423900D01*
X31051513Y73141882D01*
X31007154Y72926739D01*
X30936039Y72744530D01*
X30933051Y72738478D01*
X30855365Y72521952D01*
X30864953Y72346087D01*
X30964730Y72194923D01*
X31044678Y72127073D01*
X31189808Y72063371D01*
X31189808Y73846794D01*
X31192024Y74047996D01*
X31205785Y74227920D01*
X31231359Y74355981D01*
X31241388Y74379740D01*
X31272350Y74421192D01*
X31324729Y74449094D01*
X31416604Y74466074D01*
X31566054Y74474762D01*
X31791157Y74477786D01*
X31917028Y74478000D01*
X32238455Y74472639D01*
X32459624Y74456509D01*
X32581311Y74429541D01*
X32601041Y74417040D01*
X32627655Y74341588D01*
X32647550Y74194308D01*
X32659812Y74004805D01*
X32663528Y73802686D01*
X32657783Y73617557D01*
X32641665Y73479024D01*
X32631165Y73440755D01*
X32603382Y73406812D01*
X32539915Y73383738D01*
X32424521Y73369600D01*
X32240953Y73362466D01*
X31972966Y73360405D01*
X31955525Y73360400D01*
X31630649Y73365400D01*
X31405039Y73380506D01*
X31276849Y73405877D01*
X31249761Y73421360D01*
X31218944Y73502892D01*
X31198870Y73654898D01*
X31189808Y73846794D01*
X31189808Y72063371D01*
X31211571Y72053818D01*
X31376836Y72076485D01*
X31533254Y72189548D01*
X31673609Y72387483D01*
X31790681Y72664765D01*
X31804525Y72708688D01*
X31870581Y72899141D01*
X31928877Y73018097D01*
X31973460Y73058086D01*
X31998375Y73011639D01*
X32001600Y72955906D01*
X32030286Y72789286D01*
X32104153Y72584545D01*
X32204913Y72381409D01*
X32314282Y72219604D01*
X32363959Y72168709D01*
X32513732Y72069116D01*
X32653458Y72049329D01*
X32798380Y72090755D01*
X32939997Y72195778D01*
X33006447Y72357900D01*
X32995367Y72563353D01*
X32916000Y72776200D01*
X32861324Y72911482D01*
X32829532Y73071963D01*
X32815892Y73287939D01*
X32814400Y73426791D01*
X32814400Y73878099D01*
X33093031Y73720850D01*
X33353706Y73602220D01*
X33564604Y73569788D01*
X33729252Y73623262D01*
X33778308Y73663908D01*
X33896019Y73824887D01*
X33920784Y73983367D01*
X33850729Y74143336D01*
X33683980Y74308783D01*
X33418663Y74483699D01*
X33383896Y74503400D01*
X33216591Y74599914D01*
X33090149Y74678398D01*
X33025474Y74725676D01*
X33021234Y74732000D01*
X33063570Y74765419D01*
X33172580Y74825679D01*
X33286383Y74881512D01*
X33632657Y75097537D01*
X33916281Y75383990D01*
X34131121Y75726868D01*
X34271043Y76112169D01*
X34329914Y76525890D01*
X34301599Y76954029D01*
X34266408Y77118746D01*
X34112277Y77522779D01*
X33874042Y77876435D01*
X33560324Y78170867D01*
X33179743Y78397232D01*
X32923849Y78496391D01*
X32580936Y78577088D01*
X32188000Y78623593D01*
X31785074Y78634094D01*
X31412193Y78606778D01*
X31226900Y78573232D01*
X30765637Y78421185D01*
X30368524Y78201316D01*
X30041308Y77921636D01*
X29789733Y77590152D01*
X29619546Y77214874D01*
X29536490Y76803810D01*
X29536490Y76803810D01*
X29536490Y76803810D01*
G37*
X29536490Y76803810D02*
X29546312Y76364971D01*
X29563483Y76254440D01*
X29683955Y75842098D01*
X29882429Y75474293D01*
X29990717Y75348480D01*
X29990717Y76479063D01*
X30043320Y76813784D01*
X30163527Y77137085D01*
X30346452Y77425283D01*
X30452912Y77542078D01*
X30761098Y77773805D01*
X31129563Y77939732D01*
X31539424Y78037747D01*
X31971797Y78065733D01*
X32407799Y78021577D01*
X32828545Y77903165D01*
X33002768Y77827582D01*
X33324732Y77621709D01*
X33576141Y77360538D01*
X33753974Y77058744D01*
X33855208Y76731000D01*
X33876823Y76391981D01*
X33815797Y76056360D01*
X33669109Y75738811D01*
X33481775Y75501161D01*
X33117359Y75188418D01*
X32725249Y74964787D01*
X32315198Y74832435D01*
X31896963Y74793527D01*
X31480299Y74850230D01*
X31127926Y74978422D01*
X30850510Y75137683D01*
X30579137Y75340432D01*
X30340011Y75563762D01*
X30159336Y75784767D01*
X30107871Y75870083D01*
X30010605Y76156602D01*
X29990717Y76479063D01*
X29990717Y75348480D01*
X30148321Y75165368D01*
X30471046Y74929665D01*
X30583116Y74872724D01*
X30721536Y74804883D01*
X30812355Y74752051D01*
X30833200Y74732211D01*
X30792305Y74696068D01*
X30687325Y74631019D01*
X30596669Y74580946D01*
X30410658Y74474286D01*
X30223634Y74355010D01*
X30164869Y74314015D01*
X30041423Y74211917D01*
X29984204Y74116826D01*
X29969633Y73988234D01*
X29969600Y73978537D01*
X30011389Y73783668D01*
X30124678Y73640683D01*
X30291351Y73569100D01*
X30353875Y73564467D01*
X30480732Y73590804D01*
X30646827Y73657534D01*
X30757000Y73716000D01*
X30901698Y73797752D01*
X31012324Y73852826D01*
X31055314Y73867534D01*
X31072585Y73821097D01*
X31081199Y73696180D01*
X31080083Y73515619D01*
X31076204Y73423900D01*
X31051513Y73141882D01*
X31007154Y72926739D01*
X30936039Y72744530D01*
X30933051Y72738478D01*
X30855365Y72521952D01*
X30864953Y72346087D01*
X30964730Y72194923D01*
X31044678Y72127073D01*
X31189808Y72063371D01*
X31189808Y73846794D01*
X31192024Y74047996D01*
X31205785Y74227920D01*
X31231359Y74355981D01*
X31241388Y74379740D01*
X31272350Y74421192D01*
X31324729Y74449094D01*
X31416604Y74466074D01*
X31566054Y74474762D01*
X31791157Y74477786D01*
X31917028Y74478000D01*
X32238455Y74472639D01*
X32459624Y74456509D01*
X32581311Y74429541D01*
X32601041Y74417040D01*
X32627655Y74341588D01*
X32647550Y74194308D01*
X32659812Y74004805D01*
X32663528Y73802686D01*
X32657783Y73617557D01*
X32641665Y73479024D01*
X32631165Y73440755D01*
X32603382Y73406812D01*
X32539915Y73383738D01*
X32424521Y73369600D01*
X32240953Y73362466D01*
X31972966Y73360405D01*
X31955525Y73360400D01*
X31630649Y73365400D01*
X31405039Y73380506D01*
X31276849Y73405877D01*
X31249761Y73421360D01*
X31218944Y73502892D01*
X31198870Y73654898D01*
X31189808Y73846794D01*
X31189808Y72063371D01*
X31211571Y72053818D01*
X31376836Y72076485D01*
X31533254Y72189548D01*
X31673609Y72387483D01*
X31790681Y72664765D01*
X31804525Y72708688D01*
X31870581Y72899141D01*
X31928877Y73018097D01*
X31973460Y73058086D01*
X31998375Y73011639D01*
X32001600Y72955906D01*
X32030286Y72789286D01*
X32104153Y72584545D01*
X32204913Y72381409D01*
X32314282Y72219604D01*
X32363959Y72168709D01*
X32513732Y72069116D01*
X32653458Y72049329D01*
X32798380Y72090755D01*
X32939997Y72195778D01*
X33006447Y72357900D01*
X32995367Y72563353D01*
X32916000Y72776200D01*
X32861324Y72911482D01*
X32829532Y73071963D01*
X32815892Y73287939D01*
X32814400Y73426791D01*
X32814400Y73878099D01*
X33093031Y73720850D01*
X33353706Y73602220D01*
X33564604Y73569788D01*
X33729252Y73623262D01*
X33778308Y73663908D01*
X33896019Y73824887D01*
X33920784Y73983367D01*
X33850729Y74143336D01*
X33683980Y74308783D01*
X33418663Y74483699D01*
X33383896Y74503400D01*
X33216591Y74599914D01*
X33090149Y74678398D01*
X33025474Y74725676D01*
X33021234Y74732000D01*
X33063570Y74765419D01*
X33172580Y74825679D01*
X33286383Y74881512D01*
X33632657Y75097537D01*
X33916281Y75383990D01*
X34131121Y75726868D01*
X34271043Y76112169D01*
X34329914Y76525890D01*
X34301599Y76954029D01*
X34266408Y77118746D01*
X34112277Y77522779D01*
X33874042Y77876435D01*
X33560324Y78170867D01*
X33179743Y78397232D01*
X32923849Y78496391D01*
X32580936Y78577088D01*
X32188000Y78623593D01*
X31785074Y78634094D01*
X31412193Y78606778D01*
X31226900Y78573232D01*
X30765637Y78421185D01*
X30368524Y78201316D01*
X30041308Y77921636D01*
X29789733Y77590152D01*
X29619546Y77214874D01*
X29536490Y76803810D01*
X29536490Y76803810D01*
G36*
X31773420Y75195116D02*
X31780417Y75162791D01*
X31856427Y75078765D01*
X31969168Y75076683D01*
X32030317Y75109144D01*
X32089242Y75201206D01*
X32065574Y75302686D01*
X31970007Y75376407D01*
X31878360Y75366443D01*
X31801837Y75293624D01*
X31773420Y75195116D01*
X31773420Y75195116D01*
X31773420Y75195116D01*
G37*
X31773420Y75195116D02*
X31780417Y75162791D01*
X31856427Y75078765D01*
X31969168Y75076683D01*
X32030317Y75109144D01*
X32089242Y75201206D01*
X32065574Y75302686D01*
X31970007Y75376407D01*
X31878360Y75366443D01*
X31801837Y75293624D01*
X31773420Y75195116D01*
X31773420Y75195116D01*
G36*
X32348981Y76069528D02*
X32404308Y75866707D01*
X32427314Y75826360D01*
X32549150Y75717743D01*
X32701577Y75696641D01*
X32865056Y75762197D01*
X32967183Y75850010D01*
X33129322Y76086780D01*
X33229990Y76367506D01*
X33262659Y76660234D01*
X33220797Y76933014D01*
X33200038Y76989337D01*
X33100285Y77141779D01*
X32966753Y77198627D01*
X32796616Y77160878D01*
X32761675Y77144005D01*
X32611149Y77015340D01*
X32487439Y76815277D01*
X32397723Y76572097D01*
X32349178Y76314086D01*
X32348981Y76069528D01*
X32348981Y76069528D01*
X32348981Y76069528D01*
G37*
X32348981Y76069528D02*
X32404308Y75866707D01*
X32427314Y75826360D01*
X32549150Y75717743D01*
X32701577Y75696641D01*
X32865056Y75762197D01*
X32967183Y75850010D01*
X33129322Y76086780D01*
X33229990Y76367506D01*
X33262659Y76660234D01*
X33220797Y76933014D01*
X33200038Y76989337D01*
X33100285Y77141779D01*
X32966753Y77198627D01*
X32796616Y77160878D01*
X32761675Y77144005D01*
X32611149Y77015340D01*
X32487439Y76815277D01*
X32397723Y76572097D01*
X32349178Y76314086D01*
X32348981Y76069528D01*
X32348981Y76069528D01*
G36*
X30609535Y76706460D02*
X30649838Y76346549D01*
X30769170Y76044748D01*
X30894641Y75870643D01*
X31054901Y75738632D01*
X31215832Y75697294D01*
X31362939Y75748745D01*
X31413832Y75794858D01*
X31502663Y75962826D01*
X31531312Y76182160D01*
X31507013Y76428211D01*
X31437000Y76676333D01*
X31328508Y76901880D01*
X31188769Y77080205D01*
X31025019Y77186661D01*
X31003277Y77193671D01*
X30875057Y77183121D01*
X30751091Y77102003D01*
X30665193Y77013692D01*
X30622815Y76915725D01*
X30609812Y76768577D01*
X30609535Y76706460D01*
X30609535Y76706460D01*
X30609535Y76706460D01*
G37*
X30609535Y76706460D02*
X30649838Y76346549D01*
X30769170Y76044748D01*
X30894641Y75870643D01*
X31054901Y75738632D01*
X31215832Y75697294D01*
X31362939Y75748745D01*
X31413832Y75794858D01*
X31502663Y75962826D01*
X31531312Y76182160D01*
X31507013Y76428211D01*
X31437000Y76676333D01*
X31328508Y76901880D01*
X31188769Y77080205D01*
X31025019Y77186661D01*
X31003277Y77193671D01*
X30875057Y77183121D01*
X30751091Y77102003D01*
X30665193Y77013692D01*
X30622815Y76915725D01*
X30609812Y76768577D01*
X30609535Y76706460D01*
X30609535Y76706460D01*
X34176500Y99931500D02*
X34176500Y103868500D01*
X34880710Y101900000D02*
G75*
G03X34880710Y101900000I-3180710J0D01*
G01*
X44123500Y103868500D02*
X44123500Y99931500D01*
X49780710Y101900000D02*
G75*
G03X49780710Y101900000I-3180710J0D01*
G01*
X27171000Y92828000D02*
X28187000Y93844000D01*
X7613000Y92828000D02*
X27171000Y92828000D01*
X28187000Y101972000D02*
X28187000Y93844000D01*
X7613000Y101972000D02*
X7613000Y92828000D01*
X28187000Y101972000D02*
X7613000Y101972000D01*
D13*
X37797778Y20500000D02*
G75*
G03X37797778Y20500000I-3197778J0D01*
G01*
X54697778Y25600000D02*
G75*
G03X54697778Y25600000I-3197778J0D01*
G01*
X68097778Y25600000D02*
G75*
G03X68097778Y25600000I-3197778J0D01*
G01*
X61397778Y25600000D02*
G75*
G03X61397778Y25600000I-3197778J0D01*
G01*
D14*
X51900000Y37300000D02*
G75*
G03X51900000Y37300000I-1000000J0D01*
G01*
X53900000Y102000000D02*
G75*
G03X53900000Y102000000I-1000000J0D01*
G01*
X56000000Y74600000D02*
G75*
G03X56000000Y74600000I-1000000J0D01*
G01*
X41800000Y86100000D02*
G75*
G03X41800000Y86100000I-1000000J0D01*
G01*
D13*
X7197778Y18100000D02*
G75*
G03X7197778Y18100000I-3197778J0D01*
G01*
D10*
X2770000Y48300000D02*
X230000Y48300000D01*
X230000Y48300000D02*
X230000Y73700000D01*
X230000Y73700000D02*
X2135000Y73700000D01*
X2135000Y73700000D02*
X2770000Y73065000D01*
X2770000Y73065000D02*
X2770000Y48300000D01*
X68770000Y48300000D02*
X66230000Y48300000D01*
X66230000Y48300000D02*
X66230000Y73700000D01*
X66230000Y73700000D02*
X68135000Y73700000D01*
X68135000Y73700000D02*
X68770000Y73065000D01*
X68770000Y73065000D02*
X68770000Y48300000D01*
X38466666Y99050000D02*
X38466666Y98583334D01*
X38633333Y99316667D02*
X38800000Y98816667D01*
X38366666Y98816667D01*
X38166666Y99283334D02*
X37700000Y99283334D01*
X38000000Y98583334D01*
X37133333Y99050000D02*
X37133333Y98583334D01*
X37433333Y99050000D02*
X37433333Y98683334D01*
X37400000Y98616667D01*
X37333333Y98583334D01*
X37233333Y98583334D01*
X37166666Y98616667D01*
X37133333Y98650000D01*
X36566666Y98950000D02*
X36800000Y98950000D01*
X36800000Y98583334D02*
X36800000Y99283334D01*
X36466666Y99283334D01*
X36266666Y98583334D02*
X35900000Y99050000D01*
X36266666Y99050000D02*
X35900000Y98583334D01*
X35666666Y99216667D02*
X35633333Y99250000D01*
X35566666Y99283334D01*
X35400000Y99283334D01*
X35333333Y99250000D01*
X35300000Y99216667D01*
X35266666Y99150000D01*
X35266666Y99083334D01*
X35300000Y98983334D01*
X35700000Y98583334D01*
X35266666Y98583334D01*
X34633333Y99283334D02*
X34966666Y99283334D01*
X35000000Y98950000D01*
X34966666Y98983334D01*
X34900000Y99016667D01*
X34733333Y99016667D01*
X34666666Y98983334D01*
X34633333Y98950000D01*
X34600000Y98883334D01*
X34600000Y98716667D01*
X34633333Y98650000D01*
X34666666Y98616667D01*
X34733333Y98583334D01*
X34900000Y98583334D01*
X34966666Y98616667D01*
X35000000Y98650000D01*
X34400000Y99283334D02*
X34166666Y98583334D01*
X33933333Y99283334D01*
X35316666Y99650000D02*
X35350000Y99616667D01*
X35450000Y99583334D01*
X35516666Y99583334D01*
X35616666Y99616667D01*
X35683333Y99683334D01*
X35716666Y99750000D01*
X35750000Y99883334D01*
X35750000Y99983334D01*
X35716666Y100116667D01*
X35683333Y100183334D01*
X35616666Y100250000D01*
X35516666Y100283334D01*
X35450000Y100283334D01*
X35350000Y100250000D01*
X35316666Y100216667D01*
X34650000Y99583334D02*
X35050000Y99583334D01*
X34850000Y99583334D02*
X34850000Y100283334D01*
X34916666Y100183334D01*
X34983333Y100116667D01*
X35050000Y100083334D01*
X48666666Y98250000D02*
X48666666Y97783334D01*
X48833333Y98516667D02*
X49000000Y98016667D01*
X48566666Y98016667D01*
X48366666Y98483334D02*
X47900000Y98483334D01*
X48200000Y97783334D01*
X47333333Y98250000D02*
X47333333Y97783334D01*
X47633333Y98250000D02*
X47633333Y97883334D01*
X47600000Y97816667D01*
X47533333Y97783334D01*
X47433333Y97783334D01*
X47366666Y97816667D01*
X47333333Y97850000D01*
X46766666Y98150000D02*
X47000000Y98150000D01*
X47000000Y97783334D02*
X47000000Y98483334D01*
X46666666Y98483334D01*
X46466666Y97783334D02*
X46100000Y98250000D01*
X46466666Y98250000D02*
X46100000Y97783334D01*
X45866666Y98416667D02*
X45833333Y98450000D01*
X45766666Y98483334D01*
X45600000Y98483334D01*
X45533333Y98450000D01*
X45500000Y98416667D01*
X45466666Y98350000D01*
X45466666Y98283334D01*
X45500000Y98183334D01*
X45900000Y97783334D01*
X45466666Y97783334D01*
X44833333Y98483334D02*
X45166666Y98483334D01*
X45200000Y98150000D01*
X45166666Y98183334D01*
X45100000Y98216667D01*
X44933333Y98216667D01*
X44866666Y98183334D01*
X44833333Y98150000D01*
X44800000Y98083334D01*
X44800000Y97916667D01*
X44833333Y97850000D01*
X44866666Y97816667D01*
X44933333Y97783334D01*
X45100000Y97783334D01*
X45166666Y97816667D01*
X45200000Y97850000D01*
X44600000Y98483334D02*
X44366666Y97783334D01*
X44133333Y98483334D01*
X49616666Y98950000D02*
X49650000Y98916667D01*
X49750000Y98883334D01*
X49816666Y98883334D01*
X49916666Y98916667D01*
X49983333Y98983334D01*
X50016666Y99050000D01*
X50050000Y99183334D01*
X50050000Y99283334D01*
X50016666Y99416667D01*
X49983333Y99483334D01*
X49916666Y99550000D01*
X49816666Y99583334D01*
X49750000Y99583334D01*
X49650000Y99550000D01*
X49616666Y99516667D01*
X49350000Y99516667D02*
X49316666Y99550000D01*
X49250000Y99583334D01*
X49083333Y99583334D01*
X49016666Y99550000D01*
X48983333Y99516667D01*
X48950000Y99450000D01*
X48950000Y99383334D01*
X48983333Y99283334D01*
X49383333Y98883334D01*
X48950000Y98883334D01*
X9800000Y87283334D02*
X10200000Y87283334D01*
X10000000Y87283334D02*
X10000000Y87983334D01*
X10066666Y87883334D01*
X10133333Y87816667D01*
X10200000Y87783334D01*
X19416666Y103183334D02*
X18950000Y102483334D01*
X18950000Y103183334D02*
X19416666Y102483334D01*
X18683333Y102483334D02*
X18683333Y103183334D01*
X18416666Y103183334D01*
X18350000Y103150000D01*
X18316666Y103116667D01*
X18283333Y103050000D01*
X18283333Y102950000D01*
X18316666Y102883334D01*
X18350000Y102850000D01*
X18416666Y102816667D01*
X18683333Y102816667D01*
X17616666Y102483334D02*
X18016666Y102483334D01*
X17816666Y102483334D02*
X17816666Y103183334D01*
X17883333Y103083334D01*
X17950000Y103016667D01*
X18016666Y102983334D01*
X36700000Y15183334D02*
X37100000Y15183334D01*
X36900000Y15183334D02*
X36900000Y15883334D01*
X36966666Y15783334D01*
X37033333Y15716667D01*
X37100000Y15683334D01*
X36266666Y15883334D02*
X36200000Y15883334D01*
X36133333Y15850000D01*
X36100000Y15816667D01*
X36066666Y15750000D01*
X36033333Y15616667D01*
X36033333Y15450000D01*
X36066666Y15316667D01*
X36100000Y15250000D01*
X36133333Y15216667D01*
X36200000Y15183334D01*
X36266666Y15183334D01*
X36333333Y15216667D01*
X36366666Y15250000D01*
X36400000Y15316667D01*
X36433333Y15450000D01*
X36433333Y15616667D01*
X36400000Y15750000D01*
X36366666Y15816667D01*
X36333333Y15850000D01*
X36266666Y15883334D01*
X35433333Y15650000D02*
X35433333Y15183334D01*
X35733333Y15650000D02*
X35733333Y15283334D01*
X35700000Y15216667D01*
X35633333Y15183334D01*
X35533333Y15183334D01*
X35466666Y15216667D01*
X35433333Y15250000D01*
X34866666Y15550000D02*
X35100000Y15550000D01*
X35100000Y15183334D02*
X35100000Y15883334D01*
X34766666Y15883334D01*
X34566666Y15183334D02*
X34200000Y15650000D01*
X34566666Y15650000D02*
X34200000Y15183334D01*
X33966666Y15816667D02*
X33933333Y15850000D01*
X33866666Y15883334D01*
X33700000Y15883334D01*
X33633333Y15850000D01*
X33600000Y15816667D01*
X33566666Y15750000D01*
X33566666Y15683334D01*
X33600000Y15583334D01*
X34000000Y15183334D01*
X33566666Y15183334D01*
X32933333Y15883334D02*
X33266666Y15883334D01*
X33300000Y15550000D01*
X33266666Y15583334D01*
X33200000Y15616667D01*
X33033333Y15616667D01*
X32966666Y15583334D01*
X32933333Y15550000D01*
X32900000Y15483334D01*
X32900000Y15316667D01*
X32933333Y15250000D01*
X32966666Y15216667D01*
X33033333Y15183334D01*
X33200000Y15183334D01*
X33266666Y15216667D01*
X33300000Y15250000D01*
X32700000Y15883334D02*
X32466666Y15183334D01*
X32233333Y15883334D01*
X35050000Y16250000D02*
X35083333Y16216667D01*
X35183333Y16183334D01*
X35250000Y16183334D01*
X35350000Y16216667D01*
X35416666Y16283334D01*
X35450000Y16350000D01*
X35483333Y16483334D01*
X35483333Y16583334D01*
X35450000Y16716667D01*
X35416666Y16783334D01*
X35350000Y16850000D01*
X35250000Y16883334D01*
X35183333Y16883334D01*
X35083333Y16850000D01*
X35050000Y16816667D01*
X34383333Y16183334D02*
X34783333Y16183334D01*
X34583333Y16183334D02*
X34583333Y16883334D01*
X34650000Y16783334D01*
X34716666Y16716667D01*
X34783333Y16683334D01*
X34150000Y16883334D02*
X33683333Y16883334D01*
X33983333Y16183334D01*
X48700000Y22183334D02*
X49100000Y22183334D01*
X48900000Y22183334D02*
X48900000Y22883334D01*
X48966666Y22783334D01*
X49033333Y22716667D01*
X49100000Y22683334D01*
X48266666Y22883334D02*
X48200000Y22883334D01*
X48133333Y22850000D01*
X48100000Y22816667D01*
X48066666Y22750000D01*
X48033333Y22616667D01*
X48033333Y22450000D01*
X48066666Y22316667D01*
X48100000Y22250000D01*
X48133333Y22216667D01*
X48200000Y22183334D01*
X48266666Y22183334D01*
X48333333Y22216667D01*
X48366666Y22250000D01*
X48400000Y22316667D01*
X48433333Y22450000D01*
X48433333Y22616667D01*
X48400000Y22750000D01*
X48366666Y22816667D01*
X48333333Y22850000D01*
X48266666Y22883334D01*
X47433333Y22650000D02*
X47433333Y22183334D01*
X47733333Y22650000D02*
X47733333Y22283334D01*
X47700000Y22216667D01*
X47633333Y22183334D01*
X47533333Y22183334D01*
X47466666Y22216667D01*
X47433333Y22250000D01*
X46866666Y22550000D02*
X47100000Y22550000D01*
X47100000Y22183334D02*
X47100000Y22883334D01*
X46766666Y22883334D01*
X46566666Y22183334D02*
X46200000Y22650000D01*
X46566666Y22650000D02*
X46200000Y22183334D01*
X45966666Y22816667D02*
X45933333Y22850000D01*
X45866666Y22883334D01*
X45700000Y22883334D01*
X45633333Y22850000D01*
X45600000Y22816667D01*
X45566666Y22750000D01*
X45566666Y22683334D01*
X45600000Y22583334D01*
X46000000Y22183334D01*
X45566666Y22183334D01*
X44933333Y22883334D02*
X45266666Y22883334D01*
X45300000Y22550000D01*
X45266666Y22583334D01*
X45200000Y22616667D01*
X45033333Y22616667D01*
X44966666Y22583334D01*
X44933333Y22550000D01*
X44900000Y22483334D01*
X44900000Y22316667D01*
X44933333Y22250000D01*
X44966666Y22216667D01*
X45033333Y22183334D01*
X45200000Y22183334D01*
X45266666Y22216667D01*
X45300000Y22250000D01*
X44700000Y22883334D02*
X44466666Y22183334D01*
X44233333Y22883334D01*
X48050000Y23550000D02*
X48083333Y23516667D01*
X48183333Y23483334D01*
X48250000Y23483334D01*
X48350000Y23516667D01*
X48416666Y23583334D01*
X48450000Y23650000D01*
X48483333Y23783334D01*
X48483333Y23883334D01*
X48450000Y24016667D01*
X48416666Y24083334D01*
X48350000Y24150000D01*
X48250000Y24183334D01*
X48183333Y24183334D01*
X48083333Y24150000D01*
X48050000Y24116667D01*
X47383333Y23483334D02*
X47783333Y23483334D01*
X47583333Y23483334D02*
X47583333Y24183334D01*
X47650000Y24083334D01*
X47716666Y24016667D01*
X47783333Y23983334D01*
X46983333Y23883334D02*
X47050000Y23916667D01*
X47083333Y23950000D01*
X47116666Y24016667D01*
X47116666Y24050000D01*
X47083333Y24116667D01*
X47050000Y24150000D01*
X46983333Y24183334D01*
X46850000Y24183334D01*
X46783333Y24150000D01*
X46750000Y24116667D01*
X46716666Y24050000D01*
X46716666Y24016667D01*
X46750000Y23950000D01*
X46783333Y23916667D01*
X46850000Y23883334D01*
X46983333Y23883334D01*
X47050000Y23850000D01*
X47083333Y23816667D01*
X47116666Y23750000D01*
X47116666Y23616667D01*
X47083333Y23550000D01*
X47050000Y23516667D01*
X46983333Y23483334D01*
X46850000Y23483334D01*
X46783333Y23516667D01*
X46750000Y23550000D01*
X46716666Y23616667D01*
X46716666Y23750000D01*
X46750000Y23816667D01*
X46783333Y23850000D01*
X46850000Y23883334D01*
X65400000Y20483334D02*
X65800000Y20483334D01*
X65600000Y20483334D02*
X65600000Y21183334D01*
X65666666Y21083334D01*
X65733333Y21016667D01*
X65800000Y20983334D01*
X64966666Y21183334D02*
X64900000Y21183334D01*
X64833333Y21150000D01*
X64800000Y21116667D01*
X64766666Y21050000D01*
X64733333Y20916667D01*
X64733333Y20750000D01*
X64766666Y20616667D01*
X64800000Y20550000D01*
X64833333Y20516667D01*
X64900000Y20483334D01*
X64966666Y20483334D01*
X65033333Y20516667D01*
X65066666Y20550000D01*
X65100000Y20616667D01*
X65133333Y20750000D01*
X65133333Y20916667D01*
X65100000Y21050000D01*
X65066666Y21116667D01*
X65033333Y21150000D01*
X64966666Y21183334D01*
X64133333Y20950000D02*
X64133333Y20483334D01*
X64433333Y20950000D02*
X64433333Y20583334D01*
X64400000Y20516667D01*
X64333333Y20483334D01*
X64233333Y20483334D01*
X64166666Y20516667D01*
X64133333Y20550000D01*
X63566666Y20850000D02*
X63800000Y20850000D01*
X63800000Y20483334D02*
X63800000Y21183334D01*
X63466666Y21183334D01*
X63266666Y20483334D02*
X62900000Y20950000D01*
X63266666Y20950000D02*
X62900000Y20483334D01*
X62666666Y21116667D02*
X62633333Y21150000D01*
X62566666Y21183334D01*
X62400000Y21183334D01*
X62333333Y21150000D01*
X62300000Y21116667D01*
X62266666Y21050000D01*
X62266666Y20983334D01*
X62300000Y20883334D01*
X62700000Y20483334D01*
X62266666Y20483334D01*
X61633333Y21183334D02*
X61966666Y21183334D01*
X62000000Y20850000D01*
X61966666Y20883334D01*
X61900000Y20916667D01*
X61733333Y20916667D01*
X61666666Y20883334D01*
X61633333Y20850000D01*
X61600000Y20783334D01*
X61600000Y20616667D01*
X61633333Y20550000D01*
X61666666Y20516667D01*
X61733333Y20483334D01*
X61900000Y20483334D01*
X61966666Y20516667D01*
X62000000Y20550000D01*
X61400000Y21183334D02*
X61166666Y20483334D01*
X60933333Y21183334D01*
X64950000Y21450000D02*
X64983333Y21416667D01*
X65083333Y21383334D01*
X65150000Y21383334D01*
X65250000Y21416667D01*
X65316666Y21483334D01*
X65350000Y21550000D01*
X65383333Y21683334D01*
X65383333Y21783334D01*
X65350000Y21916667D01*
X65316666Y21983334D01*
X65250000Y22050000D01*
X65150000Y22083334D01*
X65083333Y22083334D01*
X64983333Y22050000D01*
X64950000Y22016667D01*
X64716666Y22083334D02*
X64283333Y22083334D01*
X64516666Y21816667D01*
X64416666Y21816667D01*
X64350000Y21783334D01*
X64316666Y21750000D01*
X64283333Y21683334D01*
X64283333Y21516667D01*
X64316666Y21450000D01*
X64350000Y21416667D01*
X64416666Y21383334D01*
X64616666Y21383334D01*
X64683333Y21416667D01*
X64716666Y21450000D01*
X64016666Y22016667D02*
X63983333Y22050000D01*
X63916666Y22083334D01*
X63750000Y22083334D01*
X63683333Y22050000D01*
X63650000Y22016667D01*
X63616666Y21950000D01*
X63616666Y21883334D01*
X63650000Y21783334D01*
X64050000Y21383334D01*
X63616666Y21383334D01*
X60100000Y29283334D02*
X60500000Y29283334D01*
X60300000Y29283334D02*
X60300000Y29983334D01*
X60366666Y29883334D01*
X60433333Y29816667D01*
X60500000Y29783334D01*
X59666666Y29983334D02*
X59600000Y29983334D01*
X59533333Y29950000D01*
X59500000Y29916667D01*
X59466666Y29850000D01*
X59433333Y29716667D01*
X59433333Y29550000D01*
X59466666Y29416667D01*
X59500000Y29350000D01*
X59533333Y29316667D01*
X59600000Y29283334D01*
X59666666Y29283334D01*
X59733333Y29316667D01*
X59766666Y29350000D01*
X59800000Y29416667D01*
X59833333Y29550000D01*
X59833333Y29716667D01*
X59800000Y29850000D01*
X59766666Y29916667D01*
X59733333Y29950000D01*
X59666666Y29983334D01*
X58833333Y29750000D02*
X58833333Y29283334D01*
X59133333Y29750000D02*
X59133333Y29383334D01*
X59100000Y29316667D01*
X59033333Y29283334D01*
X58933333Y29283334D01*
X58866666Y29316667D01*
X58833333Y29350000D01*
X58266666Y29650000D02*
X58500000Y29650000D01*
X58500000Y29283334D02*
X58500000Y29983334D01*
X58166666Y29983334D01*
X57966666Y29283334D02*
X57600000Y29750000D01*
X57966666Y29750000D02*
X57600000Y29283334D01*
X57366666Y29916667D02*
X57333333Y29950000D01*
X57266666Y29983334D01*
X57100000Y29983334D01*
X57033333Y29950000D01*
X57000000Y29916667D01*
X56966666Y29850000D01*
X56966666Y29783334D01*
X57000000Y29683334D01*
X57400000Y29283334D01*
X56966666Y29283334D01*
X56333333Y29983334D02*
X56666666Y29983334D01*
X56700000Y29650000D01*
X56666666Y29683334D01*
X56600000Y29716667D01*
X56433333Y29716667D01*
X56366666Y29683334D01*
X56333333Y29650000D01*
X56300000Y29583334D01*
X56300000Y29416667D01*
X56333333Y29350000D01*
X56366666Y29316667D01*
X56433333Y29283334D01*
X56600000Y29283334D01*
X56666666Y29316667D01*
X56700000Y29350000D01*
X56100000Y29983334D02*
X55866666Y29283334D01*
X55633333Y29983334D01*
X58650000Y30350000D02*
X58683333Y30316667D01*
X58783333Y30283334D01*
X58850000Y30283334D01*
X58950000Y30316667D01*
X59016666Y30383334D01*
X59050000Y30450000D01*
X59083333Y30583334D01*
X59083333Y30683334D01*
X59050000Y30816667D01*
X59016666Y30883334D01*
X58950000Y30950000D01*
X58850000Y30983334D01*
X58783333Y30983334D01*
X58683333Y30950000D01*
X58650000Y30916667D01*
X58416666Y30983334D02*
X57983333Y30983334D01*
X58216666Y30716667D01*
X58116666Y30716667D01*
X58050000Y30683334D01*
X58016666Y30650000D01*
X57983333Y30583334D01*
X57983333Y30416667D01*
X58016666Y30350000D01*
X58050000Y30316667D01*
X58116666Y30283334D01*
X58316666Y30283334D01*
X58383333Y30316667D01*
X58416666Y30350000D01*
X57750000Y30983334D02*
X57316666Y30983334D01*
X57550000Y30716667D01*
X57450000Y30716667D01*
X57383333Y30683334D01*
X57350000Y30650000D01*
X57316666Y30583334D01*
X57316666Y30416667D01*
X57350000Y30350000D01*
X57383333Y30316667D01*
X57450000Y30283334D01*
X57650000Y30283334D01*
X57716666Y30316667D01*
X57750000Y30350000D01*
X51783333Y36133334D02*
X51383333Y36133334D01*
X51583333Y35433334D02*
X51583333Y36133334D01*
X51150000Y35433334D02*
X51150000Y36133334D01*
X50883333Y36133334D01*
X50816666Y36100000D01*
X50783333Y36066667D01*
X50750000Y36000000D01*
X50750000Y35900000D01*
X50783333Y35833334D01*
X50816666Y35800000D01*
X50883333Y35766667D01*
X51150000Y35766667D01*
X50516666Y36133334D02*
X50083333Y36133334D01*
X50316666Y35866667D01*
X50216666Y35866667D01*
X50150000Y35833334D01*
X50116666Y35800000D01*
X50083333Y35733334D01*
X50083333Y35566667D01*
X50116666Y35500000D01*
X50150000Y35466667D01*
X50216666Y35433334D01*
X50416666Y35433334D01*
X50483333Y35466667D01*
X50516666Y35500000D01*
X53783333Y100833334D02*
X53383333Y100833334D01*
X53583333Y100133334D02*
X53583333Y100833334D01*
X53150000Y100133334D02*
X53150000Y100833334D01*
X52883333Y100833334D01*
X52816666Y100800000D01*
X52783333Y100766667D01*
X52750000Y100700000D01*
X52750000Y100600000D01*
X52783333Y100533334D01*
X52816666Y100500000D01*
X52883333Y100466667D01*
X53150000Y100466667D01*
X52116666Y100833334D02*
X52450000Y100833334D01*
X52483333Y100500000D01*
X52450000Y100533334D01*
X52383333Y100566667D01*
X52216666Y100566667D01*
X52150000Y100533334D01*
X52116666Y100500000D01*
X52083333Y100433334D01*
X52083333Y100266667D01*
X52116666Y100200000D01*
X52150000Y100166667D01*
X52216666Y100133334D01*
X52383333Y100133334D01*
X52450000Y100166667D01*
X52483333Y100200000D01*
X55883333Y73433334D02*
X55483333Y73433334D01*
X55683333Y72733334D02*
X55683333Y73433334D01*
X55250000Y72733334D02*
X55250000Y73433334D01*
X54983333Y73433334D01*
X54916666Y73400000D01*
X54883333Y73366667D01*
X54850000Y73300000D01*
X54850000Y73200000D01*
X54883333Y73133334D01*
X54916666Y73100000D01*
X54983333Y73066667D01*
X55250000Y73066667D01*
X54250000Y73433334D02*
X54383333Y73433334D01*
X54450000Y73400000D01*
X54483333Y73366667D01*
X54550000Y73266667D01*
X54583333Y73133334D01*
X54583333Y72866667D01*
X54550000Y72800000D01*
X54516666Y72766667D01*
X54450000Y72733334D01*
X54316666Y72733334D01*
X54250000Y72766667D01*
X54216666Y72800000D01*
X54183333Y72866667D01*
X54183333Y73033334D01*
X54216666Y73100000D01*
X54250000Y73133334D01*
X54316666Y73166667D01*
X54450000Y73166667D01*
X54516666Y73133334D01*
X54550000Y73100000D01*
X54583333Y73033334D01*
X41916666Y88083334D02*
X41516666Y88083334D01*
X41716666Y87383334D02*
X41716666Y88083334D01*
X41283333Y87383334D02*
X41283333Y88083334D01*
X41016666Y88083334D01*
X40950000Y88050000D01*
X40916666Y88016667D01*
X40883333Y87950000D01*
X40883333Y87850000D01*
X40916666Y87783334D01*
X40950000Y87750000D01*
X41016666Y87716667D01*
X41283333Y87716667D01*
X40216666Y87383334D02*
X40616666Y87383334D01*
X40416666Y87383334D02*
X40416666Y88083334D01*
X40483333Y87983334D01*
X40550000Y87916667D01*
X40616666Y87883334D01*
X39550000Y87383334D02*
X39950000Y87383334D01*
X39750000Y87383334D02*
X39750000Y88083334D01*
X39816666Y87983334D01*
X39883333Y87916667D01*
X39950000Y87883334D01*
X6300000Y21783334D02*
X6700000Y21783334D01*
X6500000Y21783334D02*
X6500000Y22483334D01*
X6566666Y22383334D01*
X6633333Y22316667D01*
X6700000Y22283334D01*
X5866666Y22483334D02*
X5800000Y22483334D01*
X5733333Y22450000D01*
X5700000Y22416667D01*
X5666666Y22350000D01*
X5633333Y22216667D01*
X5633333Y22050000D01*
X5666666Y21916667D01*
X5700000Y21850000D01*
X5733333Y21816667D01*
X5800000Y21783334D01*
X5866666Y21783334D01*
X5933333Y21816667D01*
X5966666Y21850000D01*
X6000000Y21916667D01*
X6033333Y22050000D01*
X6033333Y22216667D01*
X6000000Y22350000D01*
X5966666Y22416667D01*
X5933333Y22450000D01*
X5866666Y22483334D01*
X5033333Y22250000D02*
X5033333Y21783334D01*
X5333333Y22250000D02*
X5333333Y21883334D01*
X5300000Y21816667D01*
X5233333Y21783334D01*
X5133333Y21783334D01*
X5066666Y21816667D01*
X5033333Y21850000D01*
X4466666Y22150000D02*
X4700000Y22150000D01*
X4700000Y21783334D02*
X4700000Y22483334D01*
X4366666Y22483334D01*
X4166666Y21783334D02*
X3800000Y22250000D01*
X4166666Y22250000D02*
X3800000Y21783334D01*
X3566666Y22416667D02*
X3533333Y22450000D01*
X3466666Y22483334D01*
X3300000Y22483334D01*
X3233333Y22450000D01*
X3200000Y22416667D01*
X3166666Y22350000D01*
X3166666Y22283334D01*
X3200000Y22183334D01*
X3600000Y21783334D01*
X3166666Y21783334D01*
X2533333Y22483334D02*
X2866666Y22483334D01*
X2900000Y22150000D01*
X2866666Y22183334D01*
X2800000Y22216667D01*
X2633333Y22216667D01*
X2566666Y22183334D01*
X2533333Y22150000D01*
X2500000Y22083334D01*
X2500000Y21916667D01*
X2533333Y21850000D01*
X2566666Y21816667D01*
X2633333Y21783334D01*
X2800000Y21783334D01*
X2866666Y21816667D01*
X2900000Y21850000D01*
X2300000Y22483334D02*
X2066666Y21783334D01*
X1833333Y22483334D01*
X4450000Y23050000D02*
X4483333Y23016667D01*
X4583333Y22983334D01*
X4650000Y22983334D01*
X4750000Y23016667D01*
X4816666Y23083334D01*
X4850000Y23150000D01*
X4883333Y23283334D01*
X4883333Y23383334D01*
X4850000Y23516667D01*
X4816666Y23583334D01*
X4750000Y23650000D01*
X4650000Y23683334D01*
X4583333Y23683334D01*
X4483333Y23650000D01*
X4450000Y23616667D01*
X3783333Y22983334D02*
X4183333Y22983334D01*
X3983333Y22983334D02*
X3983333Y23683334D01*
X4050000Y23583334D01*
X4116666Y23516667D01*
X4183333Y23483334D01*
X3550000Y23683334D02*
X3116666Y23683334D01*
X3350000Y23416667D01*
X3250000Y23416667D01*
X3183333Y23383334D01*
X3150000Y23350000D01*
X3116666Y23283334D01*
X3116666Y23116667D01*
X3150000Y23050000D01*
X3183333Y23016667D01*
X3250000Y22983334D01*
X3450000Y22983334D01*
X3516666Y23016667D01*
X3550000Y23050000D01*
X54800000Y104283334D02*
X55200000Y104283334D01*
X55000000Y104283334D02*
X55000000Y104983334D01*
X55066666Y104883334D01*
X55133333Y104816667D01*
X55200000Y104783334D01*
X60700000Y87283334D02*
X61100000Y87283334D01*
X60900000Y87283334D02*
X60900000Y87983334D01*
X60966666Y87883334D01*
X61033333Y87816667D01*
X61100000Y87783334D01*
X52966666Y87750000D02*
X52966666Y87283334D01*
X53133333Y88016667D02*
X53300000Y87516667D01*
X52866666Y87516667D01*
X4900000Y61283334D02*
X4433333Y60583334D01*
X4433333Y61283334D02*
X4900000Y60583334D01*
X4200000Y60616667D02*
X4100000Y60583334D01*
X3933333Y60583334D01*
X3866666Y60616667D01*
X3833333Y60650000D01*
X3800000Y60716667D01*
X3800000Y60783334D01*
X3833333Y60850000D01*
X3866666Y60883334D01*
X3933333Y60916667D01*
X4066666Y60950000D01*
X4133333Y60983334D01*
X4166666Y61016667D01*
X4200000Y61083334D01*
X4200000Y61150000D01*
X4166666Y61216667D01*
X4133333Y61250000D01*
X4066666Y61283334D01*
X3900000Y61283334D01*
X3800000Y61250000D01*
X3400000Y60983334D02*
X3466666Y61016667D01*
X3500000Y61050000D01*
X3533333Y61116667D01*
X3533333Y61150000D01*
X3500000Y61216667D01*
X3466666Y61250000D01*
X3400000Y61283334D01*
X3266666Y61283334D01*
X3200000Y61250000D01*
X3166666Y61216667D01*
X3133333Y61150000D01*
X3133333Y61116667D01*
X3166666Y61050000D01*
X3200000Y61016667D01*
X3266666Y60983334D01*
X3400000Y60983334D01*
X3466666Y60950000D01*
X3500000Y60916667D01*
X3533333Y60850000D01*
X3533333Y60716667D01*
X3500000Y60650000D01*
X3466666Y60616667D01*
X3400000Y60583334D01*
X3266666Y60583334D01*
X3200000Y60616667D01*
X3166666Y60650000D01*
X3133333Y60716667D01*
X3133333Y60850000D01*
X3166666Y60916667D01*
X3200000Y60950000D01*
X3266666Y60983334D01*
X65800000Y61283334D02*
X65333333Y60583334D01*
X65333333Y61283334D02*
X65800000Y60583334D01*
X65100000Y60616667D02*
X65000000Y60583334D01*
X64833333Y60583334D01*
X64766666Y60616667D01*
X64733333Y60650000D01*
X64700000Y60716667D01*
X64700000Y60783334D01*
X64733333Y60850000D01*
X64766666Y60883334D01*
X64833333Y60916667D01*
X64966666Y60950000D01*
X65033333Y60983334D01*
X65066666Y61016667D01*
X65100000Y61083334D01*
X65100000Y61150000D01*
X65066666Y61216667D01*
X65033333Y61250000D01*
X64966666Y61283334D01*
X64800000Y61283334D01*
X64700000Y61250000D01*
X64366666Y60583334D02*
X64233333Y60583334D01*
X64166666Y60616667D01*
X64133333Y60650000D01*
X64066666Y60750000D01*
X64033333Y60883334D01*
X64033333Y61150000D01*
X64066666Y61216667D01*
X64100000Y61250000D01*
X64166666Y61283334D01*
X64300000Y61283334D01*
X64366666Y61250000D01*
X64400000Y61216667D01*
X64433333Y61150000D01*
X64433333Y60983334D01*
X64400000Y60916667D01*
X64366666Y60883334D01*
X64300000Y60850000D01*
X64166666Y60850000D01*
X64100000Y60883334D01*
X64066666Y60916667D01*
X64033333Y60983334D01*
M02*
