G04 #@! TF.GenerationSoftware,KiCad,Pcbnew,(5.0.0-rc2)*
G04 #@! TF.CreationDate,2020-07-08T18:04:12+03:00*
G04 #@! TF.ProjectId,BBDPNL2,424244504E4C322E6B696361645F7063,rev?*
G04 #@! TF.SameCoordinates,PX2549e60PY82a7440*
G04 #@! TF.FileFunction,Copper,L2,Bot,Signal*
G04 #@! TF.FilePolarity,Positive*
%FSLAX46Y46*%
G04 Gerber Fmt 4.6, Leading zero omitted, Abs format (unit mm)*
G04 Created by KiCad (PCBNEW (5.0.0-rc2)) date Wed Jul  8 18:04:12 2020*
%MOMM*%
%LPD*%
G01*
G04 APERTURE LIST*
G04 #@! TA.AperFunction,NonConductor*
%ADD10C,0.254000*%
G04 #@! TD*
G04 APERTURE END LIST*
D10*
G36*
X70403000Y397000D02*
X397000Y397000D01*
X397000Y3063669D01*
X4598011Y3063669D01*
X4598011Y2936331D01*
X4676321Y2441905D01*
X4676321Y2441904D01*
X4715670Y2320799D01*
X4942933Y1874770D01*
X5017781Y1771752D01*
X5371752Y1417780D01*
X5474770Y1342933D01*
X5920799Y1115670D01*
X6041904Y1076321D01*
X6528449Y999259D01*
X6559917Y993000D01*
X8440083Y993000D01*
X8471551Y999259D01*
X8958096Y1076321D01*
X9079201Y1115670D01*
X9525230Y1342933D01*
X9628248Y1417781D01*
X9982220Y1771752D01*
X10057067Y1874770D01*
X10284330Y2320799D01*
X10323679Y2441904D01*
X10323679Y2441905D01*
X10401989Y2936331D01*
X10401989Y3063669D01*
X60498011Y3063669D01*
X60498011Y2936331D01*
X60576321Y2441905D01*
X60576321Y2441904D01*
X60615670Y2320799D01*
X60842933Y1874770D01*
X60917781Y1771752D01*
X61271752Y1417780D01*
X61374770Y1342933D01*
X61820799Y1115670D01*
X61941904Y1076321D01*
X62428449Y999259D01*
X62459917Y993000D01*
X64340083Y993000D01*
X64371551Y999259D01*
X64858096Y1076321D01*
X64979201Y1115670D01*
X65425230Y1342933D01*
X65528248Y1417781D01*
X65882220Y1771752D01*
X65957067Y1874770D01*
X66184330Y2320799D01*
X66223679Y2441904D01*
X66223679Y2441905D01*
X66301989Y2936331D01*
X66301989Y3063669D01*
X66223679Y3558096D01*
X66217272Y3577816D01*
X66184330Y3679201D01*
X65957067Y4125230D01*
X65904188Y4198011D01*
X65882220Y4228248D01*
X65528248Y4582219D01*
X65425230Y4657067D01*
X64979201Y4884330D01*
X64858096Y4923679D01*
X64371551Y5000741D01*
X64340083Y5007000D01*
X62459917Y5007000D01*
X62428449Y5000741D01*
X61941904Y4923679D01*
X61820799Y4884330D01*
X61374770Y4657067D01*
X61271752Y4582220D01*
X60917781Y4228248D01*
X60842933Y4125230D01*
X60615670Y3679201D01*
X60576321Y3558096D01*
X60498011Y3063669D01*
X10401989Y3063669D01*
X10323679Y3558096D01*
X10317272Y3577816D01*
X10284330Y3679201D01*
X10057067Y4125230D01*
X10004188Y4198011D01*
X9982220Y4228248D01*
X9628248Y4582219D01*
X9525230Y4657067D01*
X9079201Y4884330D01*
X8958096Y4923679D01*
X8471551Y5000741D01*
X8440083Y5007000D01*
X6559917Y5007000D01*
X6528449Y5000741D01*
X6041904Y4923679D01*
X5920799Y4884330D01*
X5474770Y4657067D01*
X5371752Y4582220D01*
X5017781Y4228248D01*
X4942933Y4125230D01*
X4715670Y3679201D01*
X4676321Y3558096D01*
X4598011Y3063669D01*
X397000Y3063669D01*
X397000Y18948661D01*
X5723358Y18948661D01*
X5803000Y18318229D01*
X5803000Y18284512D01*
X5809129Y18269716D01*
X5826099Y18135382D01*
X6106468Y17365076D01*
X6323044Y17029016D01*
X6350611Y16962463D01*
X6393709Y16919365D01*
X6550529Y16676028D01*
X7136213Y16102484D01*
X7329502Y15983572D01*
X7362463Y15950611D01*
X7425567Y15924472D01*
X7834410Y15672951D01*
X8610418Y15408776D01*
X9425670Y15323090D01*
X10095821Y15403000D01*
X10115488Y15403000D01*
X10123438Y15406293D01*
X10239646Y15420150D01*
X11011891Y15695134D01*
X11371085Y15923086D01*
X11437537Y15950611D01*
X11477622Y15990696D01*
X11704022Y16134374D01*
X12281641Y16716040D01*
X12412693Y16925767D01*
X12449389Y16962463D01*
X12476457Y17027811D01*
X12716038Y17411221D01*
X12985624Y18185366D01*
X12996650Y18283668D01*
X12997000Y18284512D01*
X12997000Y18286785D01*
X13071241Y18948661D01*
X18723358Y18948661D01*
X18803000Y18318229D01*
X18803000Y18284512D01*
X18809129Y18269716D01*
X18826099Y18135382D01*
X19106468Y17365076D01*
X19323044Y17029016D01*
X19350611Y16962463D01*
X19393709Y16919365D01*
X19550529Y16676028D01*
X20136213Y16102484D01*
X20329502Y15983572D01*
X20362463Y15950611D01*
X20425567Y15924472D01*
X20834410Y15672951D01*
X21610418Y15408776D01*
X22425670Y15323090D01*
X23095821Y15403000D01*
X23115488Y15403000D01*
X23123438Y15406293D01*
X23239646Y15420150D01*
X24011891Y15695134D01*
X24371085Y15923086D01*
X24437537Y15950611D01*
X24477622Y15990696D01*
X24704022Y16134374D01*
X25281641Y16716040D01*
X25412693Y16925767D01*
X25449389Y16962463D01*
X25476457Y17027811D01*
X25716038Y17411221D01*
X25985624Y18185366D01*
X25996650Y18283668D01*
X25997000Y18284512D01*
X25997000Y18286785D01*
X26071241Y18948661D01*
X31723358Y18948661D01*
X31803000Y18318229D01*
X31803000Y18284512D01*
X31809129Y18269716D01*
X31826099Y18135382D01*
X32106468Y17365076D01*
X32323044Y17029016D01*
X32350611Y16962463D01*
X32393709Y16919365D01*
X32550529Y16676028D01*
X33136213Y16102484D01*
X33329502Y15983572D01*
X33362463Y15950611D01*
X33425567Y15924472D01*
X33834410Y15672951D01*
X34610418Y15408776D01*
X35425670Y15323090D01*
X36095821Y15403000D01*
X36115488Y15403000D01*
X36123438Y15406293D01*
X36239646Y15420150D01*
X37011891Y15695134D01*
X37371085Y15923086D01*
X37437537Y15950611D01*
X37477622Y15990696D01*
X37704022Y16134374D01*
X38281641Y16716040D01*
X38412693Y16925767D01*
X38449389Y16962463D01*
X38476457Y17027811D01*
X38716038Y17411221D01*
X38985624Y18185366D01*
X38996650Y18283668D01*
X38997000Y18284512D01*
X38997000Y18286785D01*
X39071241Y18948661D01*
X44723358Y18948661D01*
X44803000Y18318229D01*
X44803000Y18284512D01*
X44809129Y18269716D01*
X44826099Y18135382D01*
X45106468Y17365076D01*
X45323044Y17029016D01*
X45350611Y16962463D01*
X45393709Y16919365D01*
X45550529Y16676028D01*
X46136213Y16102484D01*
X46329502Y15983572D01*
X46362463Y15950611D01*
X46425567Y15924472D01*
X46834410Y15672951D01*
X47610418Y15408776D01*
X48425670Y15323090D01*
X49095821Y15403000D01*
X49115488Y15403000D01*
X49123438Y15406293D01*
X49239646Y15420150D01*
X50011891Y15695134D01*
X50371085Y15923086D01*
X50437537Y15950611D01*
X50477622Y15990696D01*
X50704022Y16134374D01*
X51281641Y16716040D01*
X51412693Y16925767D01*
X51449389Y16962463D01*
X51476457Y17027811D01*
X51716038Y17411221D01*
X51985624Y18185366D01*
X51996650Y18283668D01*
X51997000Y18284512D01*
X51997000Y18286785D01*
X52071241Y18948661D01*
X57723358Y18948661D01*
X57803000Y18318229D01*
X57803000Y18284512D01*
X57809129Y18269716D01*
X57826099Y18135382D01*
X58106468Y17365076D01*
X58323044Y17029016D01*
X58350611Y16962463D01*
X58393709Y16919365D01*
X58550529Y16676028D01*
X59136213Y16102484D01*
X59329502Y15983572D01*
X59362463Y15950611D01*
X59425567Y15924472D01*
X59834410Y15672951D01*
X60610418Y15408776D01*
X61425670Y15323090D01*
X62095821Y15403000D01*
X62115488Y15403000D01*
X62123438Y15406293D01*
X62239646Y15420150D01*
X63011891Y15695134D01*
X63371085Y15923086D01*
X63437537Y15950611D01*
X63477622Y15990696D01*
X63704022Y16134374D01*
X64281641Y16716040D01*
X64412693Y16925767D01*
X64449389Y16962463D01*
X64476457Y17027811D01*
X64716038Y17411221D01*
X64985624Y18185366D01*
X64996650Y18283668D01*
X64997000Y18284512D01*
X64997000Y18286785D01*
X65077000Y19000000D01*
X65075566Y19102668D01*
X64997000Y19661695D01*
X64997000Y19715488D01*
X64985557Y19743113D01*
X64961480Y19914433D01*
X64670384Y20680749D01*
X64475969Y20973366D01*
X64449389Y21037537D01*
X64401551Y21085375D01*
X64216745Y21363530D01*
X63623111Y21928841D01*
X63462108Y22024818D01*
X63437537Y22049389D01*
X63382982Y22071986D01*
X62918985Y22348584D01*
X62139364Y22601898D01*
X61322995Y22676194D01*
X60729468Y22597000D01*
X60684512Y22597000D01*
X60663149Y22588151D01*
X60510453Y22567777D01*
X59742123Y22282038D01*
X59428224Y22076628D01*
X59362463Y22049389D01*
X59316766Y22003692D01*
X59056192Y21833177D01*
X58486751Y21243504D01*
X58379522Y21066448D01*
X58350611Y21037537D01*
X58325937Y20977968D01*
X58062102Y20542325D01*
X57803351Y19764491D01*
X57723358Y18948661D01*
X52071241Y18948661D01*
X52077000Y19000000D01*
X52075566Y19102668D01*
X51997000Y19661695D01*
X51997000Y19715488D01*
X51985557Y19743113D01*
X51961480Y19914433D01*
X51670384Y20680749D01*
X51475969Y20973366D01*
X51449389Y21037537D01*
X51401551Y21085375D01*
X51216745Y21363530D01*
X50623111Y21928841D01*
X50462108Y22024818D01*
X50437537Y22049389D01*
X50382982Y22071986D01*
X49918985Y22348584D01*
X49139364Y22601898D01*
X48322995Y22676194D01*
X47729468Y22597000D01*
X47684512Y22597000D01*
X47663149Y22588151D01*
X47510453Y22567777D01*
X46742123Y22282038D01*
X46428224Y22076628D01*
X46362463Y22049389D01*
X46316766Y22003692D01*
X46056192Y21833177D01*
X45486751Y21243504D01*
X45379522Y21066448D01*
X45350611Y21037537D01*
X45325937Y20977968D01*
X45062102Y20542325D01*
X44803351Y19764491D01*
X44723358Y18948661D01*
X39071241Y18948661D01*
X39077000Y19000000D01*
X39075566Y19102668D01*
X38997000Y19661695D01*
X38997000Y19715488D01*
X38985557Y19743113D01*
X38961480Y19914433D01*
X38670384Y20680749D01*
X38475969Y20973366D01*
X38449389Y21037537D01*
X38401551Y21085375D01*
X38216745Y21363530D01*
X37623111Y21928841D01*
X37462108Y22024818D01*
X37437537Y22049389D01*
X37382982Y22071986D01*
X36918985Y22348584D01*
X36139364Y22601898D01*
X35322995Y22676194D01*
X34729468Y22597000D01*
X34684512Y22597000D01*
X34663149Y22588151D01*
X34510453Y22567777D01*
X33742123Y22282038D01*
X33428224Y22076628D01*
X33362463Y22049389D01*
X33316766Y22003692D01*
X33056192Y21833177D01*
X32486751Y21243504D01*
X32379522Y21066448D01*
X32350611Y21037537D01*
X32325937Y20977968D01*
X32062102Y20542325D01*
X31803351Y19764491D01*
X31723358Y18948661D01*
X26071241Y18948661D01*
X26077000Y19000000D01*
X26075566Y19102668D01*
X25997000Y19661695D01*
X25997000Y19715488D01*
X25985557Y19743113D01*
X25961480Y19914433D01*
X25670384Y20680749D01*
X25475969Y20973366D01*
X25449389Y21037537D01*
X25401551Y21085375D01*
X25216745Y21363530D01*
X24623111Y21928841D01*
X24462108Y22024818D01*
X24437537Y22049389D01*
X24382982Y22071986D01*
X23918985Y22348584D01*
X23139364Y22601898D01*
X22322995Y22676194D01*
X21729468Y22597000D01*
X21684512Y22597000D01*
X21663149Y22588151D01*
X21510453Y22567777D01*
X20742123Y22282038D01*
X20428224Y22076628D01*
X20362463Y22049389D01*
X20316766Y22003692D01*
X20056192Y21833177D01*
X19486751Y21243504D01*
X19379522Y21066448D01*
X19350611Y21037537D01*
X19325937Y20977968D01*
X19062102Y20542325D01*
X18803351Y19764491D01*
X18723358Y18948661D01*
X13071241Y18948661D01*
X13077000Y19000000D01*
X13075566Y19102668D01*
X12997000Y19661695D01*
X12997000Y19715488D01*
X12985557Y19743113D01*
X12961480Y19914433D01*
X12670384Y20680749D01*
X12475969Y20973366D01*
X12449389Y21037537D01*
X12401551Y21085375D01*
X12216745Y21363530D01*
X11623111Y21928841D01*
X11462108Y22024818D01*
X11437537Y22049389D01*
X11382982Y22071986D01*
X10918985Y22348584D01*
X10139364Y22601898D01*
X9322995Y22676194D01*
X8729468Y22597000D01*
X8684512Y22597000D01*
X8663149Y22588151D01*
X8510453Y22567777D01*
X7742123Y22282038D01*
X7428224Y22076628D01*
X7362463Y22049389D01*
X7316766Y22003692D01*
X7056192Y21833177D01*
X6486751Y21243504D01*
X6379522Y21066448D01*
X6350611Y21037537D01*
X6325937Y20977968D01*
X6062102Y20542325D01*
X5803351Y19764491D01*
X5723358Y18948661D01*
X397000Y18948661D01*
X397000Y33948661D01*
X25223358Y33948661D01*
X25303000Y33318229D01*
X25303000Y33284512D01*
X25309129Y33269716D01*
X25326099Y33135382D01*
X25606468Y32365076D01*
X25823044Y32029016D01*
X25850611Y31962463D01*
X25893709Y31919365D01*
X26050529Y31676028D01*
X26636213Y31102484D01*
X26829502Y30983572D01*
X26862463Y30950611D01*
X26925567Y30924472D01*
X27334410Y30672951D01*
X28110418Y30408776D01*
X28925670Y30323090D01*
X29595821Y30403000D01*
X29615488Y30403000D01*
X29623438Y30406293D01*
X29739646Y30420150D01*
X30511891Y30695134D01*
X30871085Y30923086D01*
X30937537Y30950611D01*
X30977622Y30990696D01*
X31204022Y31134374D01*
X31781641Y31716040D01*
X31912693Y31925767D01*
X31949389Y31962463D01*
X31976457Y32027811D01*
X32216038Y32411221D01*
X32485624Y33185366D01*
X32496650Y33283668D01*
X32497000Y33284512D01*
X32497000Y33286785D01*
X32571241Y33948661D01*
X38223358Y33948661D01*
X38303000Y33318229D01*
X38303000Y33284512D01*
X38309129Y33269716D01*
X38326099Y33135382D01*
X38606468Y32365076D01*
X38823044Y32029016D01*
X38850611Y31962463D01*
X38893709Y31919365D01*
X39050529Y31676028D01*
X39636213Y31102484D01*
X39829502Y30983572D01*
X39862463Y30950611D01*
X39925567Y30924472D01*
X40334410Y30672951D01*
X41110418Y30408776D01*
X41925670Y30323090D01*
X42595821Y30403000D01*
X42615488Y30403000D01*
X42623438Y30406293D01*
X42739646Y30420150D01*
X43511891Y30695134D01*
X43871085Y30923086D01*
X43937537Y30950611D01*
X43977622Y30990696D01*
X44204022Y31134374D01*
X44781641Y31716040D01*
X44912693Y31925767D01*
X44949389Y31962463D01*
X44976457Y32027811D01*
X45216038Y32411221D01*
X45485624Y33185366D01*
X45496650Y33283668D01*
X45497000Y33284512D01*
X45497000Y33286785D01*
X45577000Y34000000D01*
X45575566Y34102668D01*
X45497000Y34661695D01*
X45497000Y34715488D01*
X45485557Y34743113D01*
X45461480Y34914433D01*
X45170384Y35680749D01*
X44975969Y35973366D01*
X44949389Y36037537D01*
X44901551Y36085375D01*
X44716745Y36363530D01*
X44123111Y36928841D01*
X43962108Y37024818D01*
X43937537Y37049389D01*
X43882982Y37071986D01*
X43418985Y37348584D01*
X42639364Y37601898D01*
X41822995Y37676194D01*
X41229468Y37597000D01*
X41184512Y37597000D01*
X41163149Y37588151D01*
X41010453Y37567777D01*
X40242123Y37282038D01*
X39928224Y37076628D01*
X39862463Y37049389D01*
X39816766Y37003692D01*
X39556192Y36833177D01*
X38986751Y36243504D01*
X38879522Y36066448D01*
X38850611Y36037537D01*
X38825937Y35977968D01*
X38562102Y35542325D01*
X38303351Y34764491D01*
X38223358Y33948661D01*
X32571241Y33948661D01*
X32577000Y34000000D01*
X32575566Y34102668D01*
X32497000Y34661695D01*
X32497000Y34715488D01*
X32485557Y34743113D01*
X32461480Y34914433D01*
X32170384Y35680749D01*
X31975969Y35973366D01*
X31949389Y36037537D01*
X31901551Y36085375D01*
X31716745Y36363530D01*
X31123111Y36928841D01*
X30962108Y37024818D01*
X30937537Y37049389D01*
X30882982Y37071986D01*
X30418985Y37348584D01*
X29639364Y37601898D01*
X28822995Y37676194D01*
X28229468Y37597000D01*
X28184512Y37597000D01*
X28163149Y37588151D01*
X28010453Y37567777D01*
X27242123Y37282038D01*
X26928224Y37076628D01*
X26862463Y37049389D01*
X26816766Y37003692D01*
X26556192Y36833177D01*
X25986751Y36243504D01*
X25879522Y36066448D01*
X25850611Y36037537D01*
X25825937Y35977968D01*
X25562102Y35542325D01*
X25303351Y34764491D01*
X25223358Y33948661D01*
X397000Y33948661D01*
X397000Y52000000D01*
X8723000Y52000000D01*
X8803000Y51238847D01*
X8803000Y51185056D01*
X8810576Y51166766D01*
X8814277Y51131553D01*
X9084121Y50301061D01*
X9385089Y49779769D01*
X9426731Y49679236D01*
X9465535Y49640432D01*
X9520736Y49544821D01*
X10105041Y48895884D01*
X10489166Y48616801D01*
X10579236Y48526731D01*
X10658097Y48494066D01*
X10811500Y48382612D01*
X11609236Y48027437D01*
X11969522Y47950856D01*
X12085056Y47903000D01*
X12194666Y47903000D01*
X12463385Y47845882D01*
X13336615Y47845882D01*
X13605334Y47903000D01*
X13714944Y47903000D01*
X13830478Y47950856D01*
X14190764Y48027437D01*
X14988500Y48382612D01*
X15141903Y48494066D01*
X15220764Y48526731D01*
X15310834Y48616801D01*
X15694959Y48895884D01*
X16279264Y49544821D01*
X16334465Y49640432D01*
X16373269Y49679236D01*
X16414911Y49779769D01*
X16715879Y50301061D01*
X16985723Y51131553D01*
X16989424Y51166766D01*
X16997000Y51185056D01*
X16997000Y51238847D01*
X17077000Y52000000D01*
X53723000Y52000000D01*
X53803000Y51238847D01*
X53803000Y51185056D01*
X53810576Y51166766D01*
X53814277Y51131553D01*
X54084121Y50301061D01*
X54385089Y49779769D01*
X54426731Y49679236D01*
X54465535Y49640432D01*
X54520736Y49544821D01*
X55105041Y48895884D01*
X55489166Y48616801D01*
X55579236Y48526731D01*
X55658097Y48494066D01*
X55811500Y48382612D01*
X56609236Y48027437D01*
X56969522Y47950856D01*
X57085056Y47903000D01*
X57194666Y47903000D01*
X57463385Y47845882D01*
X58336615Y47845882D01*
X58605334Y47903000D01*
X58714944Y47903000D01*
X58830478Y47950856D01*
X59190764Y48027437D01*
X59988500Y48382612D01*
X60141903Y48494066D01*
X60220764Y48526731D01*
X60310834Y48616801D01*
X60694959Y48895884D01*
X61279264Y49544821D01*
X61334465Y49640432D01*
X61373269Y49679236D01*
X61414911Y49779769D01*
X61715879Y50301061D01*
X61985723Y51131553D01*
X61989424Y51166766D01*
X61997000Y51185056D01*
X61997000Y51238847D01*
X62077000Y52000000D01*
X61997000Y52761153D01*
X61997000Y52814944D01*
X61989424Y52833234D01*
X61985723Y52868447D01*
X61715879Y53698939D01*
X61414911Y54220231D01*
X61373269Y54320764D01*
X61334465Y54359568D01*
X61279264Y54455179D01*
X60694959Y55104116D01*
X60310834Y55383199D01*
X60220764Y55473269D01*
X60141903Y55505934D01*
X59988500Y55617388D01*
X59190764Y55972563D01*
X58830478Y56049144D01*
X58714944Y56097000D01*
X58605334Y56097000D01*
X58336615Y56154118D01*
X57463385Y56154118D01*
X57194666Y56097000D01*
X57085056Y56097000D01*
X56969522Y56049144D01*
X56609236Y55972563D01*
X55811500Y55617388D01*
X55658097Y55505934D01*
X55579236Y55473269D01*
X55489166Y55383199D01*
X55105041Y55104116D01*
X54520736Y54455179D01*
X54465535Y54359568D01*
X54426731Y54320764D01*
X54385089Y54220231D01*
X54084121Y53698939D01*
X53814277Y52868447D01*
X53810576Y52833234D01*
X53803000Y52814944D01*
X53803000Y52761153D01*
X53723000Y52000000D01*
X17077000Y52000000D01*
X16997000Y52761153D01*
X16997000Y52814944D01*
X16989424Y52833234D01*
X16985723Y52868447D01*
X16715879Y53698939D01*
X16414911Y54220231D01*
X16373269Y54320764D01*
X16334465Y54359568D01*
X16279264Y54455179D01*
X15694959Y55104116D01*
X15310834Y55383199D01*
X15220764Y55473269D01*
X15141903Y55505934D01*
X14988500Y55617388D01*
X14190764Y55972563D01*
X13830478Y56049144D01*
X13714944Y56097000D01*
X13605334Y56097000D01*
X13336615Y56154118D01*
X12463385Y56154118D01*
X12194666Y56097000D01*
X12085056Y56097000D01*
X11969522Y56049144D01*
X11609236Y55972563D01*
X10811500Y55617388D01*
X10658097Y55505934D01*
X10579236Y55473269D01*
X10489166Y55383199D01*
X10105041Y55104116D01*
X9520736Y54455179D01*
X9465535Y54359568D01*
X9426731Y54320764D01*
X9385089Y54220231D01*
X9084121Y53698939D01*
X8814277Y52868447D01*
X8810576Y52833234D01*
X8803000Y52814944D01*
X8803000Y52761153D01*
X8723000Y52000000D01*
X397000Y52000000D01*
X397000Y64500000D01*
X31223000Y64500000D01*
X31303000Y63738847D01*
X31303000Y63685056D01*
X31310576Y63666766D01*
X31314277Y63631553D01*
X31584121Y62801061D01*
X31885089Y62279769D01*
X31926731Y62179236D01*
X31965535Y62140432D01*
X32020736Y62044821D01*
X32605041Y61395884D01*
X32989166Y61116801D01*
X33079236Y61026731D01*
X33158097Y60994066D01*
X33311500Y60882612D01*
X34109236Y60527437D01*
X34469522Y60450856D01*
X34585056Y60403000D01*
X34694666Y60403000D01*
X34963385Y60345882D01*
X35836615Y60345882D01*
X36105334Y60403000D01*
X36214944Y60403000D01*
X36330478Y60450856D01*
X36690764Y60527437D01*
X37488500Y60882612D01*
X37641903Y60994066D01*
X37720764Y61026731D01*
X37810834Y61116801D01*
X38194959Y61395884D01*
X38779264Y62044821D01*
X38834465Y62140432D01*
X38873269Y62179236D01*
X38914911Y62279769D01*
X39215879Y62801061D01*
X39485723Y63631553D01*
X39489424Y63666766D01*
X39497000Y63685056D01*
X39497000Y63738847D01*
X39577000Y64500000D01*
X39497000Y65261153D01*
X39497000Y65314944D01*
X39489424Y65333234D01*
X39485723Y65368447D01*
X39215879Y66198939D01*
X38914911Y66720231D01*
X38873269Y66820764D01*
X38834465Y66859568D01*
X38779264Y66955179D01*
X38194959Y67604116D01*
X37810834Y67883199D01*
X37720764Y67973269D01*
X37641903Y68005934D01*
X37488500Y68117388D01*
X36690764Y68472563D01*
X36330478Y68549144D01*
X36214944Y68597000D01*
X36105334Y68597000D01*
X35836615Y68654118D01*
X34963385Y68654118D01*
X34694666Y68597000D01*
X34585056Y68597000D01*
X34469522Y68549144D01*
X34109236Y68472563D01*
X33311500Y68117388D01*
X33158097Y68005934D01*
X33079236Y67973269D01*
X32989166Y67883199D01*
X32605041Y67604116D01*
X32020736Y66955179D01*
X31965535Y66859568D01*
X31926731Y66820764D01*
X31885089Y66720231D01*
X31584121Y66198939D01*
X31314277Y65368447D01*
X31310576Y65333234D01*
X31303000Y65314944D01*
X31303000Y65261153D01*
X31223000Y64500000D01*
X397000Y64500000D01*
X397000Y77000000D01*
X8723000Y77000000D01*
X8803000Y76238847D01*
X8803000Y76185056D01*
X8810576Y76166766D01*
X8814277Y76131553D01*
X9084121Y75301061D01*
X9385089Y74779769D01*
X9426731Y74679236D01*
X9465535Y74640432D01*
X9520736Y74544821D01*
X10105041Y73895884D01*
X10489166Y73616801D01*
X10579236Y73526731D01*
X10658097Y73494066D01*
X10811500Y73382612D01*
X11609236Y73027437D01*
X11969522Y72950856D01*
X12085056Y72903000D01*
X12194666Y72903000D01*
X12463385Y72845882D01*
X13336615Y72845882D01*
X13605334Y72903000D01*
X13714944Y72903000D01*
X13830478Y72950856D01*
X14190764Y73027437D01*
X14988500Y73382612D01*
X15141903Y73494066D01*
X15220764Y73526731D01*
X15310834Y73616801D01*
X15694959Y73895884D01*
X16279264Y74544821D01*
X16334465Y74640432D01*
X16373269Y74679236D01*
X16414911Y74779769D01*
X16715879Y75301061D01*
X16985723Y76131553D01*
X16989424Y76166766D01*
X16997000Y76185056D01*
X16997000Y76238847D01*
X17077000Y77000000D01*
X53723000Y77000000D01*
X53803000Y76238847D01*
X53803000Y76185056D01*
X53810576Y76166766D01*
X53814277Y76131553D01*
X54084121Y75301061D01*
X54385089Y74779769D01*
X54426731Y74679236D01*
X54465535Y74640432D01*
X54520736Y74544821D01*
X55105041Y73895884D01*
X55489166Y73616801D01*
X55579236Y73526731D01*
X55658097Y73494066D01*
X55811500Y73382612D01*
X56609236Y73027437D01*
X56969522Y72950856D01*
X57085056Y72903000D01*
X57194666Y72903000D01*
X57463385Y72845882D01*
X58336615Y72845882D01*
X58605334Y72903000D01*
X58714944Y72903000D01*
X58830478Y72950856D01*
X59190764Y73027437D01*
X59988500Y73382612D01*
X60141903Y73494066D01*
X60220764Y73526731D01*
X60310834Y73616801D01*
X60694959Y73895884D01*
X61279264Y74544821D01*
X61334465Y74640432D01*
X61373269Y74679236D01*
X61414911Y74779769D01*
X61715879Y75301061D01*
X61985723Y76131553D01*
X61989424Y76166766D01*
X61997000Y76185056D01*
X61997000Y76238847D01*
X62077000Y77000000D01*
X61997000Y77761153D01*
X61997000Y77814944D01*
X61989424Y77833234D01*
X61985723Y77868447D01*
X61715879Y78698939D01*
X61414911Y79220231D01*
X61373269Y79320764D01*
X61334465Y79359568D01*
X61279264Y79455179D01*
X60694959Y80104116D01*
X60310834Y80383199D01*
X60220764Y80473269D01*
X60141903Y80505934D01*
X59988500Y80617388D01*
X59190764Y80972563D01*
X58830478Y81049144D01*
X58714944Y81097000D01*
X58605334Y81097000D01*
X58336615Y81154118D01*
X57463385Y81154118D01*
X57194666Y81097000D01*
X57085056Y81097000D01*
X56969522Y81049144D01*
X56609236Y80972563D01*
X55811500Y80617388D01*
X55658097Y80505934D01*
X55579236Y80473269D01*
X55489166Y80383199D01*
X55105041Y80104116D01*
X54520736Y79455179D01*
X54465535Y79359568D01*
X54426731Y79320764D01*
X54385089Y79220231D01*
X54084121Y78698939D01*
X53814277Y77868447D01*
X53810576Y77833234D01*
X53803000Y77814944D01*
X53803000Y77761153D01*
X53723000Y77000000D01*
X17077000Y77000000D01*
X16997000Y77761153D01*
X16997000Y77814944D01*
X16989424Y77833234D01*
X16985723Y77868447D01*
X16715879Y78698939D01*
X16414911Y79220231D01*
X16373269Y79320764D01*
X16334465Y79359568D01*
X16279264Y79455179D01*
X15694959Y80104116D01*
X15310834Y80383199D01*
X15220764Y80473269D01*
X15141903Y80505934D01*
X14988500Y80617388D01*
X14190764Y80972563D01*
X13830478Y81049144D01*
X13714944Y81097000D01*
X13605334Y81097000D01*
X13336615Y81154118D01*
X12463385Y81154118D01*
X12194666Y81097000D01*
X12085056Y81097000D01*
X11969522Y81049144D01*
X11609236Y80972563D01*
X10811500Y80617388D01*
X10658097Y80505934D01*
X10579236Y80473269D01*
X10489166Y80383199D01*
X10105041Y80104116D01*
X9520736Y79455179D01*
X9465535Y79359568D01*
X9426731Y79320764D01*
X9385089Y79220231D01*
X9084121Y78698939D01*
X8814277Y77868447D01*
X8810576Y77833234D01*
X8803000Y77814944D01*
X8803000Y77761153D01*
X8723000Y77000000D01*
X397000Y77000000D01*
X397000Y95948661D01*
X9223358Y95948661D01*
X9303000Y95318229D01*
X9303000Y95284512D01*
X9309129Y95269716D01*
X9326099Y95135382D01*
X9606468Y94365076D01*
X9823044Y94029016D01*
X9850611Y93962463D01*
X9893709Y93919365D01*
X10050529Y93676028D01*
X10636213Y93102484D01*
X10829502Y92983572D01*
X10862463Y92950611D01*
X10925567Y92924472D01*
X11334410Y92672951D01*
X12110418Y92408776D01*
X12925670Y92323090D01*
X13595821Y92403000D01*
X13615488Y92403000D01*
X13623438Y92406293D01*
X13739646Y92420150D01*
X14511891Y92695134D01*
X14871085Y92923086D01*
X14937537Y92950611D01*
X14977622Y92990696D01*
X15204022Y93134374D01*
X15781641Y93716040D01*
X15912693Y93925767D01*
X15949389Y93962463D01*
X15976457Y94027811D01*
X16216038Y94411221D01*
X16485624Y95185366D01*
X16496650Y95283668D01*
X16497000Y95284512D01*
X16497000Y95286785D01*
X16571241Y95948661D01*
X54223358Y95948661D01*
X54303000Y95318229D01*
X54303000Y95284512D01*
X54309129Y95269716D01*
X54326099Y95135382D01*
X54606468Y94365076D01*
X54823044Y94029016D01*
X54850611Y93962463D01*
X54893709Y93919365D01*
X55050529Y93676028D01*
X55636213Y93102484D01*
X55829502Y92983572D01*
X55862463Y92950611D01*
X55925567Y92924472D01*
X56334410Y92672951D01*
X57110418Y92408776D01*
X57925670Y92323090D01*
X58595821Y92403000D01*
X58615488Y92403000D01*
X58623438Y92406293D01*
X58739646Y92420150D01*
X59511891Y92695134D01*
X59871085Y92923086D01*
X59937537Y92950611D01*
X59977622Y92990696D01*
X60204022Y93134374D01*
X60781641Y93716040D01*
X60912693Y93925767D01*
X60949389Y93962463D01*
X60976457Y94027811D01*
X61216038Y94411221D01*
X61485624Y95185366D01*
X61496650Y95283668D01*
X61497000Y95284512D01*
X61497000Y95286785D01*
X61577000Y96000000D01*
X61575566Y96102668D01*
X61497000Y96661695D01*
X61497000Y96715488D01*
X61485557Y96743113D01*
X61461480Y96914433D01*
X61170384Y97680749D01*
X60975969Y97973366D01*
X60949389Y98037537D01*
X60901551Y98085375D01*
X60716745Y98363530D01*
X60123111Y98928841D01*
X59962108Y99024818D01*
X59937537Y99049389D01*
X59882982Y99071986D01*
X59418985Y99348584D01*
X58639364Y99601898D01*
X57822995Y99676194D01*
X57229468Y99597000D01*
X57184512Y99597000D01*
X57163149Y99588151D01*
X57010453Y99567777D01*
X56242123Y99282038D01*
X55928224Y99076628D01*
X55862463Y99049389D01*
X55816766Y99003692D01*
X55556192Y98833177D01*
X54986751Y98243504D01*
X54879522Y98066448D01*
X54850611Y98037537D01*
X54825937Y97977968D01*
X54562102Y97542325D01*
X54303351Y96764491D01*
X54223358Y95948661D01*
X16571241Y95948661D01*
X16577000Y96000000D01*
X16575566Y96102668D01*
X16497000Y96661695D01*
X16497000Y96715488D01*
X16485557Y96743113D01*
X16461480Y96914433D01*
X16170384Y97680749D01*
X15975969Y97973366D01*
X15949389Y98037537D01*
X15901551Y98085375D01*
X15716745Y98363530D01*
X15123111Y98928841D01*
X14962108Y99024818D01*
X14937537Y99049389D01*
X14882982Y99071986D01*
X14418985Y99348584D01*
X13639364Y99601898D01*
X12822995Y99676194D01*
X12229468Y99597000D01*
X12184512Y99597000D01*
X12163149Y99588151D01*
X12010453Y99567777D01*
X11242123Y99282038D01*
X10928224Y99076628D01*
X10862463Y99049389D01*
X10816766Y99003692D01*
X10556192Y98833177D01*
X9986751Y98243504D01*
X9879522Y98066448D01*
X9850611Y98037537D01*
X9825937Y97977968D01*
X9562102Y97542325D01*
X9303351Y96764491D01*
X9223358Y95948661D01*
X397000Y95948661D01*
X397000Y105000000D01*
X31223000Y105000000D01*
X31303000Y104238847D01*
X31303000Y104185056D01*
X31310576Y104166766D01*
X31314277Y104131553D01*
X31584121Y103301061D01*
X31885089Y102779769D01*
X31926731Y102679236D01*
X31965535Y102640432D01*
X32020736Y102544821D01*
X32605041Y101895884D01*
X32989166Y101616801D01*
X33079236Y101526731D01*
X33158097Y101494066D01*
X33311500Y101382612D01*
X34109236Y101027437D01*
X34469522Y100950856D01*
X34585056Y100903000D01*
X34694666Y100903000D01*
X34963385Y100845882D01*
X35836615Y100845882D01*
X36105334Y100903000D01*
X36214944Y100903000D01*
X36330478Y100950856D01*
X36690764Y101027437D01*
X37488500Y101382612D01*
X37641903Y101494066D01*
X37720764Y101526731D01*
X37810834Y101616801D01*
X38194959Y101895884D01*
X38779264Y102544821D01*
X38834465Y102640432D01*
X38873269Y102679236D01*
X38914911Y102779769D01*
X39215879Y103301061D01*
X39485723Y104131553D01*
X39489424Y104166766D01*
X39497000Y104185056D01*
X39497000Y104238847D01*
X39577000Y105000000D01*
X39497000Y105761153D01*
X39497000Y105814944D01*
X39489424Y105833234D01*
X39485723Y105868447D01*
X39215879Y106698939D01*
X38914911Y107220231D01*
X38873269Y107320764D01*
X38834465Y107359568D01*
X38779264Y107455179D01*
X38194959Y108104116D01*
X37810834Y108383199D01*
X37720764Y108473269D01*
X37641903Y108505934D01*
X37488500Y108617388D01*
X36690764Y108972563D01*
X36330478Y109049144D01*
X36214944Y109097000D01*
X36105334Y109097000D01*
X35836615Y109154118D01*
X34963385Y109154118D01*
X34694666Y109097000D01*
X34585056Y109097000D01*
X34469522Y109049144D01*
X34109236Y108972563D01*
X33311500Y108617388D01*
X33158097Y108505934D01*
X33079236Y108473269D01*
X32989166Y108383199D01*
X32605041Y108104116D01*
X32020736Y107455179D01*
X31965535Y107359568D01*
X31926731Y107320764D01*
X31885089Y107220231D01*
X31584121Y106698939D01*
X31314277Y105868447D01*
X31310576Y105833234D01*
X31303000Y105814944D01*
X31303000Y105761153D01*
X31223000Y105000000D01*
X397000Y105000000D01*
X397000Y112948661D01*
X54223358Y112948661D01*
X54303000Y112318229D01*
X54303000Y112284512D01*
X54309129Y112269716D01*
X54326099Y112135382D01*
X54606468Y111365076D01*
X54823044Y111029016D01*
X54850611Y110962463D01*
X54893709Y110919365D01*
X55050529Y110676028D01*
X55636213Y110102484D01*
X55829502Y109983572D01*
X55862463Y109950611D01*
X55925567Y109924472D01*
X56334410Y109672951D01*
X57110418Y109408776D01*
X57925670Y109323090D01*
X58595821Y109403000D01*
X58615488Y109403000D01*
X58623438Y109406293D01*
X58739646Y109420150D01*
X59511891Y109695134D01*
X59871085Y109923086D01*
X59937537Y109950611D01*
X59977622Y109990696D01*
X60204022Y110134374D01*
X60781641Y110716040D01*
X60912693Y110925767D01*
X60949389Y110962463D01*
X60976457Y111027811D01*
X61216038Y111411221D01*
X61485624Y112185366D01*
X61496650Y112283668D01*
X61497000Y112284512D01*
X61497000Y112286785D01*
X61577000Y113000000D01*
X61575566Y113102668D01*
X61497000Y113661695D01*
X61497000Y113715488D01*
X61485557Y113743113D01*
X61461480Y113914433D01*
X61170384Y114680749D01*
X60975969Y114973366D01*
X60949389Y115037537D01*
X60901551Y115085375D01*
X60716745Y115363530D01*
X60123111Y115928841D01*
X59962108Y116024818D01*
X59937537Y116049389D01*
X59882982Y116071986D01*
X59418985Y116348584D01*
X58639364Y116601898D01*
X57822995Y116676194D01*
X57229468Y116597000D01*
X57184512Y116597000D01*
X57163149Y116588151D01*
X57010453Y116567777D01*
X56242123Y116282038D01*
X55928224Y116076628D01*
X55862463Y116049389D01*
X55816766Y116003692D01*
X55556192Y115833177D01*
X54986751Y115243504D01*
X54879522Y115066448D01*
X54850611Y115037537D01*
X54825937Y114977968D01*
X54562102Y114542325D01*
X54303351Y113764491D01*
X54223358Y112948661D01*
X397000Y112948661D01*
X397000Y115500000D01*
X10873000Y115500000D01*
X10972208Y114873623D01*
X11260123Y114308559D01*
X11708559Y113860123D01*
X12273623Y113572208D01*
X12900000Y113473000D01*
X13526377Y113572208D01*
X14091441Y113860123D01*
X14539877Y114308559D01*
X14827792Y114873623D01*
X14927000Y115500000D01*
X14827792Y116126377D01*
X14539877Y116691441D01*
X14091441Y117139877D01*
X13526377Y117427792D01*
X12900000Y117527000D01*
X12273623Y117427792D01*
X11708559Y117139877D01*
X11260123Y116691441D01*
X10972208Y116126377D01*
X10873000Y115500000D01*
X397000Y115500000D01*
X397000Y125563669D01*
X4598011Y125563669D01*
X4598011Y125436331D01*
X4676321Y124941905D01*
X4676321Y124941904D01*
X4715670Y124820799D01*
X4942933Y124374770D01*
X5017781Y124271752D01*
X5371752Y123917780D01*
X5474770Y123842933D01*
X5920799Y123615670D01*
X6041904Y123576321D01*
X6528449Y123499259D01*
X6559917Y123493000D01*
X8440083Y123493000D01*
X8471551Y123499259D01*
X8958096Y123576321D01*
X9079201Y123615670D01*
X9525230Y123842933D01*
X9628248Y123917781D01*
X9982220Y124271752D01*
X10057067Y124374770D01*
X10284330Y124820799D01*
X10323679Y124941904D01*
X10323679Y124941905D01*
X10401989Y125436331D01*
X10401989Y125563669D01*
X60498011Y125563669D01*
X60498011Y125436331D01*
X60576321Y124941905D01*
X60576321Y124941904D01*
X60615670Y124820799D01*
X60842933Y124374770D01*
X60917781Y124271752D01*
X61271752Y123917780D01*
X61374770Y123842933D01*
X61820799Y123615670D01*
X61941904Y123576321D01*
X62428449Y123499259D01*
X62459917Y123493000D01*
X64340083Y123493000D01*
X64371551Y123499259D01*
X64858096Y123576321D01*
X64979201Y123615670D01*
X65425230Y123842933D01*
X65528248Y123917781D01*
X65882220Y124271752D01*
X65957067Y124374770D01*
X66184330Y124820799D01*
X66223679Y124941904D01*
X66223679Y124941905D01*
X66301989Y125436331D01*
X66301989Y125563669D01*
X66223679Y126058096D01*
X66217272Y126077816D01*
X66184330Y126179201D01*
X65957067Y126625230D01*
X65904188Y126698011D01*
X65882220Y126728248D01*
X65528248Y127082219D01*
X65425230Y127157067D01*
X64979201Y127384330D01*
X64858096Y127423679D01*
X64371551Y127500741D01*
X64340083Y127507000D01*
X62459917Y127507000D01*
X62428449Y127500741D01*
X61941904Y127423679D01*
X61820799Y127384330D01*
X61374770Y127157067D01*
X61271752Y127082220D01*
X60917781Y126728248D01*
X60842933Y126625230D01*
X60615670Y126179201D01*
X60576321Y126058096D01*
X60498011Y125563669D01*
X10401989Y125563669D01*
X10323679Y126058096D01*
X10317272Y126077816D01*
X10284330Y126179201D01*
X10057067Y126625230D01*
X10004188Y126698011D01*
X9982220Y126728248D01*
X9628248Y127082219D01*
X9525230Y127157067D01*
X9079201Y127384330D01*
X8958096Y127423679D01*
X8471551Y127500741D01*
X8440083Y127507000D01*
X6559917Y127507000D01*
X6528449Y127500741D01*
X6041904Y127423679D01*
X5920799Y127384330D01*
X5474770Y127157067D01*
X5371752Y127082220D01*
X5017781Y126728248D01*
X4942933Y126625230D01*
X4715670Y126179201D01*
X4676321Y126058096D01*
X4598011Y125563669D01*
X397000Y125563669D01*
X396999Y128103000D01*
X70403001Y128103000D01*
X70403000Y397000D01*
X70403000Y397000D01*
G37*
X70403000Y397000D02*
X397000Y397000D01*
X397000Y3063669D01*
X4598011Y3063669D01*
X4598011Y2936331D01*
X4676321Y2441905D01*
X4676321Y2441904D01*
X4715670Y2320799D01*
X4942933Y1874770D01*
X5017781Y1771752D01*
X5371752Y1417780D01*
X5474770Y1342933D01*
X5920799Y1115670D01*
X6041904Y1076321D01*
X6528449Y999259D01*
X6559917Y993000D01*
X8440083Y993000D01*
X8471551Y999259D01*
X8958096Y1076321D01*
X9079201Y1115670D01*
X9525230Y1342933D01*
X9628248Y1417781D01*
X9982220Y1771752D01*
X10057067Y1874770D01*
X10284330Y2320799D01*
X10323679Y2441904D01*
X10323679Y2441905D01*
X10401989Y2936331D01*
X10401989Y3063669D01*
X60498011Y3063669D01*
X60498011Y2936331D01*
X60576321Y2441905D01*
X60576321Y2441904D01*
X60615670Y2320799D01*
X60842933Y1874770D01*
X60917781Y1771752D01*
X61271752Y1417780D01*
X61374770Y1342933D01*
X61820799Y1115670D01*
X61941904Y1076321D01*
X62428449Y999259D01*
X62459917Y993000D01*
X64340083Y993000D01*
X64371551Y999259D01*
X64858096Y1076321D01*
X64979201Y1115670D01*
X65425230Y1342933D01*
X65528248Y1417781D01*
X65882220Y1771752D01*
X65957067Y1874770D01*
X66184330Y2320799D01*
X66223679Y2441904D01*
X66223679Y2441905D01*
X66301989Y2936331D01*
X66301989Y3063669D01*
X66223679Y3558096D01*
X66217272Y3577816D01*
X66184330Y3679201D01*
X65957067Y4125230D01*
X65904188Y4198011D01*
X65882220Y4228248D01*
X65528248Y4582219D01*
X65425230Y4657067D01*
X64979201Y4884330D01*
X64858096Y4923679D01*
X64371551Y5000741D01*
X64340083Y5007000D01*
X62459917Y5007000D01*
X62428449Y5000741D01*
X61941904Y4923679D01*
X61820799Y4884330D01*
X61374770Y4657067D01*
X61271752Y4582220D01*
X60917781Y4228248D01*
X60842933Y4125230D01*
X60615670Y3679201D01*
X60576321Y3558096D01*
X60498011Y3063669D01*
X10401989Y3063669D01*
X10323679Y3558096D01*
X10317272Y3577816D01*
X10284330Y3679201D01*
X10057067Y4125230D01*
X10004188Y4198011D01*
X9982220Y4228248D01*
X9628248Y4582219D01*
X9525230Y4657067D01*
X9079201Y4884330D01*
X8958096Y4923679D01*
X8471551Y5000741D01*
X8440083Y5007000D01*
X6559917Y5007000D01*
X6528449Y5000741D01*
X6041904Y4923679D01*
X5920799Y4884330D01*
X5474770Y4657067D01*
X5371752Y4582220D01*
X5017781Y4228248D01*
X4942933Y4125230D01*
X4715670Y3679201D01*
X4676321Y3558096D01*
X4598011Y3063669D01*
X397000Y3063669D01*
X397000Y18948661D01*
X5723358Y18948661D01*
X5803000Y18318229D01*
X5803000Y18284512D01*
X5809129Y18269716D01*
X5826099Y18135382D01*
X6106468Y17365076D01*
X6323044Y17029016D01*
X6350611Y16962463D01*
X6393709Y16919365D01*
X6550529Y16676028D01*
X7136213Y16102484D01*
X7329502Y15983572D01*
X7362463Y15950611D01*
X7425567Y15924472D01*
X7834410Y15672951D01*
X8610418Y15408776D01*
X9425670Y15323090D01*
X10095821Y15403000D01*
X10115488Y15403000D01*
X10123438Y15406293D01*
X10239646Y15420150D01*
X11011891Y15695134D01*
X11371085Y15923086D01*
X11437537Y15950611D01*
X11477622Y15990696D01*
X11704022Y16134374D01*
X12281641Y16716040D01*
X12412693Y16925767D01*
X12449389Y16962463D01*
X12476457Y17027811D01*
X12716038Y17411221D01*
X12985624Y18185366D01*
X12996650Y18283668D01*
X12997000Y18284512D01*
X12997000Y18286785D01*
X13071241Y18948661D01*
X18723358Y18948661D01*
X18803000Y18318229D01*
X18803000Y18284512D01*
X18809129Y18269716D01*
X18826099Y18135382D01*
X19106468Y17365076D01*
X19323044Y17029016D01*
X19350611Y16962463D01*
X19393709Y16919365D01*
X19550529Y16676028D01*
X20136213Y16102484D01*
X20329502Y15983572D01*
X20362463Y15950611D01*
X20425567Y15924472D01*
X20834410Y15672951D01*
X21610418Y15408776D01*
X22425670Y15323090D01*
X23095821Y15403000D01*
X23115488Y15403000D01*
X23123438Y15406293D01*
X23239646Y15420150D01*
X24011891Y15695134D01*
X24371085Y15923086D01*
X24437537Y15950611D01*
X24477622Y15990696D01*
X24704022Y16134374D01*
X25281641Y16716040D01*
X25412693Y16925767D01*
X25449389Y16962463D01*
X25476457Y17027811D01*
X25716038Y17411221D01*
X25985624Y18185366D01*
X25996650Y18283668D01*
X25997000Y18284512D01*
X25997000Y18286785D01*
X26071241Y18948661D01*
X31723358Y18948661D01*
X31803000Y18318229D01*
X31803000Y18284512D01*
X31809129Y18269716D01*
X31826099Y18135382D01*
X32106468Y17365076D01*
X32323044Y17029016D01*
X32350611Y16962463D01*
X32393709Y16919365D01*
X32550529Y16676028D01*
X33136213Y16102484D01*
X33329502Y15983572D01*
X33362463Y15950611D01*
X33425567Y15924472D01*
X33834410Y15672951D01*
X34610418Y15408776D01*
X35425670Y15323090D01*
X36095821Y15403000D01*
X36115488Y15403000D01*
X36123438Y15406293D01*
X36239646Y15420150D01*
X37011891Y15695134D01*
X37371085Y15923086D01*
X37437537Y15950611D01*
X37477622Y15990696D01*
X37704022Y16134374D01*
X38281641Y16716040D01*
X38412693Y16925767D01*
X38449389Y16962463D01*
X38476457Y17027811D01*
X38716038Y17411221D01*
X38985624Y18185366D01*
X38996650Y18283668D01*
X38997000Y18284512D01*
X38997000Y18286785D01*
X39071241Y18948661D01*
X44723358Y18948661D01*
X44803000Y18318229D01*
X44803000Y18284512D01*
X44809129Y18269716D01*
X44826099Y18135382D01*
X45106468Y17365076D01*
X45323044Y17029016D01*
X45350611Y16962463D01*
X45393709Y16919365D01*
X45550529Y16676028D01*
X46136213Y16102484D01*
X46329502Y15983572D01*
X46362463Y15950611D01*
X46425567Y15924472D01*
X46834410Y15672951D01*
X47610418Y15408776D01*
X48425670Y15323090D01*
X49095821Y15403000D01*
X49115488Y15403000D01*
X49123438Y15406293D01*
X49239646Y15420150D01*
X50011891Y15695134D01*
X50371085Y15923086D01*
X50437537Y15950611D01*
X50477622Y15990696D01*
X50704022Y16134374D01*
X51281641Y16716040D01*
X51412693Y16925767D01*
X51449389Y16962463D01*
X51476457Y17027811D01*
X51716038Y17411221D01*
X51985624Y18185366D01*
X51996650Y18283668D01*
X51997000Y18284512D01*
X51997000Y18286785D01*
X52071241Y18948661D01*
X57723358Y18948661D01*
X57803000Y18318229D01*
X57803000Y18284512D01*
X57809129Y18269716D01*
X57826099Y18135382D01*
X58106468Y17365076D01*
X58323044Y17029016D01*
X58350611Y16962463D01*
X58393709Y16919365D01*
X58550529Y16676028D01*
X59136213Y16102484D01*
X59329502Y15983572D01*
X59362463Y15950611D01*
X59425567Y15924472D01*
X59834410Y15672951D01*
X60610418Y15408776D01*
X61425670Y15323090D01*
X62095821Y15403000D01*
X62115488Y15403000D01*
X62123438Y15406293D01*
X62239646Y15420150D01*
X63011891Y15695134D01*
X63371085Y15923086D01*
X63437537Y15950611D01*
X63477622Y15990696D01*
X63704022Y16134374D01*
X64281641Y16716040D01*
X64412693Y16925767D01*
X64449389Y16962463D01*
X64476457Y17027811D01*
X64716038Y17411221D01*
X64985624Y18185366D01*
X64996650Y18283668D01*
X64997000Y18284512D01*
X64997000Y18286785D01*
X65077000Y19000000D01*
X65075566Y19102668D01*
X64997000Y19661695D01*
X64997000Y19715488D01*
X64985557Y19743113D01*
X64961480Y19914433D01*
X64670384Y20680749D01*
X64475969Y20973366D01*
X64449389Y21037537D01*
X64401551Y21085375D01*
X64216745Y21363530D01*
X63623111Y21928841D01*
X63462108Y22024818D01*
X63437537Y22049389D01*
X63382982Y22071986D01*
X62918985Y22348584D01*
X62139364Y22601898D01*
X61322995Y22676194D01*
X60729468Y22597000D01*
X60684512Y22597000D01*
X60663149Y22588151D01*
X60510453Y22567777D01*
X59742123Y22282038D01*
X59428224Y22076628D01*
X59362463Y22049389D01*
X59316766Y22003692D01*
X59056192Y21833177D01*
X58486751Y21243504D01*
X58379522Y21066448D01*
X58350611Y21037537D01*
X58325937Y20977968D01*
X58062102Y20542325D01*
X57803351Y19764491D01*
X57723358Y18948661D01*
X52071241Y18948661D01*
X52077000Y19000000D01*
X52075566Y19102668D01*
X51997000Y19661695D01*
X51997000Y19715488D01*
X51985557Y19743113D01*
X51961480Y19914433D01*
X51670384Y20680749D01*
X51475969Y20973366D01*
X51449389Y21037537D01*
X51401551Y21085375D01*
X51216745Y21363530D01*
X50623111Y21928841D01*
X50462108Y22024818D01*
X50437537Y22049389D01*
X50382982Y22071986D01*
X49918985Y22348584D01*
X49139364Y22601898D01*
X48322995Y22676194D01*
X47729468Y22597000D01*
X47684512Y22597000D01*
X47663149Y22588151D01*
X47510453Y22567777D01*
X46742123Y22282038D01*
X46428224Y22076628D01*
X46362463Y22049389D01*
X46316766Y22003692D01*
X46056192Y21833177D01*
X45486751Y21243504D01*
X45379522Y21066448D01*
X45350611Y21037537D01*
X45325937Y20977968D01*
X45062102Y20542325D01*
X44803351Y19764491D01*
X44723358Y18948661D01*
X39071241Y18948661D01*
X39077000Y19000000D01*
X39075566Y19102668D01*
X38997000Y19661695D01*
X38997000Y19715488D01*
X38985557Y19743113D01*
X38961480Y19914433D01*
X38670384Y20680749D01*
X38475969Y20973366D01*
X38449389Y21037537D01*
X38401551Y21085375D01*
X38216745Y21363530D01*
X37623111Y21928841D01*
X37462108Y22024818D01*
X37437537Y22049389D01*
X37382982Y22071986D01*
X36918985Y22348584D01*
X36139364Y22601898D01*
X35322995Y22676194D01*
X34729468Y22597000D01*
X34684512Y22597000D01*
X34663149Y22588151D01*
X34510453Y22567777D01*
X33742123Y22282038D01*
X33428224Y22076628D01*
X33362463Y22049389D01*
X33316766Y22003692D01*
X33056192Y21833177D01*
X32486751Y21243504D01*
X32379522Y21066448D01*
X32350611Y21037537D01*
X32325937Y20977968D01*
X32062102Y20542325D01*
X31803351Y19764491D01*
X31723358Y18948661D01*
X26071241Y18948661D01*
X26077000Y19000000D01*
X26075566Y19102668D01*
X25997000Y19661695D01*
X25997000Y19715488D01*
X25985557Y19743113D01*
X25961480Y19914433D01*
X25670384Y20680749D01*
X25475969Y20973366D01*
X25449389Y21037537D01*
X25401551Y21085375D01*
X25216745Y21363530D01*
X24623111Y21928841D01*
X24462108Y22024818D01*
X24437537Y22049389D01*
X24382982Y22071986D01*
X23918985Y22348584D01*
X23139364Y22601898D01*
X22322995Y22676194D01*
X21729468Y22597000D01*
X21684512Y22597000D01*
X21663149Y22588151D01*
X21510453Y22567777D01*
X20742123Y22282038D01*
X20428224Y22076628D01*
X20362463Y22049389D01*
X20316766Y22003692D01*
X20056192Y21833177D01*
X19486751Y21243504D01*
X19379522Y21066448D01*
X19350611Y21037537D01*
X19325937Y20977968D01*
X19062102Y20542325D01*
X18803351Y19764491D01*
X18723358Y18948661D01*
X13071241Y18948661D01*
X13077000Y19000000D01*
X13075566Y19102668D01*
X12997000Y19661695D01*
X12997000Y19715488D01*
X12985557Y19743113D01*
X12961480Y19914433D01*
X12670384Y20680749D01*
X12475969Y20973366D01*
X12449389Y21037537D01*
X12401551Y21085375D01*
X12216745Y21363530D01*
X11623111Y21928841D01*
X11462108Y22024818D01*
X11437537Y22049389D01*
X11382982Y22071986D01*
X10918985Y22348584D01*
X10139364Y22601898D01*
X9322995Y22676194D01*
X8729468Y22597000D01*
X8684512Y22597000D01*
X8663149Y22588151D01*
X8510453Y22567777D01*
X7742123Y22282038D01*
X7428224Y22076628D01*
X7362463Y22049389D01*
X7316766Y22003692D01*
X7056192Y21833177D01*
X6486751Y21243504D01*
X6379522Y21066448D01*
X6350611Y21037537D01*
X6325937Y20977968D01*
X6062102Y20542325D01*
X5803351Y19764491D01*
X5723358Y18948661D01*
X397000Y18948661D01*
X397000Y33948661D01*
X25223358Y33948661D01*
X25303000Y33318229D01*
X25303000Y33284512D01*
X25309129Y33269716D01*
X25326099Y33135382D01*
X25606468Y32365076D01*
X25823044Y32029016D01*
X25850611Y31962463D01*
X25893709Y31919365D01*
X26050529Y31676028D01*
X26636213Y31102484D01*
X26829502Y30983572D01*
X26862463Y30950611D01*
X26925567Y30924472D01*
X27334410Y30672951D01*
X28110418Y30408776D01*
X28925670Y30323090D01*
X29595821Y30403000D01*
X29615488Y30403000D01*
X29623438Y30406293D01*
X29739646Y30420150D01*
X30511891Y30695134D01*
X30871085Y30923086D01*
X30937537Y30950611D01*
X30977622Y30990696D01*
X31204022Y31134374D01*
X31781641Y31716040D01*
X31912693Y31925767D01*
X31949389Y31962463D01*
X31976457Y32027811D01*
X32216038Y32411221D01*
X32485624Y33185366D01*
X32496650Y33283668D01*
X32497000Y33284512D01*
X32497000Y33286785D01*
X32571241Y33948661D01*
X38223358Y33948661D01*
X38303000Y33318229D01*
X38303000Y33284512D01*
X38309129Y33269716D01*
X38326099Y33135382D01*
X38606468Y32365076D01*
X38823044Y32029016D01*
X38850611Y31962463D01*
X38893709Y31919365D01*
X39050529Y31676028D01*
X39636213Y31102484D01*
X39829502Y30983572D01*
X39862463Y30950611D01*
X39925567Y30924472D01*
X40334410Y30672951D01*
X41110418Y30408776D01*
X41925670Y30323090D01*
X42595821Y30403000D01*
X42615488Y30403000D01*
X42623438Y30406293D01*
X42739646Y30420150D01*
X43511891Y30695134D01*
X43871085Y30923086D01*
X43937537Y30950611D01*
X43977622Y30990696D01*
X44204022Y31134374D01*
X44781641Y31716040D01*
X44912693Y31925767D01*
X44949389Y31962463D01*
X44976457Y32027811D01*
X45216038Y32411221D01*
X45485624Y33185366D01*
X45496650Y33283668D01*
X45497000Y33284512D01*
X45497000Y33286785D01*
X45577000Y34000000D01*
X45575566Y34102668D01*
X45497000Y34661695D01*
X45497000Y34715488D01*
X45485557Y34743113D01*
X45461480Y34914433D01*
X45170384Y35680749D01*
X44975969Y35973366D01*
X44949389Y36037537D01*
X44901551Y36085375D01*
X44716745Y36363530D01*
X44123111Y36928841D01*
X43962108Y37024818D01*
X43937537Y37049389D01*
X43882982Y37071986D01*
X43418985Y37348584D01*
X42639364Y37601898D01*
X41822995Y37676194D01*
X41229468Y37597000D01*
X41184512Y37597000D01*
X41163149Y37588151D01*
X41010453Y37567777D01*
X40242123Y37282038D01*
X39928224Y37076628D01*
X39862463Y37049389D01*
X39816766Y37003692D01*
X39556192Y36833177D01*
X38986751Y36243504D01*
X38879522Y36066448D01*
X38850611Y36037537D01*
X38825937Y35977968D01*
X38562102Y35542325D01*
X38303351Y34764491D01*
X38223358Y33948661D01*
X32571241Y33948661D01*
X32577000Y34000000D01*
X32575566Y34102668D01*
X32497000Y34661695D01*
X32497000Y34715488D01*
X32485557Y34743113D01*
X32461480Y34914433D01*
X32170384Y35680749D01*
X31975969Y35973366D01*
X31949389Y36037537D01*
X31901551Y36085375D01*
X31716745Y36363530D01*
X31123111Y36928841D01*
X30962108Y37024818D01*
X30937537Y37049389D01*
X30882982Y37071986D01*
X30418985Y37348584D01*
X29639364Y37601898D01*
X28822995Y37676194D01*
X28229468Y37597000D01*
X28184512Y37597000D01*
X28163149Y37588151D01*
X28010453Y37567777D01*
X27242123Y37282038D01*
X26928224Y37076628D01*
X26862463Y37049389D01*
X26816766Y37003692D01*
X26556192Y36833177D01*
X25986751Y36243504D01*
X25879522Y36066448D01*
X25850611Y36037537D01*
X25825937Y35977968D01*
X25562102Y35542325D01*
X25303351Y34764491D01*
X25223358Y33948661D01*
X397000Y33948661D01*
X397000Y52000000D01*
X8723000Y52000000D01*
X8803000Y51238847D01*
X8803000Y51185056D01*
X8810576Y51166766D01*
X8814277Y51131553D01*
X9084121Y50301061D01*
X9385089Y49779769D01*
X9426731Y49679236D01*
X9465535Y49640432D01*
X9520736Y49544821D01*
X10105041Y48895884D01*
X10489166Y48616801D01*
X10579236Y48526731D01*
X10658097Y48494066D01*
X10811500Y48382612D01*
X11609236Y48027437D01*
X11969522Y47950856D01*
X12085056Y47903000D01*
X12194666Y47903000D01*
X12463385Y47845882D01*
X13336615Y47845882D01*
X13605334Y47903000D01*
X13714944Y47903000D01*
X13830478Y47950856D01*
X14190764Y48027437D01*
X14988500Y48382612D01*
X15141903Y48494066D01*
X15220764Y48526731D01*
X15310834Y48616801D01*
X15694959Y48895884D01*
X16279264Y49544821D01*
X16334465Y49640432D01*
X16373269Y49679236D01*
X16414911Y49779769D01*
X16715879Y50301061D01*
X16985723Y51131553D01*
X16989424Y51166766D01*
X16997000Y51185056D01*
X16997000Y51238847D01*
X17077000Y52000000D01*
X53723000Y52000000D01*
X53803000Y51238847D01*
X53803000Y51185056D01*
X53810576Y51166766D01*
X53814277Y51131553D01*
X54084121Y50301061D01*
X54385089Y49779769D01*
X54426731Y49679236D01*
X54465535Y49640432D01*
X54520736Y49544821D01*
X55105041Y48895884D01*
X55489166Y48616801D01*
X55579236Y48526731D01*
X55658097Y48494066D01*
X55811500Y48382612D01*
X56609236Y48027437D01*
X56969522Y47950856D01*
X57085056Y47903000D01*
X57194666Y47903000D01*
X57463385Y47845882D01*
X58336615Y47845882D01*
X58605334Y47903000D01*
X58714944Y47903000D01*
X58830478Y47950856D01*
X59190764Y48027437D01*
X59988500Y48382612D01*
X60141903Y48494066D01*
X60220764Y48526731D01*
X60310834Y48616801D01*
X60694959Y48895884D01*
X61279264Y49544821D01*
X61334465Y49640432D01*
X61373269Y49679236D01*
X61414911Y49779769D01*
X61715879Y50301061D01*
X61985723Y51131553D01*
X61989424Y51166766D01*
X61997000Y51185056D01*
X61997000Y51238847D01*
X62077000Y52000000D01*
X61997000Y52761153D01*
X61997000Y52814944D01*
X61989424Y52833234D01*
X61985723Y52868447D01*
X61715879Y53698939D01*
X61414911Y54220231D01*
X61373269Y54320764D01*
X61334465Y54359568D01*
X61279264Y54455179D01*
X60694959Y55104116D01*
X60310834Y55383199D01*
X60220764Y55473269D01*
X60141903Y55505934D01*
X59988500Y55617388D01*
X59190764Y55972563D01*
X58830478Y56049144D01*
X58714944Y56097000D01*
X58605334Y56097000D01*
X58336615Y56154118D01*
X57463385Y56154118D01*
X57194666Y56097000D01*
X57085056Y56097000D01*
X56969522Y56049144D01*
X56609236Y55972563D01*
X55811500Y55617388D01*
X55658097Y55505934D01*
X55579236Y55473269D01*
X55489166Y55383199D01*
X55105041Y55104116D01*
X54520736Y54455179D01*
X54465535Y54359568D01*
X54426731Y54320764D01*
X54385089Y54220231D01*
X54084121Y53698939D01*
X53814277Y52868447D01*
X53810576Y52833234D01*
X53803000Y52814944D01*
X53803000Y52761153D01*
X53723000Y52000000D01*
X17077000Y52000000D01*
X16997000Y52761153D01*
X16997000Y52814944D01*
X16989424Y52833234D01*
X16985723Y52868447D01*
X16715879Y53698939D01*
X16414911Y54220231D01*
X16373269Y54320764D01*
X16334465Y54359568D01*
X16279264Y54455179D01*
X15694959Y55104116D01*
X15310834Y55383199D01*
X15220764Y55473269D01*
X15141903Y55505934D01*
X14988500Y55617388D01*
X14190764Y55972563D01*
X13830478Y56049144D01*
X13714944Y56097000D01*
X13605334Y56097000D01*
X13336615Y56154118D01*
X12463385Y56154118D01*
X12194666Y56097000D01*
X12085056Y56097000D01*
X11969522Y56049144D01*
X11609236Y55972563D01*
X10811500Y55617388D01*
X10658097Y55505934D01*
X10579236Y55473269D01*
X10489166Y55383199D01*
X10105041Y55104116D01*
X9520736Y54455179D01*
X9465535Y54359568D01*
X9426731Y54320764D01*
X9385089Y54220231D01*
X9084121Y53698939D01*
X8814277Y52868447D01*
X8810576Y52833234D01*
X8803000Y52814944D01*
X8803000Y52761153D01*
X8723000Y52000000D01*
X397000Y52000000D01*
X397000Y64500000D01*
X31223000Y64500000D01*
X31303000Y63738847D01*
X31303000Y63685056D01*
X31310576Y63666766D01*
X31314277Y63631553D01*
X31584121Y62801061D01*
X31885089Y62279769D01*
X31926731Y62179236D01*
X31965535Y62140432D01*
X32020736Y62044821D01*
X32605041Y61395884D01*
X32989166Y61116801D01*
X33079236Y61026731D01*
X33158097Y60994066D01*
X33311500Y60882612D01*
X34109236Y60527437D01*
X34469522Y60450856D01*
X34585056Y60403000D01*
X34694666Y60403000D01*
X34963385Y60345882D01*
X35836615Y60345882D01*
X36105334Y60403000D01*
X36214944Y60403000D01*
X36330478Y60450856D01*
X36690764Y60527437D01*
X37488500Y60882612D01*
X37641903Y60994066D01*
X37720764Y61026731D01*
X37810834Y61116801D01*
X38194959Y61395884D01*
X38779264Y62044821D01*
X38834465Y62140432D01*
X38873269Y62179236D01*
X38914911Y62279769D01*
X39215879Y62801061D01*
X39485723Y63631553D01*
X39489424Y63666766D01*
X39497000Y63685056D01*
X39497000Y63738847D01*
X39577000Y64500000D01*
X39497000Y65261153D01*
X39497000Y65314944D01*
X39489424Y65333234D01*
X39485723Y65368447D01*
X39215879Y66198939D01*
X38914911Y66720231D01*
X38873269Y66820764D01*
X38834465Y66859568D01*
X38779264Y66955179D01*
X38194959Y67604116D01*
X37810834Y67883199D01*
X37720764Y67973269D01*
X37641903Y68005934D01*
X37488500Y68117388D01*
X36690764Y68472563D01*
X36330478Y68549144D01*
X36214944Y68597000D01*
X36105334Y68597000D01*
X35836615Y68654118D01*
X34963385Y68654118D01*
X34694666Y68597000D01*
X34585056Y68597000D01*
X34469522Y68549144D01*
X34109236Y68472563D01*
X33311500Y68117388D01*
X33158097Y68005934D01*
X33079236Y67973269D01*
X32989166Y67883199D01*
X32605041Y67604116D01*
X32020736Y66955179D01*
X31965535Y66859568D01*
X31926731Y66820764D01*
X31885089Y66720231D01*
X31584121Y66198939D01*
X31314277Y65368447D01*
X31310576Y65333234D01*
X31303000Y65314944D01*
X31303000Y65261153D01*
X31223000Y64500000D01*
X397000Y64500000D01*
X397000Y77000000D01*
X8723000Y77000000D01*
X8803000Y76238847D01*
X8803000Y76185056D01*
X8810576Y76166766D01*
X8814277Y76131553D01*
X9084121Y75301061D01*
X9385089Y74779769D01*
X9426731Y74679236D01*
X9465535Y74640432D01*
X9520736Y74544821D01*
X10105041Y73895884D01*
X10489166Y73616801D01*
X10579236Y73526731D01*
X10658097Y73494066D01*
X10811500Y73382612D01*
X11609236Y73027437D01*
X11969522Y72950856D01*
X12085056Y72903000D01*
X12194666Y72903000D01*
X12463385Y72845882D01*
X13336615Y72845882D01*
X13605334Y72903000D01*
X13714944Y72903000D01*
X13830478Y72950856D01*
X14190764Y73027437D01*
X14988500Y73382612D01*
X15141903Y73494066D01*
X15220764Y73526731D01*
X15310834Y73616801D01*
X15694959Y73895884D01*
X16279264Y74544821D01*
X16334465Y74640432D01*
X16373269Y74679236D01*
X16414911Y74779769D01*
X16715879Y75301061D01*
X16985723Y76131553D01*
X16989424Y76166766D01*
X16997000Y76185056D01*
X16997000Y76238847D01*
X17077000Y77000000D01*
X53723000Y77000000D01*
X53803000Y76238847D01*
X53803000Y76185056D01*
X53810576Y76166766D01*
X53814277Y76131553D01*
X54084121Y75301061D01*
X54385089Y74779769D01*
X54426731Y74679236D01*
X54465535Y74640432D01*
X54520736Y74544821D01*
X55105041Y73895884D01*
X55489166Y73616801D01*
X55579236Y73526731D01*
X55658097Y73494066D01*
X55811500Y73382612D01*
X56609236Y73027437D01*
X56969522Y72950856D01*
X57085056Y72903000D01*
X57194666Y72903000D01*
X57463385Y72845882D01*
X58336615Y72845882D01*
X58605334Y72903000D01*
X58714944Y72903000D01*
X58830478Y72950856D01*
X59190764Y73027437D01*
X59988500Y73382612D01*
X60141903Y73494066D01*
X60220764Y73526731D01*
X60310834Y73616801D01*
X60694959Y73895884D01*
X61279264Y74544821D01*
X61334465Y74640432D01*
X61373269Y74679236D01*
X61414911Y74779769D01*
X61715879Y75301061D01*
X61985723Y76131553D01*
X61989424Y76166766D01*
X61997000Y76185056D01*
X61997000Y76238847D01*
X62077000Y77000000D01*
X61997000Y77761153D01*
X61997000Y77814944D01*
X61989424Y77833234D01*
X61985723Y77868447D01*
X61715879Y78698939D01*
X61414911Y79220231D01*
X61373269Y79320764D01*
X61334465Y79359568D01*
X61279264Y79455179D01*
X60694959Y80104116D01*
X60310834Y80383199D01*
X60220764Y80473269D01*
X60141903Y80505934D01*
X59988500Y80617388D01*
X59190764Y80972563D01*
X58830478Y81049144D01*
X58714944Y81097000D01*
X58605334Y81097000D01*
X58336615Y81154118D01*
X57463385Y81154118D01*
X57194666Y81097000D01*
X57085056Y81097000D01*
X56969522Y81049144D01*
X56609236Y80972563D01*
X55811500Y80617388D01*
X55658097Y80505934D01*
X55579236Y80473269D01*
X55489166Y80383199D01*
X55105041Y80104116D01*
X54520736Y79455179D01*
X54465535Y79359568D01*
X54426731Y79320764D01*
X54385089Y79220231D01*
X54084121Y78698939D01*
X53814277Y77868447D01*
X53810576Y77833234D01*
X53803000Y77814944D01*
X53803000Y77761153D01*
X53723000Y77000000D01*
X17077000Y77000000D01*
X16997000Y77761153D01*
X16997000Y77814944D01*
X16989424Y77833234D01*
X16985723Y77868447D01*
X16715879Y78698939D01*
X16414911Y79220231D01*
X16373269Y79320764D01*
X16334465Y79359568D01*
X16279264Y79455179D01*
X15694959Y80104116D01*
X15310834Y80383199D01*
X15220764Y80473269D01*
X15141903Y80505934D01*
X14988500Y80617388D01*
X14190764Y80972563D01*
X13830478Y81049144D01*
X13714944Y81097000D01*
X13605334Y81097000D01*
X13336615Y81154118D01*
X12463385Y81154118D01*
X12194666Y81097000D01*
X12085056Y81097000D01*
X11969522Y81049144D01*
X11609236Y80972563D01*
X10811500Y80617388D01*
X10658097Y80505934D01*
X10579236Y80473269D01*
X10489166Y80383199D01*
X10105041Y80104116D01*
X9520736Y79455179D01*
X9465535Y79359568D01*
X9426731Y79320764D01*
X9385089Y79220231D01*
X9084121Y78698939D01*
X8814277Y77868447D01*
X8810576Y77833234D01*
X8803000Y77814944D01*
X8803000Y77761153D01*
X8723000Y77000000D01*
X397000Y77000000D01*
X397000Y95948661D01*
X9223358Y95948661D01*
X9303000Y95318229D01*
X9303000Y95284512D01*
X9309129Y95269716D01*
X9326099Y95135382D01*
X9606468Y94365076D01*
X9823044Y94029016D01*
X9850611Y93962463D01*
X9893709Y93919365D01*
X10050529Y93676028D01*
X10636213Y93102484D01*
X10829502Y92983572D01*
X10862463Y92950611D01*
X10925567Y92924472D01*
X11334410Y92672951D01*
X12110418Y92408776D01*
X12925670Y92323090D01*
X13595821Y92403000D01*
X13615488Y92403000D01*
X13623438Y92406293D01*
X13739646Y92420150D01*
X14511891Y92695134D01*
X14871085Y92923086D01*
X14937537Y92950611D01*
X14977622Y92990696D01*
X15204022Y93134374D01*
X15781641Y93716040D01*
X15912693Y93925767D01*
X15949389Y93962463D01*
X15976457Y94027811D01*
X16216038Y94411221D01*
X16485624Y95185366D01*
X16496650Y95283668D01*
X16497000Y95284512D01*
X16497000Y95286785D01*
X16571241Y95948661D01*
X54223358Y95948661D01*
X54303000Y95318229D01*
X54303000Y95284512D01*
X54309129Y95269716D01*
X54326099Y95135382D01*
X54606468Y94365076D01*
X54823044Y94029016D01*
X54850611Y93962463D01*
X54893709Y93919365D01*
X55050529Y93676028D01*
X55636213Y93102484D01*
X55829502Y92983572D01*
X55862463Y92950611D01*
X55925567Y92924472D01*
X56334410Y92672951D01*
X57110418Y92408776D01*
X57925670Y92323090D01*
X58595821Y92403000D01*
X58615488Y92403000D01*
X58623438Y92406293D01*
X58739646Y92420150D01*
X59511891Y92695134D01*
X59871085Y92923086D01*
X59937537Y92950611D01*
X59977622Y92990696D01*
X60204022Y93134374D01*
X60781641Y93716040D01*
X60912693Y93925767D01*
X60949389Y93962463D01*
X60976457Y94027811D01*
X61216038Y94411221D01*
X61485624Y95185366D01*
X61496650Y95283668D01*
X61497000Y95284512D01*
X61497000Y95286785D01*
X61577000Y96000000D01*
X61575566Y96102668D01*
X61497000Y96661695D01*
X61497000Y96715488D01*
X61485557Y96743113D01*
X61461480Y96914433D01*
X61170384Y97680749D01*
X60975969Y97973366D01*
X60949389Y98037537D01*
X60901551Y98085375D01*
X60716745Y98363530D01*
X60123111Y98928841D01*
X59962108Y99024818D01*
X59937537Y99049389D01*
X59882982Y99071986D01*
X59418985Y99348584D01*
X58639364Y99601898D01*
X57822995Y99676194D01*
X57229468Y99597000D01*
X57184512Y99597000D01*
X57163149Y99588151D01*
X57010453Y99567777D01*
X56242123Y99282038D01*
X55928224Y99076628D01*
X55862463Y99049389D01*
X55816766Y99003692D01*
X55556192Y98833177D01*
X54986751Y98243504D01*
X54879522Y98066448D01*
X54850611Y98037537D01*
X54825937Y97977968D01*
X54562102Y97542325D01*
X54303351Y96764491D01*
X54223358Y95948661D01*
X16571241Y95948661D01*
X16577000Y96000000D01*
X16575566Y96102668D01*
X16497000Y96661695D01*
X16497000Y96715488D01*
X16485557Y96743113D01*
X16461480Y96914433D01*
X16170384Y97680749D01*
X15975969Y97973366D01*
X15949389Y98037537D01*
X15901551Y98085375D01*
X15716745Y98363530D01*
X15123111Y98928841D01*
X14962108Y99024818D01*
X14937537Y99049389D01*
X14882982Y99071986D01*
X14418985Y99348584D01*
X13639364Y99601898D01*
X12822995Y99676194D01*
X12229468Y99597000D01*
X12184512Y99597000D01*
X12163149Y99588151D01*
X12010453Y99567777D01*
X11242123Y99282038D01*
X10928224Y99076628D01*
X10862463Y99049389D01*
X10816766Y99003692D01*
X10556192Y98833177D01*
X9986751Y98243504D01*
X9879522Y98066448D01*
X9850611Y98037537D01*
X9825937Y97977968D01*
X9562102Y97542325D01*
X9303351Y96764491D01*
X9223358Y95948661D01*
X397000Y95948661D01*
X397000Y105000000D01*
X31223000Y105000000D01*
X31303000Y104238847D01*
X31303000Y104185056D01*
X31310576Y104166766D01*
X31314277Y104131553D01*
X31584121Y103301061D01*
X31885089Y102779769D01*
X31926731Y102679236D01*
X31965535Y102640432D01*
X32020736Y102544821D01*
X32605041Y101895884D01*
X32989166Y101616801D01*
X33079236Y101526731D01*
X33158097Y101494066D01*
X33311500Y101382612D01*
X34109236Y101027437D01*
X34469522Y100950856D01*
X34585056Y100903000D01*
X34694666Y100903000D01*
X34963385Y100845882D01*
X35836615Y100845882D01*
X36105334Y100903000D01*
X36214944Y100903000D01*
X36330478Y100950856D01*
X36690764Y101027437D01*
X37488500Y101382612D01*
X37641903Y101494066D01*
X37720764Y101526731D01*
X37810834Y101616801D01*
X38194959Y101895884D01*
X38779264Y102544821D01*
X38834465Y102640432D01*
X38873269Y102679236D01*
X38914911Y102779769D01*
X39215879Y103301061D01*
X39485723Y104131553D01*
X39489424Y104166766D01*
X39497000Y104185056D01*
X39497000Y104238847D01*
X39577000Y105000000D01*
X39497000Y105761153D01*
X39497000Y105814944D01*
X39489424Y105833234D01*
X39485723Y105868447D01*
X39215879Y106698939D01*
X38914911Y107220231D01*
X38873269Y107320764D01*
X38834465Y107359568D01*
X38779264Y107455179D01*
X38194959Y108104116D01*
X37810834Y108383199D01*
X37720764Y108473269D01*
X37641903Y108505934D01*
X37488500Y108617388D01*
X36690764Y108972563D01*
X36330478Y109049144D01*
X36214944Y109097000D01*
X36105334Y109097000D01*
X35836615Y109154118D01*
X34963385Y109154118D01*
X34694666Y109097000D01*
X34585056Y109097000D01*
X34469522Y109049144D01*
X34109236Y108972563D01*
X33311500Y108617388D01*
X33158097Y108505934D01*
X33079236Y108473269D01*
X32989166Y108383199D01*
X32605041Y108104116D01*
X32020736Y107455179D01*
X31965535Y107359568D01*
X31926731Y107320764D01*
X31885089Y107220231D01*
X31584121Y106698939D01*
X31314277Y105868447D01*
X31310576Y105833234D01*
X31303000Y105814944D01*
X31303000Y105761153D01*
X31223000Y105000000D01*
X397000Y105000000D01*
X397000Y112948661D01*
X54223358Y112948661D01*
X54303000Y112318229D01*
X54303000Y112284512D01*
X54309129Y112269716D01*
X54326099Y112135382D01*
X54606468Y111365076D01*
X54823044Y111029016D01*
X54850611Y110962463D01*
X54893709Y110919365D01*
X55050529Y110676028D01*
X55636213Y110102484D01*
X55829502Y109983572D01*
X55862463Y109950611D01*
X55925567Y109924472D01*
X56334410Y109672951D01*
X57110418Y109408776D01*
X57925670Y109323090D01*
X58595821Y109403000D01*
X58615488Y109403000D01*
X58623438Y109406293D01*
X58739646Y109420150D01*
X59511891Y109695134D01*
X59871085Y109923086D01*
X59937537Y109950611D01*
X59977622Y109990696D01*
X60204022Y110134374D01*
X60781641Y110716040D01*
X60912693Y110925767D01*
X60949389Y110962463D01*
X60976457Y111027811D01*
X61216038Y111411221D01*
X61485624Y112185366D01*
X61496650Y112283668D01*
X61497000Y112284512D01*
X61497000Y112286785D01*
X61577000Y113000000D01*
X61575566Y113102668D01*
X61497000Y113661695D01*
X61497000Y113715488D01*
X61485557Y113743113D01*
X61461480Y113914433D01*
X61170384Y114680749D01*
X60975969Y114973366D01*
X60949389Y115037537D01*
X60901551Y115085375D01*
X60716745Y115363530D01*
X60123111Y115928841D01*
X59962108Y116024818D01*
X59937537Y116049389D01*
X59882982Y116071986D01*
X59418985Y116348584D01*
X58639364Y116601898D01*
X57822995Y116676194D01*
X57229468Y116597000D01*
X57184512Y116597000D01*
X57163149Y116588151D01*
X57010453Y116567777D01*
X56242123Y116282038D01*
X55928224Y116076628D01*
X55862463Y116049389D01*
X55816766Y116003692D01*
X55556192Y115833177D01*
X54986751Y115243504D01*
X54879522Y115066448D01*
X54850611Y115037537D01*
X54825937Y114977968D01*
X54562102Y114542325D01*
X54303351Y113764491D01*
X54223358Y112948661D01*
X397000Y112948661D01*
X397000Y115500000D01*
X10873000Y115500000D01*
X10972208Y114873623D01*
X11260123Y114308559D01*
X11708559Y113860123D01*
X12273623Y113572208D01*
X12900000Y113473000D01*
X13526377Y113572208D01*
X14091441Y113860123D01*
X14539877Y114308559D01*
X14827792Y114873623D01*
X14927000Y115500000D01*
X14827792Y116126377D01*
X14539877Y116691441D01*
X14091441Y117139877D01*
X13526377Y117427792D01*
X12900000Y117527000D01*
X12273623Y117427792D01*
X11708559Y117139877D01*
X11260123Y116691441D01*
X10972208Y116126377D01*
X10873000Y115500000D01*
X397000Y115500000D01*
X397000Y125563669D01*
X4598011Y125563669D01*
X4598011Y125436331D01*
X4676321Y124941905D01*
X4676321Y124941904D01*
X4715670Y124820799D01*
X4942933Y124374770D01*
X5017781Y124271752D01*
X5371752Y123917780D01*
X5474770Y123842933D01*
X5920799Y123615670D01*
X6041904Y123576321D01*
X6528449Y123499259D01*
X6559917Y123493000D01*
X8440083Y123493000D01*
X8471551Y123499259D01*
X8958096Y123576321D01*
X9079201Y123615670D01*
X9525230Y123842933D01*
X9628248Y123917781D01*
X9982220Y124271752D01*
X10057067Y124374770D01*
X10284330Y124820799D01*
X10323679Y124941904D01*
X10323679Y124941905D01*
X10401989Y125436331D01*
X10401989Y125563669D01*
X60498011Y125563669D01*
X60498011Y125436331D01*
X60576321Y124941905D01*
X60576321Y124941904D01*
X60615670Y124820799D01*
X60842933Y124374770D01*
X60917781Y124271752D01*
X61271752Y123917780D01*
X61374770Y123842933D01*
X61820799Y123615670D01*
X61941904Y123576321D01*
X62428449Y123499259D01*
X62459917Y123493000D01*
X64340083Y123493000D01*
X64371551Y123499259D01*
X64858096Y123576321D01*
X64979201Y123615670D01*
X65425230Y123842933D01*
X65528248Y123917781D01*
X65882220Y124271752D01*
X65957067Y124374770D01*
X66184330Y124820799D01*
X66223679Y124941904D01*
X66223679Y124941905D01*
X66301989Y125436331D01*
X66301989Y125563669D01*
X66223679Y126058096D01*
X66217272Y126077816D01*
X66184330Y126179201D01*
X65957067Y126625230D01*
X65904188Y126698011D01*
X65882220Y126728248D01*
X65528248Y127082219D01*
X65425230Y127157067D01*
X64979201Y127384330D01*
X64858096Y127423679D01*
X64371551Y127500741D01*
X64340083Y127507000D01*
X62459917Y127507000D01*
X62428449Y127500741D01*
X61941904Y127423679D01*
X61820799Y127384330D01*
X61374770Y127157067D01*
X61271752Y127082220D01*
X60917781Y126728248D01*
X60842933Y126625230D01*
X60615670Y126179201D01*
X60576321Y126058096D01*
X60498011Y125563669D01*
X10401989Y125563669D01*
X10323679Y126058096D01*
X10317272Y126077816D01*
X10284330Y126179201D01*
X10057067Y126625230D01*
X10004188Y126698011D01*
X9982220Y126728248D01*
X9628248Y127082219D01*
X9525230Y127157067D01*
X9079201Y127384330D01*
X8958096Y127423679D01*
X8471551Y127500741D01*
X8440083Y127507000D01*
X6559917Y127507000D01*
X6528449Y127500741D01*
X6041904Y127423679D01*
X5920799Y127384330D01*
X5474770Y127157067D01*
X5371752Y127082220D01*
X5017781Y126728248D01*
X4942933Y126625230D01*
X4715670Y126179201D01*
X4676321Y126058096D01*
X4598011Y125563669D01*
X397000Y125563669D01*
X396999Y128103000D01*
X70403001Y128103000D01*
X70403000Y397000D01*
M02*
