M48
;DRILL file {KiCad (2016-08-20 BZR 7083)-product} date Sat Sep 29 15:02:58 2018
;FORMAT={3:3/ absolute / metric / suppress leading zeros}
FMAT,2
METRIC,TZ
T1C0.400
T2C0.700
T3C0.800
T4C0.900
T5C1.000
T6C3.200
%
G90
G05
M71
T1
X1300Y15800
X1600Y42500
X1800Y56600
X2000Y1500
X3200Y7500
X3300Y37500
X4600Y42100
X5000Y46900
X5200Y50800
X7600Y46500
X9400Y27400
X9400Y26100
X10300Y10400
X10900Y47600
X11000Y36200
X11000Y33900
X11300Y39300
X11900Y22000
X12900Y7500
X13600Y10100
X13700Y33400
X13800Y47600
X14000Y41100
X14200Y13000
X15400Y40600
X15900Y56500
X15900Y7500
X15900Y5700
X16400Y53200
X16500Y43900
X16500Y13500
X17000Y21500
X18000Y41300
X18100Y4900
X18100Y1300
X19000Y39900
X20200Y56500
X21000Y42500
X21500Y7800
X22900Y7600
X23500Y22600
X23800Y19900
X24400Y7800
X26000Y1300
X26400Y35400
X26600Y47700
X27200Y54100
X27900Y7800
X28200Y56700
X28500Y42300
X29400Y36100
X30900Y2300
X31700Y33800
X31900Y22100
X32900Y54400
X34200Y47000
X35700Y45200
X36200Y2300
X36700Y37300
X36700Y31700
X37100Y56000
X38500Y53900
X38600Y4700
X38900Y37900
X39000Y13300
X39400Y19600
X39700Y7700
X39800Y49000
X40200Y1200
X42700Y40500
X42700Y19800
X42800Y36300
X43800Y49000
X43800Y44900
X44700Y26000
X44700Y7700
X45000Y27700
X46800Y53600
X47000Y27700
X47200Y56600
X47400Y6900
X47500Y28900
X49300Y17300
X49400Y38300
X49600Y49000
X49900Y28500
X50300Y20200
X50500Y36300
X50600Y40700
X53100Y47100
X53200Y39000
X53200Y7100
X53300Y8600
X53400Y43700
X53400Y3900
X53500Y29900
X53500Y21200
X54100Y25600
X54200Y27900
X54700Y11000
X55900Y34700
X56000Y37700
X56900Y30900
X57400Y1600
X58100Y6600
X58300Y17600
X58300Y9800
X60300Y49000
X61300Y31900
X63100Y18800
X65100Y19100
X65700Y25600
X67500Y56500
X67500Y50200
T2
X25165Y21170
X25165Y18630
X26435Y19900
X29165Y21170
X29165Y18630
X30435Y19900
X54930Y8465
X56200Y9735
X57470Y8465
T3
X11860Y3500
X16940Y3500
X18800Y22800
X18800Y15200
X18900Y35240
X18900Y30160
X20200Y53040
X20200Y47960
X21300Y33240
X21300Y28160
X22300Y53040
X22300Y47960
X23660Y29300
X25160Y16200
X25160Y13800
X28740Y29300
X30240Y16200
X30240Y13800
X37500Y11000
X37500Y3400
X39800Y11000
X39800Y3400
X42760Y25800
X46160Y32300
X47840Y25800
X48260Y52100
X51240Y32300
X53340Y52100
X54760Y38700
X56000Y29000
X56000Y26700
X59760Y11100
X59760Y8500
X59840Y38700
X63600Y29000
X63600Y26700
X64840Y11100
X64840Y8500
T4
X4700Y48800
X6150Y44200
X8650Y44200
X10000Y37900
X12580Y45510
X12580Y37890
X15120Y45510
X15120Y37890
X17660Y45510
X17660Y37890
X19480Y11110
X19480Y3490
X20200Y45510
X20200Y37890
X21300Y35300
X22020Y11110
X22020Y3490
X22740Y45510
X22740Y37890
X24560Y11110
X24560Y3490
X25280Y45510
X25280Y37890
X27100Y11110
X27100Y3490
X27820Y45510
X27820Y37890
X29640Y11110
X29640Y3490
X30500Y37900
X32180Y11110
X32180Y3490
X34720Y11110
X34720Y3490
X36480Y42510
X36480Y34890
X38000Y24050
X38000Y21550
X39020Y42510
X39020Y34890
X40200Y15400
X41560Y42510
X41560Y34890
X42790Y23010
X42790Y15390
X43900Y54550
X43900Y52050
X44100Y42510
X44100Y34890
X45330Y23010
X45330Y15390
X46640Y42510
X46640Y34890
X47870Y23010
X47870Y15390
X48000Y12200
X49180Y42510
X49180Y34890
X50410Y23010
X50410Y15390
X51700Y29250
X51700Y26750
X51720Y42510
X51720Y34890
X55000Y30800
X55800Y15050
X55800Y12550
T5
X1500Y40430
X1500Y37890
X1500Y35350
X1500Y32810
X1500Y30270
X1500Y27730
X1500Y25190
X1500Y22650
X1500Y20110
X1500Y17570
X5300Y34900
X5300Y31900
X5300Y28900
X5300Y25900
X5300Y22900
X5300Y19900
X6600Y9600
X7900Y54800
X7900Y51800
X7900Y48800
X10300Y17300
X10300Y12300
X15300Y34900
X15300Y31900
X15300Y28900
X15300Y25900
X15300Y22900
X15300Y19900
X15300Y14800
X16600Y9600
X17900Y54800
X17900Y51800
X17900Y48800
X21800Y24000
X21800Y14000
X23700Y34900
X23700Y31900
X23700Y26800
X25200Y54800
X25200Y51800
X25200Y48800
X33200Y24000
X33200Y14000
X33700Y34900
X33700Y31900
X33700Y26800
X35200Y54800
X35200Y51800
X35200Y48800
X41800Y48600
X41800Y45600
X42500Y12200
X42500Y2200
X45500Y12200
X45500Y2200
X49000Y54800
X51400Y12200
X51400Y2200
X51800Y48600
X51800Y45600
X53500Y19300
X54400Y48600
X54400Y45600
X54700Y36200
X54700Y33200
X54900Y5300
X55000Y2200
X56000Y24300
X58500Y19300
X59000Y54800
X61200Y24200
X61200Y14200
X64200Y24200
X64200Y14200
X64400Y48600
X64400Y45600
X64700Y36200
X64700Y33200
X64900Y5300
X65000Y2200
X67500Y40430
X67500Y37890
X67500Y35350
X67500Y32810
X67500Y30270
X67500Y27730
X67500Y25190
X67500Y22650
X67500Y20110
X67500Y17570
T6
X40500Y30000
T0
M30
