G04 #@! TF.FileFunction,Soldermask,Top*
%FSLAX46Y46*%
G04 Gerber Fmt 4.6, Leading zero omitted, Abs format (unit mm)*
G04 Created by KiCad (PCBNEW (2016-08-20 BZR 7083)-product) date Sat Sep 29 15:02:56 2018*
%MOMM*%
%LPD*%
G01*
G04 APERTURE LIST*
%ADD10C,0.100000*%
%ADD11C,1.700000*%
%ADD12R,1.800000X1.800000*%
%ADD13C,1.800000*%
%ADD14R,1.800000X2.400000*%
%ADD15O,1.800000X2.400000*%
%ADD16C,1.400000*%
%ADD17C,2.700000*%
%ADD18C,5.200000*%
%ADD19C,2.200000*%
G04 APERTURE END LIST*
D10*
D11*
X18900000Y35240000D03*
X18900000Y30160000D03*
X20200000Y53040000D03*
X20200000Y47960000D03*
X16940000Y3500000D03*
X11860000Y3500000D03*
D12*
X55800000Y12550000D03*
D13*
X55800000Y15050000D03*
D14*
X27820000Y37890000D03*
D15*
X25280000Y37890000D03*
X22740000Y37890000D03*
X20200000Y37890000D03*
X17660000Y37890000D03*
X15120000Y37890000D03*
X12580000Y37890000D03*
X12580000Y45510000D03*
X15120000Y45510000D03*
X17660000Y45510000D03*
X20200000Y45510000D03*
X22740000Y45510000D03*
X25280000Y45510000D03*
X27820000Y45510000D03*
D14*
X19480000Y11110000D03*
D15*
X22020000Y11110000D03*
X24560000Y11110000D03*
X27100000Y11110000D03*
X29640000Y11110000D03*
X32180000Y11110000D03*
X34720000Y11110000D03*
X34720000Y3490000D03*
X32180000Y3490000D03*
X29640000Y3490000D03*
X27100000Y3490000D03*
X24560000Y3490000D03*
X22020000Y3490000D03*
X19480000Y3490000D03*
D16*
X56200000Y9735000D03*
X54930000Y8465000D03*
X57470000Y8465000D03*
D14*
X42790000Y23010000D03*
D15*
X45330000Y23010000D03*
X47870000Y23010000D03*
X50410000Y23010000D03*
X50410000Y15390000D03*
X47870000Y15390000D03*
X45330000Y15390000D03*
X42790000Y15390000D03*
D13*
X15300000Y14800000D03*
X10300000Y12300000D03*
X10300000Y17300000D03*
D17*
X12800000Y14800000D03*
D13*
X56000000Y24300000D03*
X58500000Y19300000D03*
X53500000Y19300000D03*
D17*
X56000000Y21800000D03*
D16*
X30435000Y19900000D03*
X29165000Y21170000D03*
X29165000Y18630000D03*
X26435000Y19900000D03*
X25165000Y21170000D03*
X25165000Y18630000D03*
D11*
X59760000Y8500000D03*
X64840000Y8500000D03*
D12*
X6150000Y44200000D03*
D13*
X8650000Y44200000D03*
D11*
X59760000Y11100000D03*
X64840000Y11100000D03*
X48260000Y52100000D03*
X53340000Y52100000D03*
X22300000Y53040000D03*
X22300000Y47960000D03*
D12*
X43900000Y52050000D03*
D13*
X43900000Y54550000D03*
D11*
X21300000Y33240000D03*
X21300000Y28160000D03*
X42760000Y25800000D03*
X47840000Y25800000D03*
D12*
X51700000Y26750000D03*
D13*
X51700000Y29250000D03*
D12*
X38000000Y21550000D03*
D13*
X38000000Y24050000D03*
D11*
X51240000Y32300000D03*
X46160000Y32300000D03*
X54760000Y38700000D03*
X59840000Y38700000D03*
X23660000Y29300000D03*
X28740000Y29300000D03*
X30240000Y13800000D03*
X25160000Y13800000D03*
X25160000Y16200000D03*
X30240000Y16200000D03*
D13*
X4700000Y48800000D03*
X10000000Y37900000D03*
X21300000Y35300000D03*
X55000000Y30800000D03*
X40200000Y15400000D03*
X30500000Y37900000D03*
X48000000Y12200000D03*
X56000000Y29000000D03*
X63600000Y29000000D03*
X63600000Y26700000D03*
X56000000Y26700000D03*
X18800000Y22800000D03*
X18800000Y15200000D03*
X37500000Y11000000D03*
X37500000Y3400000D03*
X39800000Y11000000D03*
X39800000Y3400000D03*
X1500000Y17570000D03*
X1500000Y20110000D03*
X1500000Y22650000D03*
X1500000Y25190000D03*
X1500000Y27730000D03*
X1500000Y30270000D03*
X1500000Y32810000D03*
X1500000Y35350000D03*
D12*
X1500000Y40430000D03*
D13*
X1500000Y37890000D03*
X67500000Y17570000D03*
X67500000Y20110000D03*
X67500000Y22650000D03*
X67500000Y25190000D03*
X67500000Y27730000D03*
X67500000Y30270000D03*
X67500000Y32810000D03*
X67500000Y35350000D03*
D12*
X67500000Y40430000D03*
D13*
X67500000Y37890000D03*
D18*
X40500000Y30000000D03*
D19*
X65000000Y2200000D03*
X55000000Y2200000D03*
X64900000Y5300000D03*
X54900000Y5300000D03*
X5300000Y31900000D03*
X15300000Y31900000D03*
X15300000Y25900000D03*
X5300000Y25900000D03*
X15300000Y28900000D03*
X5300000Y28900000D03*
X7900000Y54800000D03*
X17900000Y54800000D03*
X51400000Y2200000D03*
X51400000Y12200000D03*
X15300000Y34900000D03*
X5300000Y34900000D03*
X17900000Y48800000D03*
X7900000Y48800000D03*
X7900000Y51800000D03*
X17900000Y51800000D03*
X51800000Y48600000D03*
X41800000Y48600000D03*
X64400000Y48600000D03*
X54400000Y48600000D03*
X51800000Y45600000D03*
X41800000Y45600000D03*
X64400000Y45600000D03*
X54400000Y45600000D03*
X35200000Y51800000D03*
X25200000Y51800000D03*
X35200000Y54800000D03*
X25200000Y54800000D03*
X59000000Y54800000D03*
X49000000Y54800000D03*
X25200000Y48800000D03*
X35200000Y48800000D03*
X61200000Y24200000D03*
X61200000Y14200000D03*
X5300000Y22900000D03*
X15300000Y22900000D03*
X23700000Y34900000D03*
X33700000Y34900000D03*
X64200000Y14200000D03*
X64200000Y24200000D03*
X45500000Y2200000D03*
X45500000Y12200000D03*
X6600000Y9600000D03*
X16600000Y9600000D03*
X5300000Y19900000D03*
X15300000Y19900000D03*
X33700000Y31900000D03*
X23700000Y31900000D03*
X42500000Y12200000D03*
X42500000Y2200000D03*
X64700000Y36200000D03*
X54700000Y36200000D03*
X54700000Y33200000D03*
X64700000Y33200000D03*
X33200000Y14000000D03*
X33200000Y24000000D03*
X23700000Y26800000D03*
X33700000Y26800000D03*
X21800000Y14000000D03*
X21800000Y24000000D03*
D14*
X36480000Y42510000D03*
D15*
X39020000Y42510000D03*
X41560000Y42510000D03*
X44100000Y42510000D03*
X46640000Y42510000D03*
X49180000Y42510000D03*
X51720000Y42510000D03*
X51720000Y34890000D03*
X49180000Y34890000D03*
X46640000Y34890000D03*
X44100000Y34890000D03*
X41560000Y34890000D03*
X39020000Y34890000D03*
X36480000Y34890000D03*
M02*
